<svg width="18" height="19" viewBox="0 0 18 19" fill="none" xmlns="http://www.w3.org/2000/svg">
<path id="Rectangle 1" d="M1.20618 6.91171C1.20618 4.18314 1.20618 2.81885 2.05384 1.97119C2.90149 1.12354 4.26578 1.12354 6.99435 1.12354H10.8531C13.5817 1.12354 14.946 1.12354 15.7937 1.97119C16.6413 2.81885 16.6413 4.18314 16.6413 6.91171V13.4983C16.6413 16.0868 16.6413 17.3811 15.8268 17.777C15.0123 18.1729 13.9946 17.3732 11.9592 15.774L11.3078 15.2621C10.1633 14.3629 9.59105 13.9133 8.92375 13.9133C8.25644 13.9133 7.6842 14.3629 6.53971 15.2621L5.88829 15.774C3.85287 17.3732 2.83515 18.1729 2.02066 17.777C1.20618 17.3811 1.20618 16.0868 1.20618 13.4983V6.91171Z" stroke="#2A2968" stroke-width="0.964696"/>
</svg>
