<svg width="16" height="16" viewBox="0 0 16 16" fill="none" xmlns="http://www.w3.org/2000/svg">
<g id="Camera_light">
<path id="Rectangle 1" d="M2.38391 6.25288C2.38391 5.6031 2.91067 5.07634 3.56046 5.07634V5.07634C4.0061 5.07634 4.41349 4.82456 4.61279 4.42596L5.13369 3.38417C5.39295 2.86563 5.92294 2.53809 6.50268 2.53809H9.68729C10.267 2.53809 10.797 2.86563 11.0563 3.38417L11.5772 4.42596C11.7765 4.82456 12.1839 5.07634 12.6295 5.07634V5.07634C13.2793 5.07634 13.8061 5.6031 13.8061 6.25289V9.42763C13.8061 10.1018 13.8061 10.4388 13.7424 10.7177C13.5255 11.6682 12.7832 12.4105 11.8326 12.6275C11.5538 12.6911 11.2167 12.6911 10.5426 12.6911H5.64738C4.97324 12.6911 4.63617 12.6911 4.35735 12.6275C3.40678 12.4105 2.66451 11.6682 2.44755 10.7177C2.38391 10.4388 2.38391 10.1018 2.38391 9.42763V6.25288Z" stroke="white" stroke-width="0.846085"/>
<circle id="Ellipse 55" cx="8.09502" cy="8.24919" r="2.11521" stroke="white" stroke-width="0.846085"/>
</g>
</svg>
