<svg width="25" height="25" viewBox="0 0 25 25" fill="none" xmlns="http://www.w3.org/2000/svg">
<g id="Phone_fill">
<path id="Vector 189" d="M7.01312 3.8277L7.62639 3.21443C8.01691 2.82391 8.65008 2.82391 9.0406 3.21443L11.6264 5.80022C12.0169 6.19074 12.0169 6.82391 11.6264 7.21443L9.83398 9.00684C9.5351 9.30573 9.461 9.76233 9.65003 10.1404C10.7428 12.3259 12.5149 14.098 14.7004 15.1908C15.0785 15.3798 15.5351 15.3057 15.834 15.0068L17.6264 13.2144C18.0169 12.8239 18.6501 12.8239 19.0406 13.2144L21.6264 15.8002C22.0169 16.1907 22.0169 16.8239 21.6264 17.2144L21.0131 17.8277C18.9018 19.9391 15.5592 20.1766 13.1705 18.3851L11.9621 17.4788C10.2185 16.1711 8.66971 14.6223 7.36207 12.8788L6.45576 11.6703C4.66422 9.28162 4.90176 5.93906 7.01312 3.8277Z" fill="#6610F2"/>
</g>
</svg>
