<svg width="24" height="25" viewBox="0 0 24 25" fill="none" xmlns="http://www.w3.org/2000/svg">
<g id="Book_open_fill">
<path id="Vector 58" d="M5 17.0555H10C11.1046 17.0555 12 17.951 12 19.0555V10.0555C12 7.22711 12 5.8129 11.1213 4.93422C10.2426 4.05554 8.82843 4.05554 6 4.05554H5C4.05719 4.05554 3.58579 4.05554 3.29289 4.34844C3 4.64133 3 5.11273 3 6.05554V15.0555C3 15.9984 3 16.4698 3.29289 16.7626C3.58579 17.0555 4.05719 17.0555 5 17.0555Z" fill="#6610F2"/>
<path id="Vector 59" d="M19 17.0555H14C12.8954 17.0555 12 17.951 12 19.0555V10.0555C12 7.22711 12 5.8129 12.8787 4.93422C13.7574 4.05554 15.1716 4.05554 18 4.05554H19C19.9428 4.05554 20.4142 4.05554 20.7071 4.34844C21 4.64133 21 5.11273 21 6.05554V15.0555C21 15.9984 21 16.4698 20.7071 16.7626C20.4142 17.0555 19.9428 17.0555 19 17.0555Z" fill="#6610F2"/>
</g>
</svg>
