<svg width="21" height="21" viewBox="0 0 21 21" fill="none" xmlns="http://www.w3.org/2000/svg">
<g id="Book_open_light">
<path id="Vector 58" d="M5.07932 14.5561H8.23126C9.62387 14.5561 10.7528 15.6851 10.7528 17.0777V9.30288C10.7528 6.67344 10.7528 5.35872 9.95815 4.52407C9.92564 4.48992 9.89229 4.45657 9.85813 4.42405C9.02348 3.62939 7.70876 3.62939 5.07932 3.62939C4.20284 3.62939 3.7646 3.62939 3.48638 3.89428C3.47499 3.90512 3.46388 3.91624 3.45304 3.92762C3.18815 4.20584 3.18815 4.64408 3.18815 5.52056V12.665C3.18815 13.5414 3.18815 13.9797 3.45304 14.2579C3.46388 14.2693 3.47499 14.2804 3.48638 14.2912C3.7646 14.5561 4.20284 14.5561 5.07932 14.5561Z" stroke="#2A2968" stroke-width="0.960591"/>
<path id="Vector 59" d="M16.4263 14.5561H13.2744C11.8817 14.5561 10.7528 15.6851 10.7528 17.0777V9.30288C10.7528 6.67344 10.7528 5.35872 11.5475 4.52407C11.58 4.48992 11.6133 4.45657 11.6475 4.42405C12.4821 3.62939 13.7969 3.62939 16.4263 3.62939C17.3028 3.62939 17.741 3.62939 18.0192 3.89428C18.0306 3.90512 18.0417 3.91624 18.0526 3.92762C18.3175 4.20584 18.3175 4.64408 18.3175 5.52056V12.665C18.3175 13.5414 18.3175 13.9797 18.0526 14.2579C18.0417 14.2693 18.0306 14.2804 18.0192 14.2912C17.741 14.5561 17.3028 14.5561 16.4263 14.5561Z" stroke="#2A2968" stroke-width="0.960591"/>
</g>
</svg>
