<svg width="19" height="19" viewBox="0 0 19 19" fill="none" xmlns="http://www.w3.org/2000/svg">
<g id="Edit_light">
<path id="Rectangle 1" d="M5.12405 14.644L5.12406 14.644L5.14583 14.6386L5.14584 14.6386L6.77818 14.2305C6.79329 14.2267 6.8083 14.223 6.82318 14.2193C7.04592 14.1639 7.2431 14.1148 7.42214 14.0134C7.60116 13.9121 7.74469 13.7682 7.90682 13.6058C7.91766 13.5949 7.92858 13.5839 7.9396 13.5729L13.1729 8.33964L13.1863 8.3262C13.3699 8.14267 13.5282 7.98433 13.6482 7.84334C13.7748 7.69457 13.8874 7.53308 13.9534 7.33469L13.479 7.17682L13.9534 7.33469C14.0557 7.02724 14.0557 6.69493 13.9534 6.38748L13.479 6.54535L13.9534 6.38748C13.8874 6.18909 13.7748 6.0276 13.6482 5.87883C13.5282 5.73784 13.3699 5.5795 13.1863 5.39597L13.1729 5.38253L13.1595 5.3691C12.9759 5.18555 12.8176 5.0272 12.6766 4.90722C12.5278 4.78061 12.3663 4.66804 12.1679 4.60203C11.8605 4.49972 11.5282 4.49972 11.2207 4.60203C11.0223 4.66804 10.8609 4.78061 10.7121 4.90722C10.5711 5.0272 10.4127 5.18556 10.2292 5.36912L10.2158 5.38253L4.9825 10.6158L4.98249 10.6158C4.97147 10.6268 4.96053 10.6378 4.94966 10.6486C4.78719 10.8107 4.64337 10.9543 4.542 11.1333C4.44063 11.3123 4.39156 11.5095 4.33613 11.7322C4.33242 11.7471 4.32869 11.7621 4.32491 11.7772L3.91138 13.4314C3.90916 13.4402 3.90693 13.4491 3.90469 13.4581C3.86545 13.6148 3.82354 13.7821 3.8098 13.9226C3.79466 14.0774 3.79819 14.3384 4.0076 14.5478C4.21701 14.7572 4.47806 14.7608 4.63279 14.7456C4.77333 14.7319 4.94066 14.69 5.09734 14.6507C5.10628 14.6485 5.11518 14.6463 5.12405 14.644Z" stroke="#6610F2"/>
<path id="Vector 107" d="M9.81934 5.73608L12.0693 4.23608L14.3193 6.48608L12.8193 8.73608L9.81934 5.73608Z" fill="#6610F2"/>
</g>
</svg>
