<svg width="21" height="21" viewBox="0 0 21 21" fill="none" xmlns="http://www.w3.org/2000/svg">
<g id="Paper_light">
<path id="Vector 57" d="M15.796 3.03305V3.03305C17.1886 3.03305 18.3175 4.16199 18.3175 5.5546L18.3175 7.35571C18.3175 7.57949 18.3175 7.69139 18.281 7.77965C18.2322 7.89734 18.1387 7.99084 18.021 8.03959C17.9328 8.07615 17.8209 8.07615 17.5971 8.07615L13.2744 8.07615M15.796 3.03305V3.03305C14.4034 3.03305 13.2744 4.16199 13.2744 5.55461L13.2744 8.07615M15.796 3.03305L7.0306 3.03305C5.21929 3.03305 4.31363 3.03305 3.75093 3.59575C3.18823 4.15845 3.18823 5.06411 3.18823 6.87542L3.18823 18.1624L5.70978 17.3218L8.23134 18.1624L10.7529 17.3218L13.2744 18.1624L13.2744 8.07615" stroke="#2A2968" stroke-width="0.960591"/>
<path id="Vector 55" d="M6.55029 6.39502L9.91236 6.39502" stroke="#2A2968" stroke-width="0.960591" stroke-linecap="round"/>
<path id="Vector 58" d="M7.39075 9.75708H6.55023" stroke="#2A2968" stroke-width="0.960591" stroke-linecap="round"/>
<path id="Vector 59" d="M6.55029 13.1191L9.07184 13.1191" stroke="#2A2968" stroke-width="0.960591" stroke-linecap="round"/>
</g>
</svg>
