<svg width="21" height="16" viewBox="0 0 21 16" fill="none" xmlns="http://www.w3.org/2000/svg">
<g id="Group">
<g id="Group_2">
<path id="Vector" d="M18.4653 6.51018C18.2707 2.95179 14.8835 0.109131 10.7466 0.109131C6.60982 0.109131 3.22258 2.95179 3.02803 6.51018C1.68034 6.60805 0.666626 7.30498 0.666626 8.17811V9.52293C0.666626 10.4656 1.84733 11.204 3.35464 11.204C3.54046 11.204 3.69063 11.0537 3.69063 10.8678V6.83329C3.69063 3.49645 6.85611 0.781559 10.7466 0.781559C14.6372 0.781559 17.8027 3.49645 17.8027 6.83329V10.7286L16.9916 11.5402H16.2961C16.6156 10.7262 16.7947 9.8302 16.7947 8.88781C16.7947 5.20063 14.0815 2.201 10.7467 2.201C7.41189 2.201 4.69867 5.20063 4.69867 8.88781C4.69867 12.575 7.41185 15.5747 10.7466 15.5747C12.9864 15.5747 14.9413 14.2185 15.9866 12.2126H17.1306C17.22 12.2126 17.3054 12.1773 17.3682 12.1141L18.2801 11.2017C19.7192 11.1573 20.8266 10.4362 20.8266 9.52301V8.17819C20.8267 7.30498 19.813 6.60805 18.4653 6.51018ZM15.5642 11.5405H12.4267C12.4267 10.9844 11.9744 10.5319 11.4187 10.5319H10.0747C9.51893 10.5319 9.06667 10.9844 9.06667 11.5405V12.213C9.06667 12.769 9.51893 13.2216 10.0747 13.2216H11.4187C11.9744 13.2216 12.4267 12.769 12.4267 12.213H15.2228C14.2585 13.8321 12.6128 14.9023 10.7466 14.9023C7.78245 14.9023 5.37065 12.2046 5.37065 8.88785C5.37065 5.57114 7.78245 2.87378 10.7466 2.87378C13.7108 2.87378 16.1226 5.57149 16.1226 8.88821C16.1226 9.841 15.9184 10.739 15.5642 11.5405Z" fill="#2A2968"/>
</g>
</g>
</svg>
