<svg width="24" height="24" viewBox="0 0 24 24" fill="none" xmlns="http://www.w3.org/2000/svg">
<g id="Sign_out_squre_light">
<path id="Vector 9" d="M2.25452 12.305L1.87947 12.005L1.63944 12.305L1.87947 12.6051L2.25452 12.305ZM10.8998 12.7853C11.1651 12.7853 11.3801 12.5703 11.3801 12.305C11.3801 12.0398 11.1651 11.8247 10.8998 11.8247V12.7853ZM5.72183 7.20204L1.87947 12.005L2.62956 12.6051L6.47193 7.80211L5.72183 7.20204ZM1.87947 12.6051L5.72183 17.408L6.47193 16.8079L2.62956 12.005L1.87947 12.6051ZM2.25452 12.7853H10.8998V11.8247H2.25452V12.7853Z" fill="#EA3434"/>
<path id="Rectangle 21" d="M9.93921 8.58958V7.87545C9.93921 6.32088 9.93921 5.5436 10.3945 5.00616C10.8498 4.46872 11.6165 4.34093 13.1499 4.08536L14.7552 3.81781C17.8705 3.29859 19.4282 3.03898 20.4472 3.90226C21.4663 4.76554 21.4663 6.34467 21.4663 9.50293V15.1075C21.4663 18.2657 21.4663 19.8449 20.4472 20.7081C19.4282 21.5714 17.8705 21.3118 14.7552 20.7926L13.1499 20.525C11.6165 20.2695 10.8498 20.1417 10.3945 19.6043C9.93921 19.0668 9.93921 18.2895 9.93921 16.735V16.2109" stroke="#EA3434" stroke-width="0.960591"/>
</g>
</svg>
