<svg width="26" height="26" viewBox="0 0 26 26" fill="none" xmlns="http://www.w3.org/2000/svg">
<g id="Send_fill">
<path id="Subtract" fill-rule="evenodd" clip-rule="evenodd" d="M10.8748 13.7433L7.33778 12.5643C5.30335 11.8862 4.28613 11.5471 4.28613 10.924C4.28613 10.3009 5.30335 9.96181 7.33778 9.28366L17.8861 5.76755C19.3176 5.29039 20.0333 5.05181 20.4111 5.42963C20.789 5.80744 20.5504 6.52318 20.0732 7.95467L16.5571 18.503C15.879 20.5374 15.5399 21.5546 14.9168 21.5546C14.2937 21.5546 13.9546 20.5374 13.2764 18.503L12.0974 14.9659L16.5697 10.4937C16.9073 10.156 16.9073 9.60865 16.5697 9.27103C16.2321 8.93341 15.6847 8.93341 15.347 9.27103L10.8748 13.7433Z" fill="#6610F2"/>
</g>
</svg>
