<svg width="21" height="21" viewBox="0 0 21 21" fill="none" xmlns="http://www.w3.org/2000/svg">
<g id="Wallet_light">
<path id="Vector 57" d="M3.1882 5.46314V5.46314C3.1882 4.30262 4.12898 3.36184 5.2895 3.36184L16.8766 3.36184C16.9882 3.36184 17.044 3.36184 17.0904 3.37107C17.2809 3.40897 17.4299 3.55791 17.4678 3.74844C17.477 3.79483 17.477 3.85063 17.477 3.96221V3.96221C17.477 4.63173 17.477 4.96649 17.4216 5.24486C17.1942 6.38803 16.3006 7.28167 15.1574 7.50906C14.879 7.56443 14.5443 7.56443 13.8748 7.56443H13.2744M3.1882 5.46314V5.46314C3.1882 6.62365 4.12898 7.56443 5.2895 7.56443L16.3963 7.56443C17.302 7.56443 17.7548 7.56443 18.0362 7.84578C18.3175 8.12713 18.3175 8.57996 18.3175 9.48561L18.3175 10.9265M3.1882 5.46314L3.1882 13.8083C3.1882 15.6196 3.1882 16.5252 3.7509 17.0879C4.31361 17.6506 5.21926 17.6506 7.03057 17.6506L16.3963 17.6506C17.302 17.6506 17.7548 17.6506 18.0362 17.3693C18.3175 17.0879 18.3175 16.6351 18.3175 15.7295L18.3175 14.2886M18.3175 14.2886H14.9554C14.2809 14.2886 13.9436 14.2886 13.7013 14.1267C13.5964 14.0566 13.5064 13.9665 13.4363 13.8617C13.2744 13.6194 13.2744 13.2821 13.2744 12.6075V12.6075C13.2744 11.933 13.2744 11.5957 13.4363 11.3534C13.5064 11.2485 13.5964 11.1585 13.7013 11.0884C13.9436 10.9265 14.2809 10.9265 14.9554 10.9265H18.3175M18.3175 14.2886L18.3175 10.9265" stroke="#2A2968" stroke-width="0.960591"/>
</g>
</svg>
