<svg width="16" height="17" viewBox="0 0 16 17" fill="none" xmlns="http://www.w3.org/2000/svg">
<g id="Group 8">
<path id="Rectangle 5" d="M1.2511 9.63655C1.2511 7.82524 1.2511 6.91959 1.8138 6.35689C2.3765 5.79419 3.28215 5.79419 5.09346 5.79419H10.857C12.6683 5.79419 13.574 5.79419 14.1367 6.35689C14.6994 6.91959 14.6994 7.82525 14.6994 9.63655V10.1169C14.6994 12.8338 14.6994 14.1923 13.8553 15.0363C13.0113 15.8804 11.6528 15.8804 8.93583 15.8804H7.01465C4.29768 15.8804 2.9392 15.8804 2.09515 15.0363C1.2511 14.1923 1.2511 12.8338 1.2511 10.1169V9.63655Z" stroke="#2A2968" stroke-width="0.960591"/>
<path id="Vector 5" d="M11.3373 4.95405V4.11353C11.3373 2.25671 9.83205 0.751465 7.97523 0.751465V0.751465C6.11841 0.751465 4.61316 2.25671 4.61316 4.11353V4.95405" stroke="#2A2968" stroke-width="0.960591" stroke-linecap="round"/>
<circle id="Ellipse 6" cx="7.97522" cy="10.8378" r="1.68103" fill="#2A2968"/>
</g>
</svg>
