<svg width="28" height="28" viewBox="0 0 28 28" fill="none" xmlns="http://www.w3.org/2000/svg">
<g id="Blank_alt_light">
<path id="Rectangle 1" d="M13.9112 24.0557H10.3872C8.29206 24.0557 7.2445 24.0557 6.59362 23.4048C5.94275 22.7539 5.94275 21.7064 5.94275 19.6112V8.50011C5.94275 6.40498 5.94275 5.35741 6.59362 4.70654C7.2445 4.05566 8.29206 4.05566 10.3872 4.05566H17.0539C19.149 4.05566 20.1966 4.05566 20.8474 4.70654C21.4983 5.35741 21.4983 6.40498 21.4983 8.50011V16.4685C21.4983 16.9227 21.4983 17.1498 21.4137 17.354C21.3291 17.5582 21.1686 17.7187 20.8474 18.0399L15.4825 23.4048C15.1614 23.7259 15.0008 23.8865 14.7966 23.9711C14.5924 24.0557 14.3653 24.0557 13.9112 24.0557Z" stroke="#9F9F9F" stroke-width="0.955555"/>
<path id="Rectangle 2" d="M13.7205 24.0557V18.8705C13.7205 17.6483 13.7205 17.0372 14.1002 16.6576C14.4799 16.2779 15.091 16.2779 16.3131 16.2779H21.4983" stroke="#9F9F9F" stroke-width="0.955555"/>
</g>
</svg>
