<svg width="12" height="12" viewBox="0 0 12 12" fill="none" xmlns="http://www.w3.org/2000/svg">
<path id="Vector" fill-rule="evenodd" clip-rule="evenodd" d="M1.15972 4.84031C1.15972 2.91882 2.7174 1.36114 4.63889 1.36114C6.56038 1.36114 8.11806 2.91882 8.11806 4.84031C8.11806 6.7618 6.56038 8.31947 4.63889 8.31947C2.7174 8.31947 1.15972 6.7618 1.15972 4.84031ZM4.63889 0.201416C2.0769 0.201416 0 2.27832 0 4.84031C0 7.40229 2.0769 9.4792 4.63889 9.4792C5.71089 9.4792 6.69795 9.11558 7.48348 8.50495L10.6073 11.6288C10.8338 11.8553 11.2009 11.8553 11.4274 11.6288C11.6538 11.4024 11.6538 11.0352 11.4274 10.8088L8.30353 7.6849C8.91416 6.89937 9.27778 5.9123 9.27778 4.84031C9.27778 2.27832 7.20088 0.201416 4.63889 0.201416Z" fill="#9F9F9F"/>
</svg>
