<!DOCTYPE svg PUBLIC "-//W3C//DTD SVG 1.1//EN" "http://www.w3.org/Graphics/SVG/1.1/DTD/svg11.dtd">

<!-- Uploaded to: SVG Repo, www.svgrepo.com, Transformed by: SVG Repo Mixer Tools -->
<svg width="800px" height="800px" viewBox="0 0 24 24" fill="none" xmlns="http://www.w3.org/2000/svg" stroke="#6610f2" stroke-width="0.24000000000000005">

<g id="SVGRepo_bgCarrier" stroke-width="0"/>

<g id="SVGRepo_tracerCarrier" stroke-linecap="round" stroke-linejoin="round"/>

<g id="SVGRepo_iconCarrier"> <path d="M16.2053 5.26491L9.71429 7.42857L9.71428 7.42857C8.08082 7.97306 7.26409 8.24531 6.93878 8.55791C6.11982 9.3449 6.11982 10.6551 6.93878 11.4421C7.26409 11.7547 8.08082 12.0269 9.71428 12.5714L9.71429 12.5714C10.0434 12.6811 10.2079 12.736 10.3539 12.8132C10.7089 13.0009 10.9991 13.2911 11.1868 13.6461C11.264 13.7921 11.3189 13.9566 11.4286 14.2857C11.9731 15.9192 12.2453 16.7359 12.5579 17.0612C13.3449 17.8802 14.6551 17.8802 15.4421 17.0612C15.7547 16.7359 16.0269 15.9192 16.5714 14.2857L16.5714 14.2857L18.7351 7.79473C19.287 6.13894 19.563 5.31105 19.126 4.87403C18.689 4.43702 17.8611 4.71298 16.2053 5.26491Z" fill="#6610f2" fill-opacity="100" stroke="#6610f2"/> </g>

</svg>