<svg width="24" height="25" viewBox="0 0 24 25" fill="none" xmlns="http://www.w3.org/2000/svg">
<g id="Send_light">
<path id="Subtract" fill-rule="evenodd" clip-rule="evenodd" d="M18.3512 5.84344C17.9442 5.91604 17.388 6.10038 16.5773 6.37102L9.94408 8.58552C9.02954 8.89083 8.36408 9.1132 7.88359 9.30526C7.38436 9.50481 7.17073 9.64072 7.08417 9.73655C6.58867 10.2851 6.58867 11.1197 7.08417 11.6682C7.17071 11.764 7.38443 11.9 7.88396 12.0996C8.36472 12.2918 9.03057 12.5143 9.94563 12.8198C9.96013 12.8246 9.97442 12.8294 9.98853 12.8341C10.3121 12.942 10.5355 13.0165 10.7355 13.129C11.1199 13.3451 11.4374 13.6629 11.6531 14.0474C11.7654 14.2476 11.8397 14.471 11.9473 14.7945C11.952 14.8086 11.9567 14.8229 11.9615 14.8374C12.2653 15.7502 12.4866 16.4144 12.6776 16.8941C12.8762 17.3925 13.0113 17.6059 13.1064 17.6924C13.6559 18.1918 14.495 18.1918 15.0445 17.6924C15.1396 17.6059 15.2747 17.3925 15.4732 16.8941C15.6642 16.4144 15.8855 15.7502 16.1893 14.8374L18.4008 8.19277C18.6707 7.38187 18.8545 6.82553 18.9267 6.41846C18.9995 6.0079 18.9275 5.91467 18.8912 5.87844C18.8549 5.84221 18.7617 5.77022 18.3512 5.84344ZM18.1825 4.89778C18.6721 4.81044 19.1864 4.81552 19.5701 5.19889C19.9539 5.58226 19.9594 6.09653 19.8725 6.58626C19.7865 7.07118 19.5789 7.69485 19.3253 8.45688L19.3122 8.49611L17.1008 15.1407L17.0953 15.1572C16.7981 16.0502 16.5682 16.7409 16.3656 17.2495C16.1693 17.7425 15.9675 18.1515 15.6905 18.4032C14.7747 19.2356 13.3762 19.2356 12.4603 18.4032C12.1834 18.1515 11.9815 17.7425 11.7852 17.2495C11.5827 16.7409 11.3528 16.0502 11.0556 15.1572L11.0501 15.1407C10.9228 14.7582 10.8772 14.6277 10.8153 14.5174C10.6859 14.2867 10.4954 14.096 10.2648 13.9663C10.1545 13.9044 10.024 13.8586 9.64145 13.7309L9.62493 13.7254C8.72975 13.4266 8.03729 13.1954 7.52745 12.9916C7.03325 12.7941 6.6232 12.591 6.37133 12.3121C5.5455 11.3978 5.5455 10.0069 6.37133 9.09266C6.62319 8.81383 7.03307 8.61074 7.52705 8.41329C8.03664 8.2096 8.72871 7.97855 9.62337 7.67987L9.63989 7.67436L16.2732 5.45986L16.3124 5.44676C17.0742 5.19242 17.6976 4.98426 18.1825 4.89778Z" fill="#9F9F9F"/>
</g>
</svg>
