<svg width="24" height="25" viewBox="0 0 24 25" fill="none" xmlns="http://www.w3.org/2000/svg">
<g id="Sign_out_squre_light">
<path id="Vector 9" d="M2.25452 12.4895L1.87947 12.1894L1.63944 12.4895L1.87947 12.7895L2.25452 12.4895ZM10.8998 12.9698C11.1651 12.9698 11.3801 12.7547 11.3801 12.4895C11.3801 12.2242 11.1651 12.0092 10.8998 12.0092V12.9698ZM5.72183 7.38649L1.87947 12.1894L2.62956 12.7895L6.47193 7.98656L5.72183 7.38649ZM1.87947 12.7895L5.72183 17.5925L6.47193 16.9924L2.62956 12.1894L1.87947 12.7895ZM2.25452 12.9698H10.8998V12.0092H2.25452V12.9698Z" fill="#EA3434"/>
<path id="Rectangle 21" d="M9.93921 8.77382V8.0597C9.93921 6.50513 9.93921 5.72785 10.3945 5.19041C10.8498 4.65297 11.6165 4.52518 13.1499 4.26961L14.7552 4.00206C17.8705 3.48284 19.4282 3.22323 20.4472 4.08651C21.4663 4.94979 21.4663 6.52892 21.4663 9.68718V15.2917C21.4663 18.45 21.4663 20.0291 20.4472 20.8924C19.4282 21.7557 17.8705 21.4961 14.7552 20.9769L13.1499 20.7093C11.6165 20.4537 10.8498 20.3259 10.3945 19.7885C9.93921 19.2511 9.93921 18.4738 9.93921 16.9192V16.3952" stroke="#EA3434" stroke-width="0.960591"/>
</g>
</svg>
