<svg width="22" height="21" viewBox="0 0 22 21" fill="none" xmlns="http://www.w3.org/2000/svg">
<g id="Book_check_light">
<path id="Vector 57" d="M17.6974 10.5589V14.1226C17.6974 16.0082 17.6974 16.951 17.1116 17.5368C16.5258 18.1226 15.583 18.1226 13.6974 18.1226H6.35177C5.1914 18.1226 4.25073 17.1819 4.25073 16.0216V16.0216C4.25073 14.8612 5.1914 13.9205 6.35177 13.9205H13.6974C15.583 13.9205 16.5258 13.9205 17.1116 13.3347C17.6974 12.749 17.6974 11.8062 17.6974 9.92053V6.99512C17.6974 5.1095 17.6974 4.16669 17.1116 3.5809C16.5258 2.99512 15.583 2.99512 13.6974 2.99512H8.25074C6.36512 2.99512 5.42231 2.99512 4.83652 3.5809C4.25073 4.16669 4.25073 5.1095 4.25073 6.99512V16.0216" stroke="#201F68"/>
<path id="Vector 55" d="M8.45276 8.8781L9.42649 9.85183C9.81701 10.2424 10.4502 10.2424 10.8407 9.85183L13.4953 7.19727" stroke="#201F68" stroke-linecap="round"/>
</g>
</svg>
