<svg width="16" height="17" viewBox="0 0 16 17" fill="none" xmlns="http://www.w3.org/2000/svg">
<g id="View_hide_light">
<rect x="0.222229" y="0.777771" width="15.4738" height="15.4738" fill="white"/>
<path id="Subtract_light" fill-rule="evenodd" clip-rule="evenodd" d="M10.5353 8.39484C10.4746 7.0658 9.40788 5.9991 8.07884 5.93835L10.5353 8.39484ZM5.57259 7.53521C5.44854 7.83718 5.38013 8.1679 5.38013 8.51459C5.38013 9.93891 6.53477 11.0935 7.95909 11.0935C8.30578 11.0935 8.63649 11.0251 8.93847 10.9011L8.15235 10.115C8.08899 10.1225 8.02449 10.1264 7.95909 10.1264C7.06889 10.1264 6.34724 9.40479 6.34724 8.51459C6.34724 8.44918 6.35113 8.38469 6.3587 8.32132L5.57259 7.53521Z" fill="#9F9F9F"/>
<path id="Subtract_light_2" fill-rule="evenodd" clip-rule="evenodd" d="M10.3114 12.2734L9.58268 11.5448C9.06101 11.7663 8.51545 11.8995 7.95891 11.8995C7.02407 11.8995 6.12022 11.5238 5.30846 10.9845C4.49882 10.4465 3.81279 9.76694 3.32381 9.21208C2.90809 8.74035 2.87013 8.66352 2.87013 8.5146C2.87013 8.36568 2.90809 8.28885 3.32381 7.81712C3.66397 7.43112 4.09949 6.98477 4.60566 6.56773L3.91893 5.881C3.39204 6.32294 2.94473 6.78453 2.59824 7.1777L2.54354 7.2396C2.21297 7.61304 1.90302 7.9632 1.90302 8.5146C1.90302 9.066 2.21297 9.41615 2.54354 9.7896L2.59824 9.85149C3.11931 10.4428 3.86841 11.1888 4.77328 11.79C5.67605 12.3898 6.76612 12.8666 7.95891 12.8666C8.80477 12.8666 9.59897 12.6268 10.3114 12.2734ZM6.52665 4.38562C6.98213 4.24549 7.46159 4.1626 7.95891 4.1626C9.15171 4.1626 10.2418 4.63943 11.1445 5.23921C12.0494 5.84039 12.7985 6.58642 13.3196 7.1777L13.3743 7.23959C13.7049 7.61304 14.0148 7.9632 14.0148 8.5146C14.0148 9.066 13.7049 9.41615 13.3743 9.7896L13.3196 9.85149C13.1327 10.0635 12.9166 10.2954 12.6744 10.5334L11.9906 9.84953C12.2151 9.62914 12.4174 9.41247 12.594 9.21207C13.0097 8.74035 13.0477 8.66352 13.0477 8.5146C13.0477 8.36568 13.0097 8.28885 12.594 7.81712C12.105 7.26225 11.419 6.58266 10.6094 6.04474C9.79761 5.50543 8.89376 5.12971 7.95891 5.12971C7.74628 5.12971 7.53526 5.14915 7.32655 5.18552L6.52665 4.38562Z" fill="#9F9F9F"/>
<path id="Vector 116_light" d="M3.44598 2.0672L13.7618 12.3831" stroke="#9F9F9F" stroke-width="0.967111"/>
<rect x="0.222229" y="0.777771" width="15.4738" height="15.4738" stroke="black"/>
</g>
</svg>
