<svg width="17" height="20" viewBox="0 0 17 20" fill="none" xmlns="http://www.w3.org/2000/svg">
<path d="M12.706 0.0871582H0.222656V19.299H16.0792V3.28873L12.706 0.0871582Z" fill="#E4E4E4"/>
<path d="M8.64595 0.887451H7.65625V9.31273H8.64595V0.887451Z" fill="#333E48"/>
<path d="M8.1503 8.61536C7.5997 8.61536 7.15332 9.89871 7.15332 10.4213C7.15332 10.9439 7.5997 11.3675 8.1503 11.3675C8.7009 11.3675 9.14728 10.9439 9.14728 10.4213C9.14728 9.89871 8.7009 8.61536 8.1503 8.61536ZM8.1503 10.8592C7.89546 10.8592 7.68883 10.6632 7.68883 10.4212C7.68883 10.1793 7.8954 9.98324 8.1503 9.98324C8.40513 9.98324 8.61177 10.1793 8.61177 10.4212C8.61177 10.6632 8.40513 10.8592 8.1503 10.8592Z" fill="#A4A9AD"/>
<path d="M13.228 1.68797H0.222656V0.0871582H12.706L13.228 1.68797Z" fill="#A4A9AD"/>
<path d="M7.16059 17.4415H4.66504V16.9341L6.05192 15.0646H4.69789V14.4012H7.12554V14.9066L5.73866 16.7782H7.16059V17.4415Z" fill="#A4A9AD"/>
<path d="M7.61816 17.4414V14.4011H8.48796V17.4414H7.61816Z" fill="#A4A9AD"/>
<path d="M11.5054 15.3681C11.5054 15.7078 11.3998 15.9701 11.1888 16.1552C10.9777 16.3403 10.6779 16.4328 10.2893 16.4328H10.0461V17.4414H9.18066V14.4011H10.2893C10.6939 14.4011 10.9976 14.485 11.2007 14.6528C11.4038 14.8205 11.5054 15.0589 11.5054 15.3681ZM10.0461 15.7632H10.2038C10.3338 15.7632 10.4372 15.7286 10.5138 15.6592C10.5905 15.5899 10.6289 15.4942 10.6289 15.3722C10.6289 15.167 10.5091 15.0644 10.2695 15.0644H10.0461L10.0461 15.7632Z" fill="#A4A9AD"/>
<path d="M12.7061 3.28873H16.0793L12.7061 0.0871582V3.28873Z" fill="#D1D3D3"/>
</svg>
