<svg width="202" height="151" viewBox="0 0 202 151" fill="none" xmlns="http://www.w3.org/2000/svg">
<g id="undraw_empty_re_opql 1" clip-path="url(#clip0_657_15480)">
<path id="Vector" d="M147.199 143.023H143.206L141.305 127.62H147.199V143.023Z" fill="#9E616A"/>
<path id="Vector_2" d="M149.307 149.942H146.443L145.932 147.238L144.623 149.942H137.028C136.663 149.942 136.309 149.825 136.016 149.609C135.722 149.394 135.506 149.09 135.397 148.742C135.289 148.395 135.295 148.022 135.413 147.677C135.532 147.333 135.758 147.036 136.057 146.829L142.123 142.64V139.907L148.502 140.288L149.307 149.942Z" fill="#2F2E41"/>
<path id="Vector_3" d="M170.923 137.983L167.719 140.366L157.003 129.14L161.732 125.623L170.923 137.983Z" fill="#9E616A"/>
<path id="Vector_4" d="M176.743 142.278L174.445 143.986L172.422 142.122L172.985 145.073L166.89 149.605C166.598 149.822 166.244 149.94 165.88 149.942C165.516 149.944 165.16 149.829 164.866 149.615C164.572 149.401 164.354 149.098 164.244 148.751C164.133 148.404 164.137 148.031 164.254 147.686L166.622 140.705L164.991 138.512L170.337 135.011L176.743 142.278Z" fill="#2F2E41"/>
<path id="Vector_5" d="M151.848 63.5536C151.848 63.5536 159.425 70.0995 155.929 88.7601L151.661 107.044L165.58 130.135L161.142 135.534L143.048 110.541L136.491 95.1607L134.651 67.7866L151.848 63.5536Z" fill="#2F2E41"/>
<path id="Vector_6" d="M140.105 99.5436L139.649 106.601L141.044 136.677L147.606 135.534L148.86 114.121L140.105 99.5436Z" fill="#2F2E41"/>
<path id="Vector_7" d="M55.8904 146.644L59.4615 146.644L61.1602 132.87L55.8899 132.87L55.8904 146.644Z" fill="#C08787"/>
<path id="Vector_8" d="M54.9795 145.478L55.9846 145.478L59.9089 143.882L62.0122 145.478H62.0125C63.2011 145.478 64.3411 145.95 65.1816 146.79C66.022 147.631 66.4943 148.771 66.4943 149.959V150.105L54.9797 150.105L54.9795 145.478Z" fill="#2F2E41"/>
<path id="Vector_9" d="M69.7292 144.394L73.2125 145.18L77.9038 132.118L72.7628 130.958L69.7292 144.394Z" fill="#C08787"/>
<path id="Vector_10" d="M69.0973 143.056L70.0777 143.277L74.2572 142.585L75.9573 144.605L75.9576 144.605C77.117 144.867 78.1249 145.578 78.7596 146.583C79.3943 147.588 79.6039 148.804 79.3421 149.964L79.31 150.106L68.0781 147.57L69.0973 143.056Z" fill="#2F2E41"/>
<path id="Vector_11" d="M51.3676 62.4359C49.6933 67.4856 49.8703 72.9669 51.77 78.8497L52.5821 111.972C52.5821 111.972 51.3721 133.693 55.2765 141.336H60.9388L63.7423 109.988L64.0944 88.9474L76.2338 106.699L68.5019 140.824L75.4709 141.447L88.0178 104.413L72.5374 68.4844L51.3676 62.4359Z" fill="#2F2E41"/>
<path id="Vector_12" d="M116.667 48.0525C120.998 44.1496 127.44 42.1872 132.844 44.3757C127.301 47.4531 123.025 52.3921 120.773 58.3186C119.913 60.6074 119.194 63.2426 117.078 64.468C115.762 65.2305 114.124 65.2677 112.647 64.8997C111.171 64.5315 109.818 63.7937 108.483 63.0632L108.104 63.0546C109.808 57.4793 112.336 51.9553 116.667 48.0525Z" fill="#E6E6E6"/>
<path id="Vector_13" d="M132.813 44.4942C128.028 45.1126 123.558 47.2234 120.04 50.5265C119.27 51.2242 118.615 52.0388 118.099 52.9405C117.624 53.8351 117.398 54.8405 117.443 55.8521C117.467 56.7962 117.6 57.7592 117.394 58.6926C117.281 59.1688 117.069 59.6157 116.771 60.0042C116.473 60.3926 116.097 60.7137 115.666 60.9465C114.609 61.5544 113.396 61.746 112.203 61.8922C110.879 62.0545 109.501 62.2021 108.355 62.9448C108.216 63.0348 108.085 62.8141 108.223 62.7242C110.217 61.432 112.741 61.9022 114.885 61.0398C115.886 60.6373 116.771 59.931 117.085 58.863C117.359 57.929 117.222 56.9358 117.19 55.9801C117.131 54.9939 117.315 54.0082 117.725 53.1093C118.194 52.1843 118.816 51.3457 119.566 50.6296C121.229 48.9904 123.14 47.6229 125.227 46.5772C127.603 45.3704 130.168 44.579 132.811 44.2372C132.975 44.2161 132.976 44.4732 132.813 44.4942Z" fill="white"/>
<path id="Vector_14" d="M121.111 49.3962C120.636 48.7307 120.414 47.9184 120.484 47.1043C120.554 46.2902 120.91 45.5274 121.49 44.952C121.608 44.8359 121.794 45.0135 121.676 45.1297C121.135 45.6645 120.803 46.3752 120.739 47.1334C120.676 47.8916 120.886 48.6474 121.331 49.2645C121.428 49.3987 121.207 49.5297 121.111 49.3962Z" fill="white"/>
<path id="Vector_15" d="M117.369 55.375C119.013 55.6663 120.707 55.3271 122.113 54.425C122.252 54.3355 122.384 54.5562 122.245 54.6456C120.78 55.5817 119.016 55.9311 117.306 55.6241C117.143 55.5947 117.206 55.3458 117.369 55.375Z" fill="white"/>
<path id="Vector_16" d="M127.624 45.7104C127.754 46.0062 127.955 46.265 128.21 46.4637C128.464 46.6625 128.764 46.7949 129.083 46.8491C129.246 46.8763 129.182 47.1253 129.02 47.0982C128.668 47.0367 128.337 46.8901 128.055 46.6711C127.774 46.4522 127.55 46.1676 127.404 45.8422C127.387 45.8127 127.383 45.778 127.391 45.7453C127.399 45.7126 127.42 45.6842 127.448 45.666C127.477 45.6487 127.512 45.6437 127.545 45.652C127.578 45.6603 127.607 45.6813 127.624 45.7104Z" fill="white"/>
<path id="Vector_17" d="M138.794 63.197C138.692 63.1829 138.589 63.1687 138.485 63.1561C137.107 62.9732 135.715 62.9025 134.325 62.9448C134.218 62.9464 134.109 62.9496 134.001 62.9542C130.654 63.0919 127.36 63.85 124.289 65.1899C123.067 65.7242 121.888 66.3507 120.762 67.0639C119.206 68.049 117.597 69.2408 115.858 69.6426C115.677 69.6865 115.494 69.7192 115.308 69.7405L108.123 63.5185C108.113 63.4962 108.103 63.4754 108.093 63.453L107.795 63.2177C107.851 63.1769 107.909 63.1357 107.965 63.0949C107.997 63.071 108.031 63.0486 108.063 63.0248C108.085 63.0093 108.107 62.9939 108.125 62.9788C108.133 62.9736 108.14 62.9685 108.146 62.965C108.165 62.9498 108.184 62.9377 108.201 62.9241C108.528 62.6931 108.856 62.464 109.187 62.2368C109.188 62.2351 109.188 62.2351 109.191 62.2349C111.694 60.4794 114.396 59.0269 117.241 57.908C117.326 57.8757 117.413 57.8418 117.501 57.8124C118.782 57.336 120.1 56.9652 121.442 56.7035C122.177 56.5626 122.919 56.459 123.664 56.3931C125.591 56.2265 127.532 56.3641 129.416 56.8006C133.171 57.6714 136.606 59.7336 138.641 62.9498C138.693 63.0321 138.744 63.113 138.794 63.197Z" fill="#E6E6E6"/>
<path id="Vector_18" d="M138.699 63.2741C134.505 60.8865 129.666 59.881 124.868 60.4003C123.834 60.4938 122.82 60.7498 121.865 61.1589C120.947 61.5875 120.161 62.2539 119.589 63.089C119.039 63.8569 118.565 64.706 117.839 65.3269C117.462 65.6392 117.023 65.8684 116.552 65.9993C116.08 66.1302 115.586 66.16 115.103 66.0867C113.892 65.9353 112.808 65.3581 111.768 64.7568C110.613 64.0891 109.424 63.3774 108.062 63.2803C107.897 63.2685 107.925 63.0131 108.089 63.0248C110.46 63.1937 112.191 65.0885 114.423 65.6909C115.464 65.972 116.596 65.941 117.489 65.277C118.27 64.6963 118.759 63.8211 119.309 63.0387C119.856 62.2159 120.596 61.5395 121.465 61.0686C122.396 60.6122 123.398 60.3175 124.428 60.1973C126.743 59.8897 129.091 59.9479 131.388 60.3699C134.011 60.8369 136.536 61.7492 138.852 63.0675C138.995 63.1492 138.841 63.3553 138.699 63.2741Z" fill="white"/>
<path id="Vector_19" d="M126.403 60.1422C126.426 59.3254 126.737 58.5431 127.283 57.935C127.829 57.3269 128.573 56.9325 129.382 56.8224C129.546 56.8006 129.588 57.0543 129.424 57.076C128.669 57.1772 127.976 57.5447 127.469 58.112C126.962 58.6793 126.675 59.4092 126.659 60.1699C126.655 60.3352 126.4 60.3066 126.403 60.1422Z" fill="white"/>
<path id="Vector_20" d="M119.816 62.6627C120.954 63.8856 122.511 64.6346 124.176 64.7606C124.341 64.773 124.313 65.0284 124.148 65.0161C122.416 64.8818 120.797 64.0989 119.616 62.8238C119.503 62.7022 119.704 62.5418 119.816 62.6627Z" fill="white"/>
<path id="Vector_21" d="M133.823 61.1209C133.749 61.4352 133.754 61.763 133.837 62.0749C133.921 62.3868 134.081 62.6731 134.302 62.9081C134.416 63.0282 134.215 63.1885 134.102 63.0691C133.859 62.8084 133.682 62.4921 133.589 62.1476C133.496 61.8032 133.489 61.4412 133.568 61.0933C133.573 61.0599 133.59 61.0295 133.616 61.0083C133.643 60.9872 133.676 60.9768 133.71 60.9794C133.743 60.9832 133.774 61.0002 133.796 61.0267C133.817 61.0533 133.827 61.0871 133.823 61.1209Z" fill="white"/>
<path id="Vector_22" d="M12.5803 146.394C12.243 147.66 11.3566 148.713 10.2865 149.481C10.112 149.607 9.93292 149.723 9.75146 149.832C9.69563 149.865 9.63979 149.9 9.58163 149.93C9.51882 149.967 9.45601 150.002 9.3932 150.035H4.3613C4.27057 149.851 4.18217 149.665 4.09377 149.481C1.93724 144.949 0.422783 140.059 0.681008 135.079C0.783455 133.147 1.18933 131.243 1.88373 129.437C3.26559 125.838 5.78735 122.723 9.25595 121.155C9.34202 121.116 9.43275 121.076 9.52115 121.039C9.49323 121.139 9.46532 121.237 9.4374 121.337C9.06528 122.677 8.80232 124.046 8.65109 125.429C8.63714 125.536 8.6255 125.643 8.6162 125.752C8.2857 129.088 8.57917 132.455 9.4816 135.683C9.48393 135.69 9.48624 135.7 9.48858 135.707C9.68633 136.421 9.91586 137.124 10.1772 137.817C10.3819 138.363 10.6029 138.903 10.8448 139.434C11.8545 141.66 13.2084 144.033 12.5803 146.394Z" fill="#E6E6E6"/>
<path id="Vector_23" d="M9.5838 121.144C9.53494 121.209 9.48608 121.272 9.43724 121.337C8.41546 122.691 7.5478 124.155 6.85033 125.701C6.81311 125.778 6.77821 125.854 6.74797 125.934C5.7923 128.093 5.17855 130.388 4.92876 132.736C4.92606 132.752 4.92451 132.768 4.92411 132.785C4.86595 133.334 4.83106 133.887 4.8171 134.441C4.76537 135.479 4.87763 136.518 5.14976 137.521C5.3979 138.34 5.8327 139.09 6.41995 139.713C6.47811 139.775 6.53627 139.838 6.59908 139.899C6.64561 139.947 6.69679 139.996 6.74564 140.043C7.21557 140.492 7.72969 140.908 8.1717 141.39C8.37429 141.606 8.55725 141.839 8.71839 142.088C8.97558 142.504 9.14171 142.97 9.20586 143.455C9.27001 143.94 9.23073 144.434 9.09061 144.903C8.77422 146.08 8.05073 147.073 7.31095 148.02C6.94106 148.494 6.55953 148.974 6.22919 149.481C6.10823 149.662 5.99656 149.846 5.89421 150.035H5.60109C5.6988 149.846 5.80581 149.662 5.92213 149.481C6.77125 148.143 7.97863 146.994 8.60441 145.521C9.02781 144.528 9.15576 143.402 8.6207 142.427C8.46389 142.144 8.27413 141.88 8.0554 141.641C7.62967 141.16 7.1202 140.748 6.65726 140.313C6.54094 140.203 6.42695 140.092 6.31761 139.975C5.73793 139.386 5.29061 138.681 5.00555 137.905C4.68271 136.92 4.53009 135.887 4.55423 134.85C4.55423 134.19 4.58913 133.524 4.65427 132.864C4.66125 132.78 4.67055 132.694 4.67986 132.608C5.15561 128.45 6.7356 124.496 9.25579 121.155C9.30232 121.09 9.35117 121.027 9.40003 120.964C9.50005 120.834 9.68383 121.016 9.5838 121.144Z" fill="white"/>
<path id="Vector_24" d="M4.77371 132.886C3.96793 132.75 3.2365 132.333 2.71003 131.708C2.18357 131.083 1.89636 130.292 1.89969 129.475C1.90013 129.441 1.91349 129.409 1.93695 129.386C1.96041 129.362 1.99214 129.349 2.02545 129.348C2.05877 129.347 2.09106 129.359 2.11553 129.382C2.14 129.405 2.15474 129.436 2.15664 129.469C2.15214 130.23 2.41975 130.967 2.91118 131.548C3.40262 132.129 4.08549 132.515 4.83657 132.637C4.99976 132.663 4.93596 132.912 4.77371 132.886Z" fill="white"/>
<path id="Vector_25" d="M6.35552 139.759C7.72449 138.803 8.6825 137.365 9.03854 135.733C9.07368 135.571 9.32278 135.634 9.28769 135.796C8.91403 137.493 7.91402 138.987 6.48725 139.98C6.35119 140.075 6.2202 139.853 6.35552 139.759Z" fill="white"/>
<path id="Vector_26" d="M6.77333 125.674C7.07419 125.791 7.39948 125.832 7.71999 125.792C8.0405 125.753 8.3462 125.634 8.60962 125.448C8.74441 125.351 8.87526 125.573 8.74135 125.668C8.44934 125.873 8.11157 126.004 7.75755 126.048C7.40353 126.092 7.04404 126.049 6.71046 125.923C6.67802 125.913 6.65034 125.892 6.63303 125.863C6.61573 125.834 6.61011 125.8 6.61732 125.767C6.62581 125.734 6.64696 125.706 6.67617 125.688C6.70538 125.671 6.7403 125.665 6.77333 125.674Z" fill="white"/>
<path id="Vector_27" d="M27.0362 130.14C26.9548 130.202 26.871 130.265 26.7896 130.33C25.6851 131.176 24.6511 132.109 23.6979 133.122C23.6234 133.199 23.549 133.278 23.4768 133.357L23.4745 133.359C21.2142 135.813 19.427 138.663 18.203 141.767L18.196 141.788C18.1937 141.795 18.1914 141.799 18.1891 141.806C17.7039 143.048 17.3127 144.325 17.0189 145.626C16.7351 146.896 16.5024 148.257 16.0581 149.481C15.9906 149.669 15.9162 149.855 15.8371 150.035H5.49414C5.52904 149.851 5.56626 149.665 5.60348 149.481C6.12962 146.785 6.95193 144.156 8.05545 141.641C8.09268 141.557 8.1299 141.474 8.17177 141.39C8.74145 140.147 9.41133 138.953 10.1748 137.819L10.1749 137.818L10.1754 137.817L10.1762 137.817L10.1771 137.817C10.5963 137.198 11.0466 136.601 11.5264 136.028C12.7706 134.547 14.2402 133.272 15.8813 132.25C15.8906 132.243 15.9022 132.238 15.9115 132.231C19.1777 130.205 23.0488 129.239 26.75 130.074H26.7524C26.8477 130.095 26.9408 130.116 27.0362 130.14Z" fill="#E6E6E6"/>
<path id="Vector_28" d="M27.0247 130.263C26.9456 130.284 26.8665 130.307 26.7897 130.331C25.1593 130.796 23.5856 131.442 22.0975 132.254C22.023 132.294 21.9486 132.336 21.8741 132.378C19.8175 133.526 17.9507 134.984 16.3397 136.702C16.3385 136.704 16.3377 136.705 16.3374 136.707C16.3188 136.726 16.2979 136.747 16.2816 136.765C15.9094 137.165 15.5511 137.582 15.2115 138.01C14.5471 138.808 14.0117 139.705 13.6249 140.669C13.3293 141.472 13.2249 142.333 13.3201 143.184C13.3271 143.27 13.3387 143.354 13.3504 143.44C13.3597 143.507 13.369 143.575 13.3806 143.644C13.5342 144.577 13.7994 145.512 13.7249 146.464C13.6796 146.951 13.5316 147.424 13.2906 147.85C13.0497 148.276 12.7212 148.647 12.3268 148.937C12.0587 149.144 11.7721 149.326 11.4707 149.481C11.0397 149.703 10.5907 149.889 10.1284 150.035H9.21411C9.33741 150 9.45838 149.965 9.58168 149.93C10.0192 149.807 10.4488 149.657 10.8681 149.481C11.1077 149.381 11.3408 149.266 11.5661 149.137C12.5012 148.599 13.2806 147.776 13.4434 146.676C13.5853 145.712 13.3108 144.749 13.148 143.807C13.1201 143.644 13.0945 143.484 13.0805 143.323C12.9694 142.507 13.0369 141.677 13.2783 140.89C13.613 139.908 14.1134 138.99 14.7578 138.177C15.1564 137.648 15.582 137.139 16.0327 136.654C16.0885 136.591 16.1466 136.528 16.2071 136.465C17.852 134.735 19.7512 133.265 21.8392 132.108H21.8416C23.3941 131.244 25.0412 130.561 26.7502 130.075H26.7525C26.8293 130.051 26.9084 130.028 26.9851 130.007C27.1456 129.965 27.1829 130.219 27.0247 130.263Z" fill="white"/>
<path id="Vector_29" d="M16.1149 136.742C15.5531 136.149 15.2203 135.375 15.1762 134.559C15.132 133.743 15.3793 132.938 15.8739 132.288C15.9744 132.157 16.1831 132.307 16.0825 132.438C15.6208 133.043 15.3905 133.793 15.4332 134.552C15.4758 135.312 15.7886 136.031 16.3151 136.581C16.4294 136.7 16.2286 136.861 16.1149 136.742Z" fill="white"/>
<path id="Vector_30" d="M13.2394 143.182C14.9085 143.242 16.5391 142.671 17.8058 141.583C17.9312 141.475 18.0922 141.675 17.9669 141.783C16.6466 142.913 14.9485 143.504 13.2117 143.438C13.0462 143.431 13.0747 143.176 13.2394 143.182Z" fill="white"/>
<path id="Vector_31" d="M22.0536 132.187C22.2232 132.462 22.4583 132.69 22.738 132.852C23.0177 133.013 23.3331 133.103 23.6559 133.112C23.8214 133.117 23.7927 133.372 23.6282 133.368C23.2716 133.356 22.9234 133.256 22.614 133.079C22.3047 132.901 22.0435 132.65 21.8534 132.348C21.8331 132.321 21.8238 132.288 21.8274 132.254C21.8311 132.221 21.8473 132.19 21.8729 132.168C21.8996 132.146 21.9335 132.137 21.9673 132.14C22.0011 132.144 22.0321 132.161 22.0536 132.187Z" fill="white"/>
<path id="Vector_32" d="M106.823 40.776C106.584 41.09 106.279 41.3479 105.93 41.5314C105.581 41.715 105.196 41.8197 104.802 41.8383C104.408 41.8569 104.014 41.7889 103.649 41.639C103.285 41.4891 102.957 41.261 102.69 40.9708L93.896 44.7954L94.7526 39.8864L102.972 37.0071C103.489 36.5905 104.141 36.3781 104.805 36.4101C105.468 36.4422 106.097 36.7165 106.571 37.1811C107.046 37.6456 107.334 38.2682 107.38 38.9307C107.427 39.5933 107.228 40.2498 106.823 40.776Z" fill="#C08787"/>
<path id="Vector_33" d="M100.955 42.3089L80.5299 51.4068L80.4861 51.3912L57.2069 43.0956C55.4729 42.1894 54.151 40.6546 53.5117 38.8055C52.8724 36.9564 52.9642 34.9328 53.7682 33.1492C54.2139 32.1637 54.8632 31.2837 55.6734 30.5673C56.4837 29.8508 57.4365 29.3141 58.4691 28.9925C59.5018 28.6708 60.5908 28.5715 61.6646 28.701C62.7384 28.8306 63.7726 29.1861 64.6991 29.7442L82.0231 40.18L98.822 38.0028L100.955 42.3089Z" fill="#E6E6E6"/>
<path id="Vector_34" d="M201.347 150.223C201.348 150.26 201.34 150.296 201.327 150.329C201.313 150.363 201.292 150.394 201.267 150.419C201.241 150.445 201.21 150.465 201.177 150.479C201.143 150.493 201.107 150.5 201.071 150.5H0.936745C0.863324 150.5 0.792912 150.471 0.740995 150.419C0.689078 150.367 0.659912 150.297 0.659912 150.223C0.659912 150.15 0.689078 150.079 0.740995 150.028C0.792912 149.976 0.863324 149.946 0.936745 149.946H201.071C201.107 149.946 201.143 149.953 201.177 149.967C201.21 149.981 201.241 150.002 201.267 150.027C201.292 150.053 201.313 150.084 201.327 150.117C201.34 150.151 201.348 150.187 201.347 150.223Z" fill="#CCCCCC"/>
<path id="Vector_35" d="M73.5469 69.5452L52.9573 66.2519C52.4173 66.0789 51.9211 65.7912 51.5028 65.4084C51.0845 65.0256 50.754 64.5568 50.534 64.0342C50.314 63.5116 50.2097 62.9475 50.2282 62.3808C50.2467 61.8141 50.3876 61.2581 50.6413 60.751L51.575 58.8833L51.2123 39.2613C51.1686 36.7089 51.7978 34.1901 53.0367 31.9581C54.2756 29.7262 56.0804 27.8598 58.2697 26.5469L60.2775 25.3464L61.2922 22.7695L70.6488 22.9977L70.6761 26.3773L74.0269 31.7206L74.0268 31.7427L73.8166 60.8253L72.8931 63.8266L74.2895 67.3175L73.5469 69.5452Z" fill="#E6E6E6"/>
<path id="Vector_36" d="M66.8276 19.5652C71.5229 19.5652 75.3291 15.7589 75.3291 11.0637C75.3291 6.36849 71.5229 2.56226 66.8276 2.56226C62.1324 2.56226 58.3262 6.36849 58.3262 11.0637C58.3262 15.7589 62.1324 19.5652 66.8276 19.5652Z" fill="#C08787"/>
<path id="Vector_37" d="M57.9748 12.9174C57.7213 11.8492 57.8377 10.346 57.981 9.27038C58.3567 6.45054 59.9227 3.76978 62.3018 2.18187C62.7529 1.83923 63.289 1.62621 63.8522 1.56574C64.415 1.54225 65.0251 1.84355 65.1979 2.37973C65.3397 2.02585 65.5525 1.70478 65.8232 1.43634C66.0939 1.16791 66.4168 0.957796 66.7718 0.818982C67.4851 0.545718 68.2522 0.442377 69.0123 0.517148C70.4856 0.638593 71.8986 1.15665 73.1013 2.01635C74.3039 2.87605 75.2514 4.0453 75.8432 5.40004C76.0702 5.93948 76.7045 3.94695 76.9922 4.45664C77.2566 4.98643 77.7178 5.3917 78.2772 5.58572C78.841 5.74302 79.07 8.06569 79.2918 7.52408C79.4639 7.92434 79.532 8.36165 79.4896 8.79529C79.4472 9.22893 79.2958 9.64478 79.0494 10.0041C78.803 10.3635 78.4697 10.6546 78.0805 10.8505C77.6912 11.0463 77.2588 11.1405 76.8234 11.1242C76.2496 11.1027 75.701 10.8917 75.134 10.8008C73.1066 10.476 70.9559 11.9461 70.5225 13.9532C70.3673 13.3727 70.1194 12.8212 69.7883 12.3198C69.6203 12.0705 69.3951 11.8648 69.1316 11.72C68.868 11.5752 68.5737 11.4954 68.2731 11.4873C67.6963 11.5089 67.1893 11.886 66.815 12.3255C66.4407 12.7649 66.1596 13.2776 65.7826 13.7147C64.6763 14.9973 63.18 17.9882 61.6034 17.77C60.3592 17.5979 58.3211 14.3759 57.9748 12.9174Z" fill="#2F2E41"/>
<path id="Vector_38" d="M118.218 50.4097C118.278 50.0221 118.198 49.626 117.993 49.2915C117.788 48.9571 117.472 48.7059 117.1 48.5826L94.2053 40.9575C93.9859 40.8841 93.7534 40.8574 93.523 40.8792L87.7846 41.4218L84.492 41.7342L78.4158 42.3084C78.049 42.3435 77.7041 42.4993 77.4354 42.7515C77.1666 43.0037 76.9891 43.3379 76.9308 43.7018L73.8457 62.9728C73.7874 63.3486 73.8589 63.7332 74.0486 64.0629C74.2382 64.3927 74.5347 64.6478 74.889 64.7864L98.0223 73.7159C98.1309 73.7581 98.2437 73.7884 98.3588 73.8063C98.5263 73.8334 98.697 73.8347 98.8649 73.8101L113.813 71.5946C114.166 71.5436 114.492 71.3802 114.745 71.1288C114.997 70.8774 115.162 70.5514 115.214 70.199L118.218 50.4097Z" fill="white"/>
<path id="Vector_39" d="M75.4131 63.4287L98.5463 72.3577C98.5801 72.3711 98.6167 72.3754 98.6527 72.3702L113.599 70.155C113.643 70.1489 113.684 70.1286 113.716 70.097C113.748 70.0655 113.768 70.0244 113.774 69.9802L116.78 50.1906C116.787 50.1423 116.777 50.0931 116.751 50.0515C116.726 50.0098 116.687 49.9783 116.641 49.9623L116.487 49.9102L93.7448 42.3389C93.7344 42.3352 93.7237 42.3326 93.7128 42.3312C93.6951 42.3279 93.6772 42.327 93.6593 42.3284L79.663 43.6528L78.5523 43.757C78.5067 43.7619 78.464 43.7815 78.4306 43.8129C78.3972 43.8443 78.375 43.8858 78.3674 43.931L75.2829 63.2012C75.2754 63.2483 75.2842 63.2965 75.3079 63.3379C75.3315 63.3793 75.3687 63.4113 75.4131 63.4287Z" fill="#6C63FF"/>
<path id="Vector_40" d="M79.6631 43.6528L93.6594 42.3284C93.6773 42.327 93.6953 42.3279 93.7129 42.3312C93.7238 42.3326 93.7345 42.3352 93.7449 42.3389L116.487 49.9102L110.488 50.5452L108.243 50.7817L101.855 51.4567C101.836 51.4576 101.817 51.4574 101.799 51.456C101.787 51.4526 101.776 51.4491 101.762 51.4455L79.6631 43.6528Z" fill="#2F2E41"/>
<path id="Vector_41" d="M74.8884 64.7877L98.0216 73.7168C98.1305 73.7587 98.2437 73.7883 98.3591 73.8051C98.5266 73.8328 98.6974 73.8349 98.8656 73.8114L113.812 71.5962C114.164 71.5449 114.491 71.3813 114.744 71.1298C114.996 70.8782 115.161 70.5521 115.214 70.1995L118.217 50.4098C118.262 50.118 118.228 49.8197 118.12 49.5451C118.105 49.5086 118.09 49.4721 118.072 49.4377C117.953 49.187 117.772 48.971 117.545 48.8102C117.409 48.7124 117.259 48.6358 117.1 48.583L117.073 48.5734L94.2064 40.9575C94.113 40.9277 94.0175 40.9045 93.9209 40.8881C93.7887 40.8694 93.6548 40.8668 93.522 40.8804L87.7845 41.4212L84.4921 41.7352L78.415 42.309C78.1663 42.3322 77.9262 42.4116 77.7127 42.5411C77.6962 42.5491 77.6805 42.5585 77.6657 42.5693C77.6551 42.5762 77.645 42.5838 77.6354 42.5921C77.449 42.7194 77.2904 42.8832 77.1693 43.0738C77.0483 43.2643 76.9673 43.4775 76.9313 43.7003L73.8442 62.9726C73.7859 63.3488 73.8576 63.7336 74.0474 64.0636C74.2372 64.3936 74.5338 64.649 74.8884 64.7877ZM77.3408 43.7675C77.3783 43.5365 77.4808 43.321 77.6363 43.146C77.6833 43.0898 77.736 43.0384 77.7934 42.9928C77.9504 42.8659 78.136 42.7793 78.334 42.7406C78.3731 42.7326 78.4127 42.727 78.4525 42.7239L88.6848 41.7573L93.562 41.2932C93.5951 41.2893 93.6254 41.2899 93.6559 41.2881C93.7298 41.2866 93.8036 41.2921 93.8764 41.3045C93.9434 41.3132 94.0092 41.3289 94.0729 41.3513L116.966 48.9768C116.984 48.9832 117 48.9894 117.018 48.9958C117.226 49.0733 117.409 49.2063 117.547 49.3805C117.656 49.5139 117.735 49.6687 117.78 49.8349C117.825 50.0011 117.834 50.1749 117.808 50.3449L114.802 70.1367C114.762 70.4007 114.639 70.645 114.45 70.8335C114.261 71.0221 114.017 71.145 113.753 71.184L98.8045 73.399C98.5907 73.4296 98.3725 73.4048 98.1711 73.3268L75.0376 64.4C74.7724 64.2955 74.5506 64.104 74.4086 63.8569C74.2667 63.6098 74.2129 63.3217 74.2561 63.04L77.3408 43.7675Z" fill="#3F3D56"/>
<path id="Vector_42" d="M77.5856 42.6972C77.5978 42.6621 77.6194 42.6311 77.648 42.6073C77.6574 42.5998 77.6675 42.5929 77.678 42.5868C77.6877 42.5831 77.6976 42.577 77.7073 42.5733C77.7537 42.5546 77.8054 42.5537 77.8524 42.5708L78.334 42.7406L101.857 51.0386L107.362 50.4569L110.443 50.132L116.964 49.4417L117.547 49.3805L117.66 49.368C117.709 49.3635 117.758 49.3763 117.798 49.4041C117.839 49.4318 117.868 49.4728 117.882 49.52C117.885 49.5309 117.887 49.5421 117.888 49.5533C117.893 49.5981 117.883 49.6433 117.86 49.6819C117.837 49.7206 117.802 49.7508 117.76 49.7678C117.741 49.7754 117.722 49.7807 117.702 49.7833L116.909 49.8665L110.488 50.5452L108.243 50.7817L101.855 51.4567C101.836 51.4576 101.817 51.4574 101.798 51.456C101.787 51.4526 101.776 51.4492 101.762 51.4455L77.7934 42.9928L77.712 42.964C77.6934 42.9579 77.6761 42.9483 77.661 42.9357C77.6247 42.9091 77.5978 42.8717 77.5843 42.8288C77.5707 42.7859 77.5712 42.7398 77.5856 42.6972Z" fill="#3F3D56"/>
<path id="Vector_43" d="M98.4221 73.8657C98.368 73.857 98.3195 73.8273 98.2871 73.7831C98.2548 73.7388 98.2412 73.6836 98.2494 73.6294L101.627 51.2187C101.635 51.1642 101.664 51.1151 101.709 51.0824C101.753 51.0496 101.809 51.0359 101.863 51.0441L101.865 51.0444C101.919 51.053 101.968 51.0827 102 51.127C102.032 51.1712 102.046 51.2265 102.038 51.2807L98.6606 73.6914C98.6523 73.7459 98.6228 73.7949 98.5784 73.8277C98.5341 73.8604 98.4785 73.8742 98.424 73.866L98.4221 73.8657Z" fill="#3F3D56"/>
<path id="Vector_44" d="M106.982 72.4442L104.736 72.6812L107.364 50.4564C107.364 50.4564 110.363 49.9133 110.444 50.1311C110.493 50.2611 107.004 72.3016 106.982 72.4442Z" fill="#3F3D56"/>
<path id="Vector_45" d="M77.7128 42.9636L77.6523 53.0988L95.5946 59.9355L102.038 51.2806L77.7128 42.9636Z" fill="#3F3D56"/>
<path id="Vector_46" d="M117.548 49.3808C117.398 49.1923 117.196 49.0519 116.967 48.9768L94.0739 41.3516C94.0097 41.33 93.9437 41.3139 93.8767 41.3035C93.8036 41.291 93.7296 41.2854 93.6555 41.287L93.6926 41.055L93.9218 40.889L99.3581 36.9531L117.513 42.5171L117.545 48.8102L117.548 49.3808Z" fill="#3F3D56"/>
<path id="Vector_47" d="M78.627 59.2342C78.6528 59.2367 78.6782 59.2421 78.7028 59.2501L85.7269 61.5571C85.8149 61.586 85.8877 61.6486 85.9295 61.7312C85.9713 61.8138 85.9786 61.9096 85.9497 61.9976C85.9208 62.0855 85.8582 62.1584 85.7756 62.2001C85.693 62.2419 85.5972 62.2492 85.5093 62.2203L78.4852 59.9133C78.4036 59.8865 78.3348 59.8306 78.2919 59.7563C78.249 59.6819 78.2349 59.5944 78.2525 59.5104C78.27 59.4263 78.3179 59.3517 78.387 59.3008C78.4561 59.2498 78.5415 59.2261 78.627 59.2342Z" fill="white"/>
<path id="Vector_48" d="M106.967 101.751C108.509 101.751 109.759 100.501 109.759 98.9596C109.759 97.4178 108.509 96.168 106.967 96.168C105.426 96.168 104.176 97.4178 104.176 98.9596C104.176 100.501 105.426 101.751 106.967 101.751Z" fill="#F2F2F2"/>
<path id="Vector_49" d="M35.7809 111.987C37.3227 111.987 38.5725 110.737 38.5725 109.196C38.5725 107.654 37.3227 106.404 35.7809 106.404C34.2391 106.404 32.9893 107.654 32.9893 109.196C32.9893 110.737 34.2391 111.987 35.7809 111.987Z" fill="#F2F2F2"/>
<path id="Vector_50" d="M93.9398 19.6309C95.4816 19.6309 96.7314 18.381 96.7314 16.8392C96.7314 15.2975 95.4816 14.0476 93.9398 14.0476C92.398 14.0476 91.1482 15.2975 91.1482 16.8392C91.1482 18.381 92.398 19.6309 93.9398 19.6309Z" fill="#F2F2F2"/>
<path id="Vector_51" d="M98.5202 63.3399C98.1584 63.497 97.7665 63.573 97.3722 63.5624C96.9778 63.5517 96.5906 63.4547 96.2378 63.2782C95.885 63.1018 95.5751 62.8501 95.3301 62.5409C95.0851 62.2317 94.9108 61.8726 94.8196 61.4887L85.2788 60.5248L88.4264 56.6616L97.004 58.1692C97.6589 58.0588 98.3316 58.1924 98.8946 58.5447C99.4576 58.8971 99.8718 59.4437 100.059 60.0811C100.246 60.7184 100.192 61.4022 99.9087 62.0028C99.6251 62.6034 99.1311 63.0791 98.5202 63.3399Z" fill="#C08787"/>
<path id="Vector_52" d="M92.6518 61.8071L70.3867 59.7557L70.3561 59.7206L54.1064 41.1012C53.037 39.4628 52.6343 37.4776 52.9809 35.552C53.3274 33.6265 54.397 31.9062 55.9705 30.7435C56.8412 30.1018 57.8379 29.6518 58.895 29.423C59.9521 29.1943 61.0457 29.192 62.1037 29.4164C63.1618 29.6407 64.1603 30.0866 65.0336 30.7247C65.9069 31.3628 66.6351 32.1786 67.1704 33.1185L77.179 50.6928L92.8971 57.0081L92.6518 61.8071Z" fill="#E6E6E6"/>
<path id="Vector_53" d="M148.536 26.0008C147.983 21.945 147.29 17.5906 144.429 14.6628C143.522 13.7339 142.435 12.9983 141.236 12.5005C140.036 12.0028 138.748 11.7531 137.449 11.7665C136.151 11.7799 134.868 12.0562 133.679 12.5787C132.49 13.1012 131.419 13.8591 130.531 14.8067C128.449 17.0281 127.529 20.1472 127.445 23.1908C127.361 26.2344 128.039 29.2442 128.79 32.1946C132.77 32.2741 136.72 31.4966 140.372 29.9149C141.286 29.5185 142.184 29.0703 143.149 28.8247C144.114 28.5791 144.802 29.1971 145.7 29.6281L146.192 28.6847C146.596 29.4353 147.845 29.2128 148.298 28.491C148.751 27.7693 148.651 26.845 148.536 26.0008Z" fill="#2F2E41"/>
<path id="Vector_54" d="M132.762 48.6381L116.506 48.9857C116.257 48.5542 115.887 48.2045 115.442 47.9793C114.998 47.754 114.497 47.6629 114.002 47.7169C113.506 47.771 113.037 47.9679 112.651 48.2837C112.265 48.5996 111.98 49.0207 111.829 49.4959C111.678 49.9711 111.669 50.4799 111.802 50.9603C111.935 51.4407 112.205 51.872 112.579 52.2018C112.953 52.5317 113.414 52.7457 113.908 52.818C114.401 52.8902 114.905 52.8175 115.357 52.6088C117.513 52.7313 134.38 55.1253 135.387 53.5825C136.408 52.0166 141.86 46.4903 141.86 46.4903L137.669 40.5247L132.762 48.6381Z" fill="#9E616A"/>
<path id="Vector_55" d="M136.723 30.0133C140.941 30.0133 144.361 26.5939 144.361 22.3758C144.361 18.1578 140.941 14.7384 136.723 14.7384C132.505 14.7384 129.086 18.1578 129.086 22.3758C129.086 26.5939 132.505 30.0133 136.723 30.0133Z" fill="#9E616A"/>
<path id="Vector_56" d="M148.956 37.071C148.056 35.2798 147.618 33.0669 145.7 32.4862C144.404 32.0941 139.163 32.6817 137.982 33.3437C136.018 34.4448 137.798 36.508 136.639 38.4389C135.38 40.5379 131.956 44.7502 130.696 46.8492C129.83 48.2922 132.747 52.5277 132.279 54.1442C131.811 55.7606 131.788 57.5749 132.586 59.0568C133.3 60.3831 132.267 61.5565 132.985 62.8806C133.732 64.2577 134.648 69.4067 133.953 70.8107L133.488 72.2065C138.105 72.4777 141.987 66.9619 146.575 66.3808C147.715 66.2365 148.898 66.048 149.838 65.3865C151.221 64.4121 151.768 62.6439 152.11 60.9867C153.754 52.8862 152.644 44.4682 148.956 37.071Z" fill="#3F3D56"/>
<path id="Vector_57" d="M155.878 55.9849C155.235 54.2295 154.071 46.5546 154.071 46.5546L146.783 46.3409L150.346 55.128L140.624 68.7379C140.624 68.7379 140.642 68.7678 140.675 68.8211C140.164 68.7391 139.64 68.8133 139.172 69.034C138.703 69.2547 138.313 69.6116 138.05 70.058C137.788 70.5044 137.667 71.0196 137.703 71.5361C137.738 72.0525 137.929 72.5462 138.249 72.9526C138.57 73.359 139.006 73.659 139.5 73.8136C139.994 73.9681 140.523 73.9699 141.019 73.8187C141.514 73.6675 141.952 73.3704 142.275 72.9662C142.599 72.562 142.792 72.0696 142.831 71.5534C142.867 71.5739 142.909 71.5813 142.95 71.5743C142.99 71.5673 143.027 71.5464 143.054 71.5151C144.136 70.1576 156.521 57.7403 155.878 55.9849Z" fill="#9E616A"/>
<path id="Vector_58" d="M156.619 51.1378C155.95 48.3148 155.276 45.4765 154.149 42.8035C153.021 40.1305 151.407 37.6057 149.136 35.7999C148.41 35.2225 147.599 34.713 146.689 34.5335C145.779 34.3539 144.753 34.5548 144.114 35.227C143.091 36.3026 143.399 38.0291 143.774 39.4651C144.88 43.6992 145.986 47.9333 147.092 52.1673C150.286 51.8288 153.48 51.4902 156.674 51.1516L156.619 51.1378Z" fill="#3F3D56"/>
<path id="Vector_59" d="M146.081 23.4352C145.8 21.5876 145.506 19.7246 144.846 17.9849C144.185 16.2452 143.12 14.6157 141.592 13.6302C139.173 12.0699 136.041 12.3708 133.329 13.2684C131.231 13.9625 129.184 15.0175 127.704 16.7135C126.225 18.4096 125.394 20.8297 125.945 23.0474C128.838 22.3639 131.731 21.6803 134.624 20.9968L134.307 21.2206C135.257 21.6943 136.087 22.3781 136.733 23.2203C137.379 24.0625 137.825 25.0408 138.037 26.081C138.244 27.1338 138.214 28.2194 137.95 29.2594C137.686 30.2993 137.194 31.2676 136.509 32.094C138.482 31.3941 140.456 30.6941 142.429 29.9942C143.647 29.5622 144.95 29.0644 145.672 27.9562C146.51 26.6714 146.315 24.9685 146.081 23.4352Z" fill="#2F2E41"/>
</g>
<defs>
<clipPath id="clip0_657_15480">
<rect width="200.695" height="150" fill="white" transform="translate(0.652344 0.5)"/>
</clipPath>
</defs>
</svg>
