<svg width="183" height="46" viewBox="0 0 183 46" fill="none" xmlns="http://www.w3.org/2000/svg">
<path d="M17.7433 12.8608C19.863 12.8608 21.7292 13.1948 23.342 13.863C24.9779 14.5081 26.3948 15.4643 27.5929 16.7315L24.7244 20.5676C23.7337 19.5308 22.6624 18.759 21.5104 18.2521C20.3814 17.7222 19.0912 17.4572 17.6396 17.4572C16.7872 17.4572 16.096 17.5494 15.566 17.7337C15.0361 17.918 14.656 18.1715 14.4256 18.494C14.1952 18.8166 14.08 19.1852 14.08 19.6C14.08 20.0838 14.2988 20.4985 14.7366 20.8441C15.1974 21.1667 15.9347 21.4432 16.9484 21.6736L20.7846 22.5376C23.0656 23.0675 24.736 23.8393 25.7958 24.8531C26.8556 25.8668 27.3856 27.2147 27.3856 28.8966C27.3856 30.5094 26.9708 31.8803 26.1414 33.0092C25.312 34.1152 24.1715 34.9561 22.72 35.5321C21.2684 36.0851 19.6096 36.3616 17.7433 36.3616C16.2227 36.3616 14.7712 36.2003 13.3888 35.8777C12.0064 35.5321 10.7622 35.0483 9.65628 34.4262C8.55036 33.8041 7.61724 33.0899 6.85692 32.2835L9.7254 28.3091C10.3014 28.9772 11.0041 29.5763 11.8336 30.1062C12.686 30.6131 13.6076 31.0163 14.5984 31.3158C15.6121 31.6153 16.6374 31.7651 17.6742 31.7651C18.4806 31.7651 19.1488 31.6844 19.6787 31.5232C20.2316 31.3619 20.6348 31.12 20.8883 30.7974C21.1417 30.4748 21.2684 30.0947 21.2684 29.6569C21.2684 29.1731 21.0956 28.7699 20.75 28.4473C20.4044 28.1017 19.7478 27.8137 18.7801 27.5833L14.5638 26.6502C13.2736 26.3507 12.1216 25.959 11.1078 25.4752C10.1171 24.9683 9.33372 24.3001 8.75772 23.4707C8.18172 22.6182 7.89372 21.5584 7.89372 20.2912C7.89372 18.8627 8.2854 17.5955 9.06876 16.4896C9.85212 15.3606 10.9811 14.4736 12.4556 13.8284C13.9302 13.1833 15.6928 12.8608 17.7433 12.8608ZM37.9102 13.2409V29.8643C37.9102 30.6937 38.106 31.2928 38.4977 31.6614C38.9124 32.007 39.4769 32.1798 40.1911 32.1798C40.7441 32.1798 41.2164 32.1222 41.6081 32.007C42.0228 31.8688 42.3914 31.6729 42.714 31.4195L43.3361 35.0483C42.7601 35.463 42.0343 35.7856 41.1588 36.016C40.2833 36.2464 39.3847 36.3616 38.4631 36.3616C37.1498 36.3616 36.0094 36.1772 35.0417 35.8086C34.097 35.44 33.3598 34.8524 32.8298 34.046C32.323 33.2396 32.058 32.1683 32.035 30.832V14.8652L37.9102 13.2409ZM43.0596 18.736V22.9177H29.0628V18.736H43.0596ZM51.614 36.3616C50.439 36.3616 49.4022 36.1657 48.5036 35.774C47.6281 35.3593 46.9369 34.7027 46.43 33.8041C45.9231 32.9056 45.6697 31.7305 45.6697 30.279V18.736H51.5449V28.8966C51.5449 30.0025 51.7638 30.7744 52.2015 31.2121C52.6393 31.6499 53.2614 31.8688 54.0678 31.8688C54.4825 31.8688 54.8742 31.7996 55.2428 31.6614C55.6114 31.5001 55.934 31.2697 56.2105 30.9702C56.487 30.6476 56.6943 30.2444 56.8326 29.7606C56.9938 29.2537 57.0745 28.6662 57.0745 27.998V18.736H62.9497V36.016H57.6966L57.5238 32.7673C56.9708 33.9884 56.199 34.8985 55.2082 35.4976C54.2175 36.0736 53.0194 36.3616 51.614 36.3616ZM73.5299 36.3616C72.1014 36.3616 70.8457 36.016 69.7629 35.3248C68.703 34.6105 67.8736 33.5852 67.2745 32.2489C66.6985 30.9126 66.4105 29.3113 66.4105 27.4451C66.4105 25.5097 66.7101 23.8739 67.3091 22.5376C67.9312 21.2012 68.7837 20.176 69.8665 19.4617C70.9725 18.7475 72.2397 18.3904 73.6681 18.3904C75.2349 18.3904 76.4905 18.8742 77.4352 19.8419C78.4029 20.7865 79.0249 21.9961 79.3014 23.4707L78.7485 24.1964V11.4092H84.6237V36.016H79.3705L78.9904 30.1408L79.6816 30.6592C79.5433 31.8112 79.1862 32.8134 78.6102 33.6659C78.0573 34.5184 77.343 35.1865 76.4675 35.6704C75.615 36.1312 74.6358 36.3616 73.5299 36.3616ZM75.5689 32.0416C76.2371 32.0416 76.8016 31.8688 77.2624 31.5232C77.7462 31.1545 78.1149 30.6131 78.3683 29.8988C78.6217 29.1846 78.7485 28.3091 78.7485 27.2723C78.7485 26.3046 78.6217 25.4867 78.3683 24.8185C78.1379 24.1273 77.7808 23.6089 77.2969 23.2633C76.8361 22.8947 76.2717 22.7104 75.6035 22.7104C74.5897 22.7104 73.7833 23.0905 73.1843 23.8508C72.6083 24.5881 72.3203 25.7632 72.3203 27.376C72.3203 28.9888 72.6083 30.1753 73.1843 30.9356C73.7603 31.6729 74.5552 32.0416 75.5689 32.0416ZM106.222 18.736L99.9321 36.016C99.287 37.8361 98.5843 39.2876 97.824 40.3705C97.0637 41.4534 96.1651 42.2368 95.1283 42.7206C94.0915 43.2044 92.8473 43.4464 91.3958 43.4464C90.4281 43.4464 89.5411 43.3427 88.7347 43.1353C87.9283 42.928 87.2256 42.64 86.6265 42.2713L87.8016 38.2969C88.2163 38.5964 88.654 38.8038 89.1148 38.919C89.5756 39.0572 90.1632 39.1264 90.8774 39.1264C91.5456 39.1264 92.087 39.0112 92.5017 38.7808C92.9395 38.5504 93.2851 38.1126 93.5385 37.4675L93.9878 36.3961L91.9833 31.696L86.7993 18.736H93.262L95.9232 28.5856L96.7526 32.2489L97.7203 28.4473L100.381 18.736H106.222ZM115.266 36.3616C113.538 36.3616 111.925 36.0851 110.428 35.5321C108.953 34.9561 107.732 34.1382 106.764 33.0784L109.529 29.8297C110.105 30.567 110.865 31.1891 111.81 31.696C112.778 32.1798 113.849 32.4217 115.024 32.4217C115.738 32.4217 116.326 32.318 116.787 32.1107C117.247 31.9033 117.478 31.5808 117.478 31.143C117.478 30.8204 117.363 30.567 117.132 30.3827C116.902 30.1753 116.441 30.0025 115.75 29.8643L113.331 29.3804C111.165 28.9427 109.621 28.2976 108.7 27.4451C107.801 26.5696 107.352 25.4291 107.352 24.0236C107.352 23.079 107.64 22.1804 108.216 21.328C108.792 20.4524 109.679 19.7497 110.877 19.2198C112.075 18.6668 113.607 18.3904 115.473 18.3904C117.224 18.3904 118.768 18.6438 120.104 19.1507C121.441 19.6576 122.501 20.3948 123.284 21.3625L120.485 24.542C119.932 23.8508 119.217 23.3094 118.342 22.9177C117.466 22.526 116.591 22.3302 115.715 22.3302C115.162 22.3302 114.69 22.3878 114.298 22.503C113.93 22.5952 113.653 22.7334 113.469 22.9177C113.285 23.102 113.192 23.3324 113.192 23.6089C113.192 23.9084 113.331 24.1734 113.607 24.4038C113.907 24.6112 114.448 24.7955 115.231 24.9568L118.376 25.5788C120.15 25.9014 121.429 26.4889 122.213 27.3414C122.996 28.1939 123.388 29.2192 123.388 30.4172C123.388 31.5462 123.088 32.56 122.489 33.4585C121.89 34.3571 120.991 35.0713 119.793 35.6012C118.595 36.1081 117.086 36.3616 115.266 36.3616ZM133.693 36.3616C131.965 36.3616 130.353 36.0851 128.855 35.5321C127.381 34.9561 126.159 34.1382 125.192 33.0784L127.957 29.8297C128.533 30.567 129.293 31.1891 130.237 31.696C131.205 32.1798 132.277 32.4217 133.452 32.4217C134.166 32.4217 134.753 32.318 135.214 32.1107C135.675 31.9033 135.905 31.5808 135.905 31.143C135.905 30.8204 135.79 30.567 135.56 30.3827C135.329 30.1753 134.869 30.0025 134.177 29.8643L131.758 29.3804C129.592 28.9427 128.049 28.2976 127.127 27.4451C126.229 26.5696 125.779 25.4291 125.779 24.0236C125.779 23.079 126.067 22.1804 126.643 21.328C127.219 20.4524 128.106 19.7497 129.304 19.2198C130.502 18.6668 132.035 18.3904 133.901 18.3904C135.652 18.3904 137.196 18.6438 138.532 19.1507C139.868 19.6576 140.928 20.3948 141.711 21.3625L138.912 24.542C138.359 23.8508 137.645 23.3094 136.769 22.9177C135.894 22.526 135.018 22.3302 134.143 22.3302C133.59 22.3302 133.117 22.3878 132.726 22.503C132.357 22.5952 132.081 22.7334 131.896 22.9177C131.712 23.102 131.62 23.3324 131.62 23.6089C131.62 23.9084 131.758 24.1734 132.035 24.4038C132.334 24.6112 132.876 24.7955 133.659 24.9568L136.804 25.5788C138.578 25.9014 139.857 26.4889 140.64 27.3414C141.423 28.1939 141.815 29.2192 141.815 30.4172C141.815 31.5462 141.516 32.56 140.917 33.4585C140.317 34.3571 139.419 35.0713 138.221 35.6012C137.023 36.1081 135.514 36.3616 133.693 36.3616ZM153.195 36.3616C151.282 36.3616 149.624 36.0044 148.218 35.2902C146.836 34.576 145.764 33.5507 145.004 32.2144C144.244 30.878 143.864 29.2652 143.864 27.376C143.864 25.4867 144.244 23.8739 145.004 22.5376C145.764 21.2012 146.824 20.176 148.184 19.4617C149.566 18.7475 151.144 18.3904 152.918 18.3904C154.738 18.3904 156.282 18.7475 157.549 19.4617C158.84 20.1529 159.819 21.1206 160.487 22.3648C161.155 23.5859 161.489 24.9913 161.489 26.5811C161.489 26.9958 161.478 27.4105 161.455 27.8252C161.432 28.24 161.397 28.5856 161.351 28.862H147.665V25.7171H158.759L155.96 26.7884C155.96 25.406 155.706 24.3462 155.199 23.6089C154.715 22.8716 153.955 22.503 152.918 22.503C152.181 22.503 151.547 22.6758 151.017 23.0214C150.511 23.367 150.119 23.9084 149.842 24.6457C149.589 25.383 149.462 26.3276 149.462 27.4796C149.462 28.6086 149.612 29.5302 149.912 30.2444C150.211 30.9356 150.637 31.4425 151.19 31.7651C151.743 32.0646 152.411 32.2144 153.195 32.2144C154.07 32.2144 154.761 32.0416 155.268 31.696C155.798 31.3504 156.19 30.8665 156.443 30.2444L161.144 31.7996C160.821 32.7904 160.257 33.6313 159.45 34.3225C158.667 34.9907 157.722 35.4976 156.616 35.8432C155.533 36.1888 154.393 36.3616 153.195 36.3616ZM181.552 18.736L175.262 36.016C174.617 37.8361 173.914 39.2876 173.154 40.3705C172.394 41.4534 171.495 42.2368 170.458 42.7206C169.421 43.2044 168.177 43.4464 166.726 43.4464C165.758 43.4464 164.871 43.3427 164.065 43.1353C163.258 42.928 162.556 42.64 161.957 42.2713L163.132 38.2969C163.546 38.5964 163.984 38.8038 164.445 38.919C164.906 39.0572 165.493 39.1264 166.207 39.1264C166.876 39.1264 167.417 39.0112 167.832 38.7808C168.269 38.5504 168.615 38.1126 168.869 37.4675L169.318 36.3961L167.313 31.696L162.129 18.736H168.592L171.253 28.5856L172.083 32.2489L173.05 28.4473L175.711 18.736H181.552Z" fill="white"/>
<path d="M27.1136 4.83174C26.2561 4.60095 18.1806 2.90083 14.25 2.07962C10.1611 3.97771 1.90095 7.82135 1.57228 8.01121C1.16144 8.24854 1.21275 8.46105 1.29106 8.67052C1.35371 8.8381 1.87573 9.00482 2.12891 9.06724L4.70763 9.62244C3.9987 10.903 3.92945 12.6663 3.98345 13.3879C3.41698 13.9429 3.21342 14.3206 3.34944 15.042C3.45826 15.6191 4.01591 15.9401 4.28113 16.0285C4.31582 19.49 2.3045 21.2994 2.26872 21.4672C2.24009 21.6014 2.51919 21.7482 2.66232 21.8049C3.38067 22.1605 4.0045 22.3084 4.22663 22.338L4.65872 22.2893C6.93832 21.3556 6.26288 17.5151 5.64021 15.7115C5.64021 15.7115 6.07771 15.2256 6.04667 14.4651C6.02184 13.8566 5.49915 13.4899 5.24091 13.3825C5.22167 13.2119 5.24039 12.5531 5.46916 11.283C5.69793 10.0129 7.11083 9.10594 7.78869 8.81123C9.44811 7.92378 12.9949 6.03588 13.9066 5.58382C14.8184 5.13176 15.1109 5.42987 15.1432 5.63544C15.3675 5.84663 15.4929 6.40917 14.1996 6.96973C12.9063 7.5303 9.49613 9.40098 7.95272 10.2662L15.3827 11.8845L26.2669 6.78272C26.9498 6.53292 28.3101 5.93569 28.288 5.54525C28.2603 5.0572 28.1854 5.12022 27.1136 4.83174Z" fill="white"/>
<path d="M15.5406 13.2856L6.84106 11.5649C6.66389 11.9342 6.73458 12.723 6.79207 13.0712C7.31767 13.3667 7.90368 13.9556 7.98874 14.71C8.05678 15.3136 7.79854 16.0958 7.66091 16.4115C8.02629 16.7414 9.25863 17.241 9.82913 17.4496C10.6598 17.7016 13.0604 18.1168 16.0179 17.7615C19.7147 17.3175 21.862 16.2295 23.0044 15.4459C23.9183 14.8189 24.2478 13.9413 24.2983 13.5809L23.8366 9.48526L15.5406 13.2856Z" fill="white"/>
</svg>
