<svg width="202" height="150" viewBox="0 0 202 150" fill="none" xmlns="http://www.w3.org/2000/svg">
<g id="undraw_empty_re_opql 1" clip-path="url(#clip0_649_14252)">
<path id="Vector" d="M147.199 142.523H143.206L141.305 127.12H147.199V142.523Z" fill="#9E616A"/>
<path id="Vector_2" d="M149.307 149.441H146.443L145.932 146.738L144.623 149.441H137.028C136.663 149.441 136.309 149.325 136.016 149.109C135.722 148.894 135.506 148.59 135.397 148.242C135.289 147.895 135.295 147.521 135.413 147.177C135.532 146.833 135.758 146.536 136.057 146.329L142.123 142.14V139.407L148.502 139.788L149.307 149.441Z" fill="#2F2E41"/>
<path id="Vector_3" d="M170.923 137.483L167.719 139.866L157.003 128.64L161.732 125.123L170.923 137.483Z" fill="#9E616A"/>
<path id="Vector_4" d="M176.743 141.778L174.445 143.486L172.422 141.622L172.985 144.573L166.89 149.105C166.598 149.322 166.244 149.44 165.88 149.442C165.515 149.444 165.16 149.329 164.866 149.115C164.572 148.901 164.353 148.598 164.243 148.251C164.133 147.904 164.137 147.531 164.254 147.186L166.622 140.205L164.991 138.012L170.337 134.511L176.743 141.778Z" fill="#2F2E41"/>
<path id="Vector_5" d="M151.848 63.0537C151.848 63.0537 159.425 69.5996 155.929 88.2602L151.661 106.545L165.58 129.635L161.142 135.034L143.048 110.041L136.491 94.6608L134.651 67.2867L151.848 63.0537Z" fill="#2F2E41"/>
<path id="Vector_6" d="M140.105 99.0435L139.649 106.101L141.044 136.176L147.606 135.034L148.86 113.62L140.105 99.0435Z" fill="#2F2E41"/>
<path id="Vector_7" d="M55.8905 146.144L59.4617 146.144L61.1604 132.37L55.89 132.37L55.8905 146.144Z" fill="#C08787"/>
<path id="Vector_8" d="M54.9795 144.978L55.9846 144.978L59.9089 143.382L62.0122 144.978H62.0125C63.2011 144.978 64.3411 145.45 65.1816 146.291C66.022 147.131 66.4943 148.271 66.4943 149.46V149.605L54.9797 149.606L54.9795 144.978Z" fill="#2F2E41"/>
<path id="Vector_9" d="M69.7291 143.894L73.2124 144.68L77.9037 131.618L72.7627 130.458L69.7291 143.894Z" fill="#C08787"/>
<path id="Vector_10" d="M69.0973 142.556L70.0777 142.777L74.2572 142.085L75.9573 144.105L75.9576 144.105C77.117 144.366 78.1249 145.078 78.7596 146.083C79.3943 147.088 79.6039 148.304 79.3421 149.463L79.31 149.606L68.0781 147.07L69.0973 142.556Z" fill="#2F2E41"/>
<path id="Vector_11" d="M51.3674 61.936C49.6931 66.9857 49.8702 72.467 51.7699 78.3499L52.582 111.472C52.582 111.472 51.372 133.193 55.2763 140.836H60.9387L63.7422 109.488L64.0942 88.4475L76.2337 106.199L68.5017 140.324L75.4707 140.947L88.0177 103.913L72.5373 67.9846L51.3674 61.936Z" fill="#2F2E41"/>
<path id="Vector_12" d="M116.667 47.5525C120.998 43.6496 127.44 41.6872 132.844 43.8757C127.301 46.9531 123.025 51.8921 120.773 57.8186C119.913 60.1074 119.194 62.7426 117.078 63.968C115.762 64.7305 114.124 64.7677 112.647 64.3997C111.171 64.0315 109.818 63.2937 108.483 62.5632L108.104 62.5546C109.808 56.9793 112.336 51.4553 116.667 47.5525Z" fill="#E6E6E6"/>
<path id="Vector_13" d="M132.814 43.9943C128.028 44.6128 123.558 46.7235 120.04 50.0267C119.27 50.7243 118.615 51.539 118.099 52.4406C117.624 53.3352 117.398 54.3406 117.444 55.3522C117.467 56.2963 117.6 57.2593 117.394 58.1927C117.281 58.6689 117.069 59.1159 116.771 59.5043C116.473 59.8927 116.097 60.2139 115.666 60.4466C114.609 61.0545 113.396 61.2461 112.203 61.3923C110.879 61.5546 109.501 61.7022 108.355 62.4449C108.216 62.5349 108.085 62.3142 108.223 62.2243C110.218 60.9321 112.741 61.4023 114.885 60.5399C115.886 60.1375 116.771 59.4311 117.085 58.3631C117.359 57.4292 117.222 56.436 117.19 55.4802C117.132 54.494 117.315 53.5084 117.725 52.6095C118.194 51.6844 118.817 50.8459 119.567 50.1297C121.229 48.4906 123.14 47.1231 125.227 46.0773C127.603 44.8705 130.168 44.0791 132.811 43.7373C132.975 43.7162 132.976 43.9733 132.814 43.9943Z" fill="white"/>
<path id="Vector_14" d="M121.111 48.8963C120.636 48.2309 120.414 47.4185 120.484 46.6044C120.554 45.7903 120.91 45.0275 121.49 44.4521C121.608 44.3361 121.794 44.5136 121.676 44.6298C121.135 45.1646 120.803 45.8753 120.739 46.6335C120.676 47.3917 120.886 48.1476 121.331 48.7646C121.428 48.8988 121.207 49.0298 121.111 48.8963Z" fill="white"/>
<path id="Vector_15" d="M117.369 54.875C119.013 55.1663 120.707 54.8271 122.113 53.925C122.252 53.8355 122.384 54.0562 122.245 54.1456C120.78 55.0817 119.016 55.4311 117.306 55.1241C117.143 55.0947 117.206 54.8458 117.369 54.875Z" fill="white"/>
<path id="Vector_16" d="M127.624 45.2103C127.754 45.506 127.955 45.7649 128.21 45.9636C128.464 46.1623 128.764 46.2948 129.083 46.3489C129.246 46.3762 129.182 46.6252 129.02 46.5981C128.668 46.5366 128.337 46.39 128.055 46.171C127.774 45.9521 127.55 45.6674 127.404 45.3421C127.387 45.3125 127.383 45.2779 127.391 45.2452C127.399 45.2124 127.42 45.1841 127.448 45.1659C127.477 45.1486 127.512 45.1435 127.545 45.1519C127.578 45.1602 127.607 45.1812 127.624 45.2103Z" fill="white"/>
<path id="Vector_17" d="M138.794 62.6969C138.692 62.6827 138.589 62.6686 138.485 62.656C137.107 62.473 135.715 62.4024 134.325 62.4447C134.218 62.4463 134.109 62.4495 134.001 62.4541C130.654 62.5918 127.36 63.3499 124.289 64.6898C123.067 65.2241 121.888 65.8506 120.762 66.5638C119.206 67.5488 117.597 68.7407 115.858 69.1424C115.677 69.1864 115.494 69.2191 115.308 69.2403L108.123 63.0184C108.113 62.9961 108.103 62.9753 108.093 62.9529L107.795 62.7176C107.851 62.6767 107.909 62.6356 107.965 62.5947C107.997 62.5709 108.031 62.5485 108.063 62.5247C108.085 62.5092 108.107 62.4938 108.125 62.4786C108.133 62.4735 108.14 62.4684 108.146 62.4648C108.165 62.4496 108.184 62.4375 108.201 62.424C108.528 62.193 108.856 61.9639 109.187 61.7366C109.188 61.735 109.188 61.735 109.191 61.7347C111.694 59.9792 114.396 58.5268 117.241 57.4079C117.326 57.3756 117.413 57.3417 117.501 57.3123C118.782 56.8359 120.1 56.4651 121.442 56.2034C122.177 56.0625 122.919 55.9589 123.664 55.893C125.591 55.7264 127.532 55.8639 129.416 56.3005C133.171 57.1713 136.606 59.2335 138.641 62.4496C138.693 62.5319 138.744 62.6129 138.794 62.6969Z" fill="#E6E6E6"/>
<path id="Vector_18" d="M138.699 62.7741C134.505 60.3865 129.666 59.381 124.868 59.9003C123.834 59.9938 122.82 60.2498 121.865 60.6589C120.947 61.0875 120.161 61.7539 119.589 62.589C119.039 63.3569 118.565 64.206 117.839 64.8269C117.462 65.1392 117.023 65.3684 116.552 65.4993C116.08 65.6302 115.586 65.66 115.103 65.5867C113.892 65.4353 112.808 64.8581 111.768 64.2568C110.613 63.5891 109.424 62.8774 108.062 62.7803C107.897 62.7685 107.925 62.5131 108.089 62.5248C110.46 62.6937 112.191 64.5885 114.423 65.1909C115.464 65.472 116.596 65.441 117.489 64.777C118.27 64.1963 118.759 63.3211 119.309 62.5387C119.856 61.7159 120.596 61.0395 121.465 60.5686C122.396 60.1122 123.398 59.8175 124.428 59.6973C126.743 59.3897 129.091 59.4479 131.388 59.8699C134.011 60.3369 136.536 61.2492 138.852 62.5675C138.995 62.6492 138.841 62.8553 138.699 62.7741Z" fill="white"/>
<path id="Vector_19" d="M126.403 59.6422C126.426 58.8254 126.737 58.0431 127.283 57.435C127.829 56.8269 128.573 56.4325 129.382 56.3224C129.546 56.3006 129.588 56.5543 129.424 56.576C128.669 56.6772 127.976 57.0447 127.469 57.612C126.962 58.1793 126.675 58.9092 126.659 59.6699C126.655 59.8352 126.4 59.8066 126.403 59.6422Z" fill="white"/>
<path id="Vector_20" d="M119.816 62.1628C120.954 63.3857 122.511 64.1348 124.176 64.2607C124.341 64.2731 124.313 64.5285 124.149 64.5162C122.416 64.3819 120.797 63.599 119.616 62.3239C119.504 62.2023 119.704 62.0419 119.816 62.1628Z" fill="white"/>
<path id="Vector_21" d="M133.823 60.6209C133.749 60.9352 133.754 61.263 133.837 61.5749C133.921 61.8868 134.081 62.1731 134.302 62.4081C134.416 62.5282 134.215 62.6885 134.102 62.5691C133.858 62.3084 133.682 61.9921 133.589 61.6476C133.496 61.3032 133.489 60.9412 133.568 60.5933C133.573 60.5599 133.59 60.5295 133.616 60.5083C133.642 60.4872 133.676 60.4768 133.709 60.4794C133.743 60.4832 133.774 60.5002 133.795 60.5267C133.817 60.5533 133.827 60.5871 133.823 60.6209Z" fill="white"/>
<path id="Vector_22" d="M12.5802 145.894C12.2429 147.16 11.3565 148.213 10.2864 148.981C10.1119 149.107 9.93279 149.223 9.75134 149.332C9.69551 149.365 9.63967 149.4 9.58151 149.43C9.5187 149.467 9.45589 149.502 9.39308 149.535H4.36118C4.27045 149.351 4.18205 149.165 4.09365 148.981C1.93712 144.449 0.422661 139.559 0.680886 134.579C0.783333 132.647 1.18921 130.743 1.88361 128.937C3.26546 125.338 5.78723 122.223 9.25582 120.655C9.3419 120.616 9.43263 120.576 9.52103 120.539C9.49311 120.639 9.4652 120.737 9.43728 120.837C9.06516 122.177 8.8022 123.546 8.65097 124.929C8.63701 125.036 8.62538 125.143 8.61608 125.252C8.28558 128.588 8.57905 131.955 9.48148 135.183C9.48381 135.19 9.48612 135.2 9.48846 135.207C9.68621 135.921 9.91574 136.624 10.1771 137.317C10.3818 137.863 10.6028 138.403 10.8447 138.934C11.8544 141.16 13.2083 143.533 12.5802 145.894Z" fill="#E6E6E6"/>
<path id="Vector_23" d="M9.58392 120.644C9.53507 120.709 9.4862 120.772 9.43736 120.837C8.41558 122.191 7.54792 123.655 6.85045 125.201C6.81323 125.278 6.77834 125.354 6.74809 125.434C5.79242 127.593 5.17867 129.888 4.92888 132.236C4.92618 132.252 4.92463 132.268 4.92423 132.285C4.86607 132.834 4.83118 133.387 4.81722 133.941C4.76549 134.979 4.87776 136.018 5.14989 137.021C5.39802 137.84 5.83282 138.59 6.42008 139.213C6.47824 139.275 6.5364 139.338 6.59921 139.399C6.64573 139.447 6.69691 139.496 6.74576 139.543C7.21569 139.992 7.72981 140.408 8.17182 140.89C8.37441 141.106 8.55737 141.339 8.71852 141.588C8.9757 142.004 9.14183 142.47 9.20598 142.955C9.27014 143.44 9.23086 143.934 9.09073 144.403C8.77435 145.58 8.05085 146.573 7.31107 147.52C6.94118 147.994 6.55966 148.474 6.22931 148.981C6.10836 149.162 5.99668 149.346 5.89434 149.535H5.60121C5.69892 149.346 5.80593 149.162 5.92225 148.981C6.77137 147.643 7.97875 146.494 8.60454 145.021C9.02793 144.028 9.15588 142.902 8.62082 141.927C8.46401 141.644 8.27426 141.38 8.05552 141.141C7.62979 140.66 7.12032 140.248 6.65738 139.813C6.54106 139.703 6.42707 139.592 6.31773 139.475C5.73805 138.886 5.29073 138.181 5.00567 137.405C4.68284 136.42 4.53021 135.387 4.55435 134.35C4.55435 133.69 4.58925 133.024 4.65439 132.364C4.66137 132.28 4.67067 132.194 4.67998 132.108C5.15573 127.95 6.73572 123.996 9.25592 120.655C9.30244 120.59 9.3513 120.527 9.40015 120.464C9.50017 120.334 9.68395 120.516 9.58392 120.644Z" fill="white"/>
<path id="Vector_24" d="M4.77371 132.386C3.96793 132.25 3.2365 131.833 2.71003 131.208C2.18357 130.583 1.89636 129.792 1.89969 128.975C1.90013 128.941 1.91349 128.909 1.93695 128.886C1.96041 128.862 1.99214 128.848 2.02545 128.848C2.05877 128.847 2.09106 128.859 2.11553 128.882C2.14 128.904 2.15474 128.936 2.15664 128.969C2.15214 129.73 2.41975 130.467 2.91118 131.048C3.40262 131.629 4.08549 132.015 4.83657 132.136C4.99976 132.163 4.93596 132.412 4.77371 132.386Z" fill="white"/>
<path id="Vector_25" d="M6.35552 139.259C7.72449 138.303 8.6825 136.865 9.03854 135.233C9.07368 135.071 9.32278 135.134 9.28769 135.296C8.91403 136.993 7.91402 138.487 6.48725 139.48C6.35119 139.575 6.2202 139.353 6.35552 139.259Z" fill="white"/>
<path id="Vector_26" d="M6.77333 125.174C7.07419 125.291 7.39948 125.332 7.71999 125.292C8.0405 125.253 8.3462 125.134 8.60962 124.948C8.74441 124.851 8.87526 125.073 8.74135 125.168C8.44934 125.373 8.11157 125.504 7.75755 125.548C7.40353 125.592 7.04404 125.549 6.71046 125.423C6.67802 125.413 6.65034 125.392 6.63303 125.363C6.61573 125.334 6.61011 125.3 6.61732 125.267C6.62581 125.234 6.64696 125.206 6.67617 125.188C6.70538 125.171 6.7403 125.165 6.77333 125.174Z" fill="white"/>
<path id="Vector_27" d="M27.0362 129.64C26.9548 129.702 26.871 129.765 26.7896 129.83C25.6851 130.676 24.6511 131.609 23.6979 132.622C23.6234 132.699 23.549 132.778 23.4768 132.857L23.4745 132.859C21.2142 135.313 19.427 138.163 18.203 141.267L18.196 141.288C18.1937 141.295 18.1914 141.299 18.1891 141.306C17.7039 142.548 17.3127 143.825 17.0189 145.126C16.7351 146.396 16.5024 147.757 16.0581 148.981C15.9906 149.169 15.9162 149.355 15.8371 149.535H5.49414C5.52904 149.351 5.56626 149.165 5.60348 148.981C6.12962 146.285 6.95193 143.656 8.05545 141.141C8.09268 141.057 8.1299 140.974 8.17177 140.89C8.74145 139.647 9.41133 138.453 10.1748 137.319L10.1749 137.318L10.1754 137.317L10.1762 137.317L10.1771 137.317C10.5963 136.698 11.0466 136.101 11.5264 135.528C12.7706 134.047 14.2402 132.772 15.8813 131.75C15.8906 131.743 15.9022 131.738 15.9115 131.731C19.1777 129.705 23.0488 128.739 26.75 129.574H26.7524C26.8477 129.595 26.9408 129.616 27.0362 129.64Z" fill="#E6E6E6"/>
<path id="Vector_28" d="M27.0246 129.763C26.9455 129.784 26.8664 129.807 26.7896 129.831C25.1592 130.297 23.5855 130.942 22.0973 131.755C22.0229 131.794 21.9484 131.836 21.874 131.878C19.8174 133.026 17.9506 134.485 16.3396 136.203C16.3383 136.204 16.3375 136.205 16.3373 136.207C16.3187 136.226 16.2977 136.247 16.2815 136.265C15.9092 136.666 15.551 137.082 15.2113 137.51C14.5469 138.308 14.0116 139.205 13.6248 140.169C13.3291 140.972 13.2248 141.833 13.32 142.684C13.327 142.77 13.3386 142.854 13.3502 142.94C13.3596 143.007 13.3689 143.075 13.3805 143.144C13.534 144.077 13.7992 145.012 13.7248 145.964C13.6795 146.452 13.5315 146.924 13.2905 147.35C13.0495 147.776 12.721 148.147 12.3267 148.437C12.0586 148.644 11.772 148.826 11.4706 148.981C11.0396 149.203 10.5905 149.389 10.1282 149.535H9.21399C9.33729 149.5 9.45826 149.465 9.58155 149.43C10.0191 149.307 10.4487 149.157 10.868 148.981C11.1076 148.881 11.3407 148.766 11.5659 148.637C12.5011 148.1 13.2805 147.276 13.4433 146.176C13.5852 145.213 13.3107 144.249 13.1479 143.307C13.1199 143.144 13.0943 142.984 13.0804 142.823C12.9693 142.008 13.0368 141.177 13.2781 140.39C13.6129 139.408 14.1133 138.491 14.7577 137.677C15.1563 137.148 15.5818 136.64 16.0325 136.154C16.0884 136.091 16.1465 136.028 16.207 135.965C17.8519 134.235 19.7511 132.766 21.8391 131.608H21.8414C23.394 130.744 25.0411 130.061 26.75 129.575H26.7524C26.8291 129.552 26.9082 129.528 26.985 129.507C27.1455 129.465 27.1827 129.719 27.0246 129.763Z" fill="white"/>
<path id="Vector_29" d="M16.1148 136.242C15.5529 135.649 15.2202 134.875 15.1761 134.059C15.1319 133.243 15.3792 132.438 15.8738 131.788C15.9743 131.657 16.183 131.807 16.0823 131.938C15.6207 132.543 15.3904 133.293 15.433 134.053C15.4757 134.812 15.7885 135.532 16.315 136.081C16.4293 136.2 16.2284 136.361 16.1148 136.242Z" fill="white"/>
<path id="Vector_30" d="M13.2395 142.682C14.9087 142.742 16.5392 142.171 17.8059 141.083C17.9314 140.975 18.0923 141.175 17.967 141.283C16.6467 142.413 14.9487 143.004 13.2118 142.938C13.0463 142.931 13.0748 142.676 13.2395 142.682Z" fill="white"/>
<path id="Vector_31" d="M22.0537 131.687C22.2233 131.962 22.4585 132.191 22.7381 132.352C23.0178 132.513 23.3332 132.603 23.656 132.612C23.8215 132.617 23.7928 132.872 23.6283 132.868C23.2717 132.856 22.9235 132.757 22.6142 132.579C22.3048 132.401 22.0436 132.15 21.8535 131.848C21.8332 131.821 21.8239 131.788 21.8276 131.754C21.8312 131.721 21.8475 131.69 21.8731 131.668C21.8997 131.647 21.9336 131.637 21.9674 131.64C22.0012 131.644 22.0322 131.661 22.0537 131.687Z" fill="white"/>
<path id="Vector_32" d="M106.823 40.276C106.584 40.59 106.279 40.8479 105.93 41.0314C105.581 41.215 105.196 41.3197 104.802 41.3383C104.408 41.3569 104.014 41.2889 103.649 41.139C103.285 40.9891 102.957 40.761 102.69 40.4708L93.896 44.2954L94.7526 39.3864L102.972 36.5071C103.489 36.0905 104.141 35.8781 104.805 35.9101C105.468 35.9422 106.097 36.2165 106.571 36.6811C107.046 37.1456 107.334 37.7682 107.38 38.4307C107.427 39.0933 107.228 39.7498 106.823 40.276Z" fill="#C08787"/>
<path id="Vector_33" d="M100.955 41.8087L80.5299 50.9067L80.4861 50.891L57.2069 42.5955C55.4729 41.6893 54.151 40.1545 53.5117 38.3054C52.8724 36.4563 52.9642 34.4327 53.7682 32.649C54.2139 31.6635 54.8632 30.7836 55.6734 30.0672C56.4837 29.3507 57.4365 28.814 58.4691 28.4923C59.5018 28.1707 60.5908 28.0713 61.6646 28.2009C62.7384 28.3305 63.7726 28.686 64.6991 29.2441L82.0231 39.6799L98.822 37.5027L100.955 41.8087Z" fill="#E6E6E6"/>
<path id="Vector_34" d="M201.347 149.723C201.348 149.76 201.34 149.796 201.327 149.829C201.313 149.863 201.292 149.893 201.267 149.919C201.241 149.945 201.21 149.965 201.177 149.979C201.143 149.993 201.107 150 201.071 150H0.936745C0.863324 150 0.792912 149.971 0.740995 149.919C0.689078 149.867 0.659912 149.797 0.659912 149.723C0.659912 149.65 0.689078 149.579 0.740995 149.527C0.792912 149.475 0.863324 149.446 0.936745 149.446H201.071C201.107 149.446 201.143 149.453 201.177 149.467C201.21 149.481 201.241 149.501 201.267 149.527C201.292 149.553 201.313 149.583 201.327 149.617C201.34 149.651 201.348 149.687 201.347 149.723Z" fill="#CCCCCC"/>
<path id="Vector_35" d="M73.5469 69.0452L52.9573 65.7519C52.4173 65.5789 51.9211 65.2912 51.5028 64.9084C51.0845 64.5256 50.754 64.0568 50.534 63.5342C50.314 63.0116 50.2097 62.4475 50.2282 61.8808C50.2467 61.3141 50.3876 60.7581 50.6413 60.251L51.575 58.3833L51.2123 38.7613C51.1686 36.2089 51.7978 33.6901 53.0367 31.4581C54.2756 29.2262 56.0804 27.3598 58.2697 26.0469L60.2775 24.8464L61.2922 22.2695L70.6488 22.4977L70.6761 25.8773L74.0269 31.2206L74.0268 31.2427L73.8166 60.3253L72.8931 63.3266L74.2895 66.8175L73.5469 69.0452Z" fill="#E6E6E6"/>
<path id="Vector_36" d="M66.8276 19.0652C71.5229 19.0652 75.3291 15.2589 75.3291 10.5637C75.3291 5.86849 71.5229 2.06226 66.8276 2.06226C62.1324 2.06226 58.3262 5.86849 58.3262 10.5637C58.3262 15.2589 62.1324 19.0652 66.8276 19.0652Z" fill="#C08787"/>
<path id="Vector_37" d="M57.9748 12.4175C57.7213 11.3493 57.8377 9.84609 57.981 8.7705C58.3567 5.95066 59.9227 3.2699 62.3018 1.68199C62.7529 1.33936 63.289 1.12633 63.8522 1.06587C64.415 1.04237 65.0251 1.34367 65.1979 1.87985C65.3397 1.52597 65.5525 1.2049 65.8232 0.936467C66.0939 0.668029 66.4168 0.457918 66.7718 0.319104C67.4851 0.0458406 68.2522 -0.0575012 69.0123 0.0172704C70.4856 0.138715 71.8986 0.656776 73.1013 1.51647C74.3039 2.37617 75.2514 3.54543 75.8432 4.90016C76.0702 5.4396 76.7045 3.44707 76.9922 3.95676C77.2566 4.48655 77.7178 4.89182 78.2772 5.08584C78.841 5.24314 79.07 7.56581 79.2918 7.02421C79.4639 7.42447 79.532 7.86178 79.4896 8.29541C79.4472 8.72905 79.2958 9.1449 79.0494 9.50425C78.803 9.8636 78.4697 10.1548 78.0805 10.3506C77.6912 10.5464 77.2588 10.6406 76.8234 10.6243C76.2496 10.6028 75.701 10.3918 75.134 10.3009C73.1066 9.97608 70.9559 11.4462 70.5225 13.4533C70.3673 12.8729 70.1194 12.3213 69.7883 11.8199C69.6203 11.5706 69.3951 11.3649 69.1316 11.2201C68.868 11.0753 68.5737 10.9956 68.2731 10.9874C67.6963 11.009 67.1893 11.3861 66.815 11.8256C66.4407 12.2651 66.1596 12.7778 65.7826 13.2149C64.6763 14.4974 63.18 17.4883 61.6034 17.2702C60.3592 17.098 58.3211 13.876 57.9748 12.4175Z" fill="#2F2E41"/>
<path id="Vector_38" d="M118.218 49.9097C118.277 49.5221 118.198 49.126 117.993 48.7915C117.788 48.4571 117.472 48.2059 117.1 48.0826L94.2052 40.4575C93.9857 40.3841 93.7533 40.3574 93.5229 40.3792L87.7845 40.9218L84.4918 41.2342L78.4157 41.8084C78.0488 41.8435 77.704 41.9993 77.4352 42.2515C77.1665 42.5037 76.989 42.8379 76.9307 43.2018L73.8456 62.4728C73.7872 62.8486 73.8588 63.2332 74.0485 63.5629C74.2381 63.8927 74.5346 64.1478 74.8888 64.2864L98.0222 73.2159C98.1308 73.2581 98.2436 73.2884 98.3587 73.3063C98.5262 73.3334 98.6969 73.3347 98.8648 73.3101L113.813 71.0946C114.165 71.0436 114.492 70.8802 114.745 70.6288C114.997 70.3774 115.162 70.0514 115.214 69.699L118.218 49.9097Z" fill="white"/>
<path id="Vector_39" d="M75.4131 62.9285L98.5463 71.8576C98.5801 71.871 98.6167 71.8753 98.6527 71.8701L113.599 69.6549C113.643 69.6488 113.684 69.6285 113.716 69.5969C113.748 69.5654 113.768 69.5243 113.774 69.48L116.78 49.6905C116.787 49.6422 116.777 49.593 116.751 49.5513C116.726 49.5097 116.687 49.4782 116.641 49.4622L116.487 49.4101L93.7448 41.8388C93.7344 41.8351 93.7237 41.8325 93.7128 41.831C93.6951 41.8278 93.6772 41.8269 93.6593 41.8283L79.663 43.1527L78.5523 43.2569C78.5067 43.2618 78.464 43.2814 78.4306 43.3128C78.3972 43.3442 78.375 43.3857 78.3674 43.4309L75.2829 62.7011C75.2754 62.7482 75.2842 62.7964 75.3079 62.8378C75.3315 62.8792 75.3687 62.9112 75.4131 62.9285Z" fill="#6C63FF"/>
<path id="Vector_40" d="M79.663 43.1527L93.6593 41.8283C93.6772 41.8269 93.6952 41.8278 93.7128 41.831C93.7237 41.8325 93.7344 41.8351 93.7448 41.8388L116.487 49.4101L110.488 50.0451L108.243 50.2816L101.854 50.9565C101.836 50.9575 101.817 50.9572 101.798 50.9559C101.787 50.9524 101.776 50.949 101.762 50.9454L79.663 43.1527Z" fill="#2F2E41"/>
<path id="Vector_41" d="M74.8884 64.2877L98.0216 73.2168C98.1305 73.2587 98.2437 73.2883 98.3591 73.3051C98.5266 73.3328 98.6974 73.3349 98.8656 73.3114L113.812 71.0962C114.164 71.0449 114.491 70.8813 114.744 70.6298C114.996 70.3782 115.161 70.0521 115.214 69.6995L118.217 49.9098C118.262 49.618 118.228 49.3197 118.12 49.0451C118.105 49.0086 118.09 48.9721 118.072 48.9377C117.953 48.687 117.772 48.471 117.545 48.3102C117.409 48.2124 117.259 48.1358 117.1 48.083L117.073 48.0734L94.2064 40.4575C94.113 40.4277 94.0175 40.4045 93.9209 40.3881C93.7887 40.3694 93.6548 40.3668 93.522 40.3804L87.7845 40.9212L84.4921 41.2352L78.415 41.809C78.1663 41.8322 77.9262 41.9116 77.7127 42.0411C77.6962 42.0491 77.6805 42.0585 77.6657 42.0693C77.6551 42.0762 77.645 42.0838 77.6354 42.0921C77.449 42.2194 77.2904 42.3832 77.1693 42.5738C77.0483 42.7643 76.9673 42.9775 76.9313 43.2003L73.8442 62.4726C73.7859 62.8488 73.8576 63.2336 74.0474 63.5636C74.2372 63.8936 74.5338 64.149 74.8884 64.2877ZM77.3408 43.2675C77.3783 43.0365 77.4808 42.821 77.6363 42.646C77.6833 42.5898 77.736 42.5384 77.7934 42.4928C77.9504 42.3659 78.136 42.2793 78.334 42.2406C78.3731 42.2326 78.4127 42.227 78.4525 42.2239L88.6848 41.2573L93.562 40.7932C93.5951 40.7893 93.6254 40.7899 93.6559 40.7881C93.7298 40.7866 93.8036 40.7921 93.8764 40.8045C93.9434 40.8132 94.0092 40.8289 94.0729 40.8513L116.966 48.4768C116.984 48.4832 117 48.4894 117.018 48.4958C117.226 48.5733 117.409 48.7063 117.547 48.8805C117.656 49.0139 117.735 49.1687 117.78 49.3349C117.825 49.5011 117.834 49.6749 117.808 49.8449L114.802 69.6367C114.762 69.9007 114.639 70.145 114.45 70.3335C114.261 70.5221 114.017 70.645 113.753 70.684L98.8045 72.899C98.5907 72.9296 98.3725 72.9048 98.1711 72.8268L75.0376 63.9C74.7724 63.7955 74.5506 63.604 74.4086 63.3569C74.2667 63.1098 74.2129 62.8217 74.2561 62.54L77.3408 43.2675Z" fill="#3F3D56"/>
<path id="Vector_42" d="M77.5856 42.1972C77.5978 42.1621 77.6194 42.1311 77.648 42.1073C77.6574 42.0998 77.6675 42.0929 77.678 42.0868C77.6877 42.0831 77.6976 42.077 77.7073 42.0733C77.7537 42.0546 77.8054 42.0537 77.8524 42.0708L78.334 42.2406L101.857 50.5386L107.362 49.9569L110.443 49.632L116.964 48.9417L117.547 48.8805L117.66 48.868C117.709 48.8635 117.758 48.8763 117.798 48.9041C117.839 48.9318 117.868 48.9728 117.882 49.02C117.885 49.0309 117.887 49.0421 117.888 49.0533C117.893 49.0981 117.883 49.1433 117.86 49.1819C117.837 49.2206 117.802 49.2508 117.76 49.2678C117.741 49.2754 117.722 49.2807 117.702 49.2833L116.909 49.3665L110.488 50.0452L108.243 50.2817L101.855 50.9567C101.836 50.9576 101.817 50.9574 101.798 50.956C101.787 50.9526 101.776 50.9492 101.762 50.9455L77.7934 42.4928L77.712 42.464C77.6934 42.4579 77.6761 42.4483 77.661 42.4357C77.6247 42.4091 77.5978 42.3717 77.5843 42.3288C77.5707 42.2859 77.5712 42.2398 77.5856 42.1972Z" fill="#3F3D56"/>
<path id="Vector_43" d="M98.4221 73.3657C98.368 73.357 98.3195 73.3273 98.2871 73.2831C98.2548 73.2388 98.2412 73.1836 98.2494 73.1294L101.627 50.7187C101.635 50.6642 101.664 50.6151 101.709 50.5824C101.753 50.5496 101.809 50.5359 101.863 50.5441L101.865 50.5444C101.919 50.553 101.968 50.5827 102 50.627C102.032 50.6712 102.046 50.7265 102.038 50.7807L98.6606 73.1914C98.6523 73.2459 98.6228 73.2949 98.5784 73.3277C98.5341 73.3604 98.4785 73.3742 98.424 73.366L98.4221 73.3657Z" fill="#3F3D56"/>
<path id="Vector_44" d="M106.982 71.9442L104.736 72.1812L107.364 49.9564C107.364 49.9564 110.363 49.4133 110.444 49.6311C110.493 49.7611 107.004 71.8016 106.982 71.9442Z" fill="#3F3D56"/>
<path id="Vector_45" d="M77.7127 42.4636L77.6522 52.5988L95.5945 59.4355L102.038 50.7806L77.7127 42.4636Z" fill="#3F3D56"/>
<path id="Vector_46" d="M117.548 48.8808C117.398 48.6923 117.196 48.5519 116.967 48.4768L94.0739 40.8516C94.0097 40.83 93.9437 40.8139 93.8767 40.8035C93.8036 40.791 93.7296 40.7854 93.6555 40.787L93.6926 40.555L93.9218 40.389L99.3581 36.4531L117.513 42.0171L117.545 48.3102L117.548 48.8808Z" fill="#3F3D56"/>
<path id="Vector_47" d="M78.627 58.7342C78.6528 58.7367 78.6782 58.7421 78.7028 58.7501L85.7269 61.0571C85.8149 61.086 85.8877 61.1486 85.9295 61.2312C85.9713 61.3138 85.9786 61.4096 85.9497 61.4976C85.9208 61.5855 85.8582 61.6584 85.7756 61.7001C85.693 61.7419 85.5972 61.7492 85.5093 61.7203L78.4852 59.4133C78.4036 59.3865 78.3348 59.3306 78.2919 59.2563C78.249 59.1819 78.2349 59.0944 78.2525 59.0104C78.27 58.9263 78.3179 58.8517 78.387 58.8008C78.4561 58.7498 78.5415 58.7261 78.627 58.7342Z" fill="white"/>
<path id="Vector_48" d="M106.967 101.251C108.509 101.251 109.759 100.001 109.759 98.4596C109.759 96.9178 108.509 95.668 106.967 95.668C105.426 95.668 104.176 96.9178 104.176 98.4596C104.176 100.001 105.426 101.251 106.967 101.251Z" fill="#F2F2F2"/>
<path id="Vector_49" d="M35.7809 111.487C37.3227 111.487 38.5725 110.237 38.5725 108.695C38.5725 107.154 37.3227 105.904 35.7809 105.904C34.2391 105.904 32.9893 107.154 32.9893 108.695C32.9893 110.237 34.2391 111.487 35.7809 111.487Z" fill="#F2F2F2"/>
<path id="Vector_50" d="M93.9398 19.1309C95.4816 19.1309 96.7314 17.881 96.7314 16.3392C96.7314 14.7975 95.4816 13.5476 93.9398 13.5476C92.398 13.5476 91.1482 14.7975 91.1482 16.3392C91.1482 17.881 92.398 19.1309 93.9398 19.1309Z" fill="#F2F2F2"/>
<path id="Vector_51" d="M98.5202 62.8399C98.1584 62.997 97.7665 63.073 97.3722 63.0624C96.9778 63.0517 96.5906 62.9547 96.2378 62.7782C95.885 62.6018 95.5751 62.3501 95.3301 62.0409C95.0851 61.7317 94.9108 61.3726 94.8196 60.9887L85.2788 60.0248L88.4264 56.1616L97.004 57.6692C97.6589 57.5588 98.3316 57.6924 98.8946 58.0447C99.4576 58.3971 99.8718 58.9437 100.059 59.5811C100.246 60.2184 100.192 60.9022 99.9087 61.5028C99.6251 62.1034 99.1311 62.5791 98.5202 62.8399Z" fill="#C08787"/>
<path id="Vector_52" d="M92.6518 61.3071L70.3867 59.2557L70.3561 59.2206L54.1064 40.6012C53.037 38.9628 52.6343 36.9776 52.9809 35.052C53.3274 33.1265 54.397 31.4062 55.9705 30.2435C56.8412 29.6018 57.8379 29.1518 58.895 28.923C59.9521 28.6943 61.0457 28.692 62.1037 28.9164C63.1618 29.1407 64.1603 29.5866 65.0336 30.2247C65.9069 30.8628 66.6351 31.6786 67.1704 32.6185L77.179 50.1928L92.8971 56.5081L92.6518 61.3071Z" fill="#E6E6E6"/>
<path id="Vector_53" d="M148.536 25.5009C147.983 21.4451 147.29 17.0907 144.429 14.1629C143.522 13.234 142.435 12.4984 141.236 12.0007C140.036 11.5029 138.748 11.2532 137.449 11.2666C136.151 11.2801 134.868 11.5564 133.679 12.0789C132.49 12.6014 131.419 13.3592 130.531 14.3068C128.449 16.5282 127.529 19.6473 127.445 22.6909C127.361 25.7345 128.039 28.7443 128.79 31.6947C132.77 31.7742 136.72 30.9967 140.372 29.4151C141.286 29.0186 142.184 28.5705 143.149 28.3249C144.114 28.0793 144.802 28.6973 145.7 29.1282L146.192 28.1848C146.596 28.9354 147.845 28.7129 148.298 27.9912C148.751 27.2694 148.651 26.3452 148.536 25.5009Z" fill="#2F2E41"/>
<path id="Vector_54" d="M132.762 48.1381L116.506 48.4857C116.257 48.0542 115.887 47.7045 115.442 47.4793C114.998 47.254 114.497 47.1629 114.002 47.2169C113.506 47.271 113.037 47.4679 112.651 47.7837C112.265 48.0996 111.98 48.5207 111.829 48.9959C111.678 49.4711 111.669 49.9799 111.802 50.4603C111.935 50.9407 112.205 51.372 112.579 51.7018C112.953 52.0317 113.414 52.2457 113.908 52.318C114.401 52.3902 114.905 52.3175 115.357 52.1088C117.513 52.2313 134.38 54.6253 135.387 53.0825C136.408 51.5166 141.86 45.9903 141.86 45.9903L137.669 40.0247L132.762 48.1381Z" fill="#9E616A"/>
<path id="Vector_55" d="M136.723 29.5134C140.941 29.5134 144.361 26.094 144.361 21.876C144.361 17.6579 140.941 14.2385 136.723 14.2385C132.505 14.2385 129.086 17.6579 129.086 21.876C129.086 26.094 132.505 29.5134 136.723 29.5134Z" fill="#9E616A"/>
<path id="Vector_56" d="M148.956 36.5712C148.056 34.7799 147.619 32.567 145.7 31.9863C144.404 31.5942 139.163 32.1818 137.983 32.8438C136.018 33.9449 137.798 36.0082 136.639 37.939C135.38 40.038 131.956 44.2503 130.696 46.3493C129.83 47.7923 132.747 52.0278 132.279 53.6443C131.811 55.2608 131.788 57.0751 132.586 58.5569C133.3 59.8833 132.267 61.0566 132.985 62.3807C133.732 63.7579 134.648 68.9068 133.953 70.3108L133.488 71.7066C138.105 71.9779 141.987 66.462 146.575 65.881C147.715 65.7367 148.899 65.5481 149.838 64.8866C151.221 63.9122 151.768 62.144 152.11 60.4868C153.755 52.3863 152.644 43.9684 148.956 36.5712Z" fill="#3F3D56"/>
<path id="Vector_57" d="M155.878 55.485C155.235 53.7296 154.071 46.0547 154.071 46.0547L146.784 45.8411L150.346 54.6282L140.624 68.238C140.624 68.238 140.642 68.2679 140.675 68.3212C140.164 68.2392 139.64 68.3134 139.172 68.5341C138.703 68.7548 138.313 69.1117 138.051 69.5581C137.788 70.0046 137.667 70.5197 137.703 71.0362C137.738 71.5526 137.929 72.0464 138.25 72.4527C138.57 72.8591 139.006 73.1592 139.5 73.3137C139.994 73.4682 140.524 73.47 141.019 73.3188C141.514 73.1676 141.952 72.8705 142.275 72.4663C142.599 72.0621 142.793 71.5697 142.832 71.0535C142.867 71.074 142.909 71.0814 142.95 71.0744C142.991 71.0675 143.027 71.0465 143.054 71.0152C144.136 69.6577 156.521 57.2404 155.878 55.485Z" fill="#9E616A"/>
<path id="Vector_58" d="M156.619 50.6379C155.95 47.8149 155.276 44.9766 154.149 42.3036C153.021 39.6306 151.407 37.1059 149.136 35.3C148.41 34.7227 147.599 34.2131 146.689 34.0336C145.779 33.8541 144.753 34.055 144.114 34.7271C143.091 35.8028 143.399 37.5293 143.774 38.9653C144.88 43.1993 145.986 47.4334 147.092 51.6674C150.286 51.3289 153.48 50.9903 156.674 50.6518L156.619 50.6379Z" fill="#3F3D56"/>
<path id="Vector_59" d="M146.081 22.9353C145.8 21.0877 145.506 19.2247 144.846 17.485C144.185 15.7453 143.12 14.1159 141.592 13.1303C139.173 11.57 136.041 11.871 133.329 12.7685C131.231 13.4626 129.184 14.5176 127.704 16.2137C126.225 17.9097 125.394 20.3299 125.945 22.5475C128.838 21.864 131.731 21.1805 134.624 20.4969L134.307 20.7207C135.257 21.1944 136.087 21.8783 136.733 22.7204C137.379 23.5626 137.825 24.5409 138.037 25.5811C138.244 26.6339 138.214 27.7196 137.95 28.7595C137.686 29.7995 137.194 30.7677 136.509 31.5942C138.482 30.8942 140.456 30.1943 142.429 29.4943C143.647 29.0623 144.95 28.5645 145.672 27.4563C146.51 26.1715 146.315 24.4686 146.081 22.9353Z" fill="#2F2E41"/>
</g>
<defs>
<clipPath id="clip0_649_14252">
<rect width="200.695" height="150" fill="white" transform="translate(0.652344)"/>
</clipPath>
</defs>
</svg>
