<svg width="305" height="291" viewBox="0 0 305 291" fill="none" xmlns="http://www.w3.org/2000/svg">
<path d="M180.265 22.0375H34.6256C25.1489 22.0375 17.4666 29.663 17.4666 39.0695V181.79C17.4666 191.196 25.1489 198.822 34.6256 198.822H180.265C189.742 198.822 197.424 191.196 197.424 181.79V39.0695C197.424 29.663 189.742 22.0375 180.265 22.0375Z" fill="#F2F2F2"/>
<path d="M65.2094 25.5401C53.4831 25.5401 42.2372 30.1638 33.9454 38.3942C25.6537 46.6245 20.9955 57.7872 20.9955 69.4267V181.79C20.9955 183.567 21.348 185.326 22.033 186.967C22.718 188.609 23.722 190.1 24.9877 191.357C26.2534 192.613 27.756 193.609 29.4097 194.289C31.0634 194.969 32.8358 195.319 34.6258 195.319H127.576C145.165 195.319 162.034 188.384 174.471 176.039C186.908 163.694 193.895 146.95 193.895 129.491V39.0695C193.895 35.4812 192.459 32.04 189.903 29.5028C187.347 26.9655 183.88 25.5401 180.265 25.5401H65.2094Z" fill="white"/>
<path d="M129.658 135.111H30.856C30.2909 135.111 29.7489 134.888 29.3493 134.492C28.9498 134.095 28.7253 133.557 28.7253 132.996C28.7253 132.435 28.9498 131.897 29.3493 131.501C29.7489 131.104 30.2909 130.881 30.856 130.881H129.658C130.223 130.881 130.765 131.104 131.165 131.501C131.564 131.897 131.789 132.435 131.789 132.996C131.789 133.557 131.564 134.095 131.165 134.492C130.765 134.888 130.223 135.111 129.658 135.111Z" fill="#F2F2F2"/>
<path d="M129.926 75.1766H1.89822C1.65723 75.1772 1.41853 75.1204 1.19577 75.0095C0.973011 74.8986 0.770568 74.7359 0.600019 74.5306C0.42947 74.3253 0.294175 74.0815 0.201858 73.8131C0.109541 73.5446 0.0620117 73.2569 0.0620117 72.9663C0.0620117 72.6757 0.109541 72.388 0.201858 72.1196C0.294175 71.8512 0.42947 71.6073 0.600019 71.402C0.770568 71.1967 0.973011 71.034 1.19577 70.9231C1.41853 70.8123 1.65723 70.7555 1.89822 70.756H129.926C130.412 70.757 130.877 70.9903 131.22 71.4047C131.563 71.8191 131.756 72.3808 131.756 72.9663C131.756 73.5519 131.563 74.1135 131.22 74.5279C130.877 74.9423 130.412 75.1756 129.926 75.1766Z" fill="#F2F2F2"/>
<path d="M129.925 90.2068H1.89324C1.40727 90.2077 0.941508 90.3943 0.598176 90.7258C0.254843 91.0574 0.0620117 91.5067 0.0620117 91.9751C0.0620117 92.4436 0.254843 92.8929 0.598176 93.2244C0.941508 93.5559 1.40727 93.7426 1.89324 93.7434H129.925C130.411 93.7426 130.877 93.5559 131.22 93.2244C131.563 92.8929 131.756 92.4436 131.756 91.9751C131.756 91.5067 131.563 91.0574 131.22 90.7258C130.877 90.3943 130.411 90.2077 129.925 90.2068Z" fill="#F2F2F2"/>
<path d="M129.923 113.194H1.89503C1.40889 113.194 0.942649 113.008 0.598891 112.676C0.255132 112.345 0.0620117 111.895 0.0620117 111.426C0.0620117 110.957 0.255132 110.507 0.598891 110.176C0.942649 109.844 1.40889 109.658 1.89503 109.658H129.923C130.409 109.658 130.875 109.844 131.219 110.176C131.563 110.507 131.756 110.957 131.756 111.426C131.756 111.895 131.563 112.345 131.219 112.676C130.875 113.008 130.409 113.194 129.923 113.194Z" fill="#F2F2F2"/>
<path d="M217.6 282.424L210.767 282.424L207.518 256.266L217.601 256.267L217.6 282.424Z" fill="#A0616A"/>
<path d="M217.84 289.499L196.83 289.498V289.234C196.83 287.082 197.692 285.017 199.225 283.495C200.759 281.973 202.839 281.118 205.008 281.117H205.008L208.846 278.228L216.006 281.118L217.84 281.118L217.84 289.499Z" fill="#2F2E41"/>
<path d="M286.343 282.424L279.511 282.424L276.261 256.266L286.345 256.267L286.343 282.424Z" fill="#A0616A"/>
<path d="M286.584 289.499L265.574 289.498V289.234C265.574 287.082 266.436 285.017 267.969 283.495C269.503 281.973 271.583 281.118 273.751 281.117H273.752L277.59 278.228L284.75 281.118L286.584 281.118L286.584 289.499Z" fill="#2F2E41"/>
<path d="M223.174 132.149C223.174 132.149 218.687 136.875 218.497 139.942C218.308 143.009 220.646 137.438 218.308 143.009C215.97 148.579 215.97 144.865 215.97 148.579C215.97 152.292 211.015 155.918 211.015 155.918L202.845 189.285L207.552 267.41H217.84C227.401 238.481 231.849 216.141 226.725 206.137L241.013 174.616C241.013 174.616 268.011 258.471 269.114 259.459C270.216 260.447 270.216 259.054 270.216 260.447C270.216 261.839 268.813 260.447 270.216 261.839L276.763 268.338L286.584 267.41C286.584 267.41 287.898 206.698 276.953 196.206C276.953 196.206 279.481 163.714 276.953 163.806C274.425 163.897 274.425 168.074 274.425 163.897C274.425 159.719 277.421 158.604 277.421 158.604L269.003 129.26L223.174 132.149Z" fill="#2F2E41"/>
<path d="M276.184 67.4679L266.676 106.985L268.921 121.683L271.616 139.292L262.3 138.694L247.883 137.764L221.116 136.044L218.774 58.0615L231.054 45.3245L233.248 39.1406L251.001 39.0324L255.249 46.4581L266.169 49.5404C267.573 50.4245 268.891 51.435 270.108 52.5591C272.803 55.0365 275.19 58.1825 276.306 61.405C276.643 62.3441 276.856 63.3223 276.941 64.3154L276.184 67.4679Z" fill="#6C63FF"/>
<path d="M193.547 167.732C194.263 167.34 194.884 166.798 195.367 166.144C195.851 165.49 196.185 164.739 196.348 163.944C196.511 163.149 196.497 162.328 196.309 161.539C196.121 160.749 195.762 160.01 195.257 159.372L208.799 134.9L202.901 129.518L187.031 158.7C186.012 159.623 185.369 160.885 185.224 162.247C185.08 163.608 185.444 164.976 186.247 166.089C187.05 167.202 188.237 167.985 189.583 168.288C190.928 168.59 192.339 168.393 193.547 167.732Z" fill="#E6E6E6"/>
<path d="M226.577 53.294L223.42 109.423L208.213 144.696L198.314 157.725L199.44 151.821L192.617 148.433L191.976 148.117L205.075 97.6605L206.281 78.0535C206.489 74.6793 207.401 71.3847 208.957 68.3781C210.514 65.3715 212.683 62.7183 215.325 60.5863L222.901 54.4776L226.577 53.294Z" fill="#E6E6E6"/>
<path d="M193.547 167.732C194.263 167.34 194.884 166.798 195.367 166.144C195.851 165.49 196.185 164.739 196.348 163.944C196.511 163.149 196.497 162.328 196.309 161.539C196.121 160.749 195.762 160.01 195.257 159.372L208.799 134.9L202.901 129.518L187.031 158.7C186.012 159.623 185.369 160.885 185.224 162.247C185.08 163.608 185.444 164.976 186.247 166.089C187.05 167.202 188.237 167.985 189.583 168.288C190.928 168.59 192.339 168.393 193.547 167.732Z" fill="#A0616A"/>
<path d="M226.577 53.294L223.42 109.423L208.213 144.696L198.314 157.725L199.44 151.821L192.617 148.433L191.976 148.117L205.075 97.6605L206.281 78.0535C206.489 74.6793 207.401 71.3847 208.957 68.3781C210.514 65.3715 212.683 62.7183 215.325 60.5863L222.901 54.4776L226.577 53.294Z" fill="#E6E6E6"/>
<path d="M241.234 55.2291H95.5949C86.1182 55.2291 78.4359 62.8546 78.4359 72.2611V146.838C78.4359 156.245 86.1182 163.87 95.5949 163.87H241.234C250.711 163.87 258.393 156.245 258.393 146.838V72.2611C258.393 62.8546 250.711 55.2291 241.234 55.2291Z" fill="white"/>
<path d="M241.235 164.507H95.5951C90.8758 164.502 86.3512 162.639 83.0141 159.326C79.6769 156.014 77.7998 151.523 77.7944 146.838V72.2611C77.7998 67.5766 79.6769 63.0856 83.0141 59.7731C86.3512 56.4607 90.8757 54.5975 95.5951 54.5922H241.235C245.954 54.5975 250.478 56.4608 253.815 59.7732C257.152 63.0857 259.03 67.5767 259.035 72.2611V146.838C259.03 151.523 257.152 156.014 253.815 159.326C250.478 162.639 245.954 164.502 241.235 164.507ZM95.5951 55.8659C91.2144 55.8659 87.0131 57.5932 83.9155 60.6679C80.8179 63.7426 79.0776 67.9128 79.0776 72.2611V100.136C79.0776 116.87 85.775 132.92 97.6963 144.753C109.618 156.586 125.786 163.233 142.646 163.233H241.235C245.615 163.233 249.816 161.506 252.914 158.431C256.012 155.357 257.752 151.187 257.752 146.839V72.2611C257.752 70.1081 257.324 67.9761 256.494 65.987C255.664 63.9978 254.448 62.1904 252.914 60.6679C251.38 59.1455 249.559 57.9378 247.555 57.1139C245.551 56.29 243.403 55.8659 241.234 55.8659L95.5951 55.8659Z" fill="#3F3D56"/>
<path d="M134.089 134.387H100.084C98.8439 134.387 97.8385 135.385 97.8385 136.616C97.8385 137.847 98.8439 138.845 100.084 138.845H134.089C135.329 138.845 136.335 137.847 136.335 136.616C136.335 135.385 135.329 134.387 134.089 134.387Z" fill="#6C63FF"/>
<path d="M236.745 128.337H213.006C211.766 128.337 210.761 129.335 210.761 130.566V142.666C210.761 143.897 211.766 144.895 213.006 144.895H236.745C237.986 144.895 238.991 143.897 238.991 142.666V130.566C238.991 129.335 237.986 128.337 236.745 128.337Z" fill="#FACF1E"/>
<path d="M109.387 97.131C115.766 97.131 120.936 91.9986 120.936 85.6676C120.936 79.3366 115.766 74.2043 109.387 74.2043C103.009 74.2043 97.8385 79.3366 97.8385 85.6676C97.8385 91.9986 103.009 97.131 109.387 97.131Z" fill="#6C63FF"/>
<path d="M241.477 35.7503C249.485 35.7503 255.978 29.306 255.978 21.3564C255.978 13.4068 249.485 6.96246 241.477 6.96246C233.468 6.96246 226.975 13.4068 226.975 21.3564C226.975 29.306 233.468 35.7503 241.477 35.7503Z" fill="#A0616A"/>
<path d="M253.373 28.7963C253.486 29.6562 251.919 29.7471 251.566 28.954C251.212 28.1608 251.671 27.2619 252.116 26.516L253.151 24.7846C253.345 24.4585 253.459 24.091 253.482 23.7126C253.504 23.3341 253.436 22.9558 253.281 22.6091C253.127 22.2624 252.891 21.9574 252.594 21.7194C252.296 21.4814 251.946 21.3175 251.572 21.2411C252.519 19.128 251.491 16.4906 249.605 15.1329C247.719 13.7751 244.913 16.3155 242.625 16.7511C240.337 17.1868 238.505 15.4486 236.42 16.4791L237.673 13.6119L230.737 16.578L232.348 13.3526C230.598 13.4472 229.853 15.5634 229.504 17.2687C229.132 19.0856 228.157 21.357 226.167 20.9805C225.695 20.8761 225.262 20.6414 224.919 20.3037C224.575 19.9659 224.335 19.5387 224.225 19.0712C222.688 13.186 227.152 6.75217 233.07 5.71997C233.703 3.98555 234.879 2.49788 236.425 1.47487C237.972 0.451866 239.808 -0.0527201 241.664 0.0350148C243.521 0.12275 245.3 0.798195 246.741 1.96242C248.183 3.12665 249.211 4.71848 249.675 6.50475L251.616 4.14667L251.994 7.48778C253.388 7.34067 254.706 8.31782 255.383 9.53637C256.061 10.7549 255.741 12.3282 256.391 13.5611C259.307 19.0871 258.342 25.3083 253.84 29.5464" fill="#2F2E41"/>
<path d="M157.674 279.492C157.973 279.506 158.268 279.428 158.52 279.27C158.772 279.111 158.969 278.88 159.085 278.606C159.2 278.333 159.227 278.031 159.164 277.741C159.101 277.452 158.949 277.189 158.73 276.987L158.63 276.594C158.643 276.562 158.656 276.531 158.67 276.499C158.97 275.795 159.473 275.194 160.117 274.773C160.76 274.352 161.514 274.128 162.285 274.131C163.055 274.134 163.808 274.363 164.448 274.789C165.088 275.215 165.587 275.819 165.882 276.526C167.062 279.346 168.564 282.171 168.933 285.153C169.096 286.471 169.028 287.807 168.73 289.101C171.501 283.102 172.94 276.582 172.949 269.983C172.95 268.326 172.857 266.672 172.671 265.026C172.518 263.677 172.305 262.337 172.033 261.007C170.548 253.791 167.36 247.027 162.73 241.271C160.489 240.058 158.677 238.191 157.537 235.924C157.125 235.109 156.833 234.239 156.671 233.341C156.924 233.374 157.624 229.552 157.434 229.318C157.786 228.787 158.416 228.524 158.801 228.006C160.715 225.431 163.351 225.88 164.727 229.38C167.667 230.852 167.696 233.295 165.892 235.644C164.744 237.139 164.586 239.161 163.579 240.761C163.683 240.893 163.791 241.02 163.894 241.152C165.788 243.569 167.439 246.165 168.822 248.902C168.486 245.836 168.888 242.734 169.994 239.852C171.116 237.166 173.218 234.904 175.07 232.583C175.559 231.959 176.224 231.493 176.98 231.245C177.737 230.996 178.55 230.975 179.318 231.185C180.086 231.396 180.774 231.827 181.295 232.425C181.816 233.023 182.147 233.762 182.245 234.546C182.249 234.58 182.253 234.615 182.256 234.649C181.981 234.803 181.712 234.966 181.449 235.139C181.118 235.359 180.862 235.672 180.713 236.039C180.565 236.405 180.532 236.808 180.618 237.193C180.704 237.579 180.905 237.93 181.196 238.2C181.486 238.47 181.852 238.646 182.245 238.707L182.285 238.713C182.187 239.697 182.014 240.672 181.767 241.629C184.142 250.746 179.015 254.067 171.693 254.216C171.532 254.298 171.374 254.381 171.213 254.459C172.603 258.369 173.475 262.443 173.807 266.577C173.995 269.016 173.984 271.465 173.774 273.903L173.786 273.816C174.317 271.106 175.773 268.661 177.909 266.893C181.082 264.306 185.565 263.353 188.989 261.274C189.352 261.042 189.776 260.918 190.208 260.917C190.64 260.916 191.064 261.038 191.429 261.268C191.794 261.498 192.085 261.827 192.268 262.216C192.45 262.604 192.517 263.037 192.461 263.463L192.447 263.553C191.936 263.76 191.439 263.997 190.959 264.265C190.684 264.419 190.415 264.582 190.151 264.755C189.82 264.975 189.564 265.288 189.416 265.655C189.267 266.021 189.234 266.424 189.32 266.809C189.406 267.195 189.608 267.546 189.898 267.816C190.189 268.086 190.554 268.263 190.948 268.323L190.988 268.329C191.017 268.333 191.042 268.337 191.071 268.341C190.199 270.408 188.975 272.31 187.453 273.964C185.968 281.923 179.59 282.678 172.767 280.361H172.762C172.014 283.59 170.929 286.733 169.526 289.739H157.964C157.923 289.611 157.885 289.48 157.848 289.352C158.918 289.419 159.993 289.356 161.047 289.163C160.189 288.118 159.332 287.065 158.474 286.02C158.455 286.001 158.437 285.98 158.42 285.959C157.985 285.424 157.546 284.893 157.11 284.359L157.11 284.358C157.087 282.719 157.277 281.084 157.674 279.493L157.674 279.492Z" fill="#F2F2F2"/>
<path d="M125.527 290.021C125.527 290.137 125.543 290.252 125.576 290.36C125.608 290.467 125.655 290.565 125.714 290.647C125.774 290.729 125.844 290.794 125.922 290.839C126 290.883 126.083 290.906 126.167 290.905H303.742C303.912 290.905 304.075 290.812 304.195 290.646C304.315 290.48 304.382 290.256 304.382 290.021C304.382 289.787 304.315 289.562 304.195 289.396C304.075 289.23 303.912 289.137 303.742 289.137H126.167C126.083 289.137 126 289.159 125.922 289.204C125.844 289.248 125.774 289.313 125.714 289.395C125.655 289.477 125.608 289.575 125.576 289.682C125.543 289.79 125.527 289.905 125.527 290.021Z" fill="#CCCCCC"/>
<path d="M247.653 164.326C248.354 163.909 248.955 163.345 249.414 162.674C249.874 162.004 250.182 161.242 250.316 160.441C250.45 159.641 250.407 158.821 250.191 158.039C249.974 157.257 249.589 156.53 249.062 155.91L261.72 130.977L255.633 125.806L240.817 155.529C239.831 156.487 239.234 157.771 239.139 159.137C239.043 160.503 239.456 161.857 240.298 162.941C241.141 164.026 242.355 164.766 243.71 165.021C245.066 165.276 246.469 165.029 247.653 164.326Z" fill="#A0616A"/>
<path d="M276.306 61.4051L276.941 64.3155L275.421 104.998L268.921 121.683L262.3 138.694L261.485 140.789L252.06 154.156L252.971 148.215L246.029 145.068L245.381 144.782L247.883 137.764L253.638 121.639L256.128 114.659L256.667 93.8909L257.167 74.2568C257.254 70.8776 258.047 67.5532 259.495 64.4937C260.943 61.4342 263.014 58.7062 265.579 56.4822L270.108 52.5592C272.803 55.0365 275.19 58.1826 276.306 61.4051Z" fill="#6C63FF"/>
<path d="M124.882 163.036L94.8046 162.399C91.0632 162.393 87.4767 160.915 84.8315 158.289C82.1864 155.662 80.6986 152.102 80.6945 148.388L79.4113 117.174C83.1044 142.622 97.2965 158.764 124.882 163.036Z" fill="#6C63FF"/>
</svg>
