<svg width="326" height="325" viewBox="0 0 326 325" fill="none" xmlns="http://www.w3.org/2000/svg">
<path d="M316.229 233.844H51.5275C46.6167 233.838 42.6372 229.852 42.6315 224.933V9.04253C42.6372 4.12366 46.6167 0.137556 51.5275 0.131866H316.229C321.14 0.137563 325.12 4.12367 325.125 9.04253V224.933C325.12 229.852 321.14 233.838 316.229 233.844Z" fill="#E6E6E6"/>
<path d="M290.51 227.833H57.5292C52.6184 227.827 48.6389 223.841 48.6332 218.922V15.0576C48.6389 10.1388 52.6185 6.15266 57.5292 6.14697H310.229C315.139 6.15267 319.119 10.1388 319.125 15.0576V199.172C319.107 214.993 306.306 227.815 290.51 227.833Z" fill="white"/>
<path d="M226.488 52.2443H120.098C118.831 52.2443 117.803 51.2154 117.803 49.9462C117.803 48.677 118.831 47.6481 120.098 47.6481H226.488C227.755 47.6481 228.782 48.677 228.782 49.9462C228.782 51.2154 227.755 52.2443 226.488 52.2443Z" fill="#6C63FF"/>
<path d="M280.344 125.801H120.098C118.831 125.801 117.803 124.772 117.803 123.503C117.803 122.234 118.831 121.205 120.098 121.205H280.344C281.611 121.205 282.638 122.234 282.638 123.503C282.638 124.772 281.611 125.801 280.344 125.801Z" fill="#E6E6E6"/>
<path d="M280.344 76.7632H120.098C118.831 76.7632 117.803 75.7344 117.803 74.4652C117.803 73.196 118.831 72.1671 120.098 72.1671H280.344C281.611 72.1671 282.638 73.196 282.638 74.4652C282.638 75.7343 281.611 76.7632 280.344 76.7632Z" fill="#E6E6E6"/>
<path d="M280.344 101.282H120.098C118.831 101.282 117.803 100.253 117.803 98.9841C117.803 97.7149 118.831 96.686 120.098 96.686H280.344C281.611 96.686 282.638 97.7149 282.638 98.9841C282.638 100.253 281.611 101.282 280.344 101.282Z" fill="#E6E6E6"/>
<path d="M280.344 150.32H120.098C118.831 150.32 117.803 149.291 117.803 148.022C117.803 146.753 118.831 145.724 120.098 145.724H280.344C281.611 145.724 282.638 146.753 282.638 148.022C282.638 149.291 281.611 150.32 280.344 150.32Z" fill="#E6E6E6"/>
<path d="M273.138 189.392C266.721 189.392 261.52 184.183 261.52 177.756C261.52 171.329 266.722 166.12 273.138 166.12C279.554 166.12 284.755 171.329 284.755 177.756C284.755 184.183 279.554 189.392 273.138 189.392Z" fill="#FACF1E"/>
<path d="M279.673 177.203L276.38 172.388C276.076 171.942 275.469 171.826 275.023 172.13C274.577 172.435 274.462 173.043 274.766 173.49L274.768 173.494L276.898 176.608H268.554C267.921 176.606 267.406 177.119 267.404 177.753C267.403 178.386 267.914 178.902 268.547 178.904H277.003L274.768 182.171C274.465 182.618 274.582 183.227 275.028 183.53C275.472 183.832 276.075 183.719 276.38 183.277L279.673 178.462C279.892 178.071 279.892 177.594 279.673 177.203H279.673Z" fill="white"/>
<path d="M69.8639 201.484C71.6227 200.01 71.8556 197.387 70.3842 195.625C70.2273 195.438 70.0542 195.264 69.8668 195.107L67.348 173.307L59.3506 175.161L63.795 195.826C62.4343 197.69 62.8399 200.306 64.7009 201.669C66.2581 202.81 68.3925 202.733 69.8639 201.484Z" fill="#FFB6B6"/>
<path d="M69.0378 176.861L59.779 182.647C59.779 182.647 59.2154 186.038 58.5787 177.516C58.5123 176.626 59.1319 175.077 59.0638 174.164C58.9869 173.134 56.0415 172.665 55.964 171.623C55.9087 170.881 56.7603 170.221 56.7053 169.482C56.622 168.361 56.5392 167.246 56.458 166.15C56.39 165.233 55.3757 164.651 55.3103 163.766C55.2443 162.873 56.1274 161.677 56.0652 160.831C55.5985 154.487 57.2123 138.528 57.2123 138.203C57.0876 137.388 56.748 136.621 56.2285 135.982L56.7227 134.502L56.3959 131.724C55.9664 128.074 56.7325 124.383 58.5787 121.206L60.9302 119.664L71.7799 137.943C67.2142 153.761 64.2338 159.974 69.0377 176.861H69.0378Z" fill="#6C63FF"/>
<path d="M61.8131 313.153H67.4139L70.0797 291.514H61.8131V313.153Z" fill="#A97052"/>
<path d="M59.9855 309.311L68.9335 308.776V312.616L77.4407 318.501C78.529 319.253 78.8022 320.747 78.0507 321.837C77.6036 322.486 76.8669 322.873 76.08 322.873H65.4269L63.5907 319.075L62.8738 322.873H58.8572L59.9855 309.311H59.9855Z" fill="#2F2E41"/>
<path d="M93.2745 313.153H98.8753L101.54 291.514H93.2745V313.153Z" fill="#A97052"/>
<path d="M91.4464 309.311L100.394 308.776V312.616L108.902 318.501C109.99 319.253 110.263 320.747 109.512 321.837C109.065 322.486 108.328 322.873 107.541 322.873H96.8878L95.0516 319.075L94.3347 322.873H90.3181L91.4464 309.311H91.4464Z" fill="#2F2E41"/>
<path d="M59.436 294.493H59.4578L60.5349 242.96C59.1191 240.224 59.1644 236.961 60.6554 234.266L60.8097 233.986L60.4098 232.13C59.8962 229.744 60.1319 227.258 61.0845 225.013L62.0894 192.192C58.4993 168.888 75.6084 153.689 75.6084 153.689H101.238L106.74 172.625C110.378 208.123 109.718 259.063 103.946 292.577L104.103 292.656C104.723 293.003 104.962 293.776 104.646 294.412C104.379 295.186 103.704 295.655 103.137 295.459L89.6017 294.988C88.9816 294.641 88.7426 293.868 89.0587 293.232C89.3254 292.458 90.001 291.989 90.5676 292.185L91.4879 292.651L90.5383 290.715C89.3736 288.34 89.5988 285.517 91.1253 283.358L90.959 279.095C89.52 277.407 89.0416 275.1 89.6908 272.978L90.6038 269.993L89.5252 242.351L89.7431 236.149L89.2943 229.114L87.2196 197.469L79.3665 236.383L71.3448 294.884C71.7374 295.239 71.9097 295.778 71.7961 296.295C71.6258 296.989 70.9979 297.472 70.2846 297.458H59.3969C58.5777 297.457 57.9143 296.792 57.915 295.971C57.9152 295.838 57.9332 295.706 57.9685 295.577C58.1574 294.926 58.7586 294.481 59.436 294.493Z" fill="#2F2E41"/>
<path d="M121.719 193.013C123.166 191.231 122.897 188.612 121.119 187.162C120.929 187.008 120.726 186.87 120.512 186.751L113.904 165.828L106.404 169.171L114.687 188.613C113.705 190.702 114.6 193.194 116.685 194.178C118.43 195.001 120.511 194.519 121.719 193.013H121.719H121.719Z" fill="#A97052"/>
<path d="M94.5268 126.494C94.5268 126.494 102.064 153.21 101.722 155.909C101.018 161.474 66.3841 178.581 63.8084 170.968L64.1313 168.466C62.8301 165.859 70.769 155.514 71.1544 154.161C71.6441 152.43 69.427 146.749 69.427 146.749C69.427 146.749 70.9594 141.563 70.7146 138.352C70.4652 135.141 69.7262 135.636 67.0149 133.656C64.3036 131.681 59.8649 122.543 59.8649 122.543C59.8649 122.543 61.8371 113.651 61.8371 111.921C61.8371 110.191 69.9393 107.243 70.9232 106.258C71.3515 105.686 71.7121 105.065 71.9977 104.41C72.1972 104.01 72.0702 103.084 72.2834 102.625C72.4194 102.325 72.8954 102.511 73.036 102.203C73.172 101.903 73.0541 101.558 73.1901 101.262C73.367 100.872 73.7932 100.531 73.9609 100.163C74.7317 98.4741 75.3891 97.098 75.5931 97.098C76.0828 97.098 91.87 99.3233 91.87 99.3233C92.7292 100.654 93.7196 101.896 94.8261 103.029C96.5535 104.755 104.638 108.956 104.638 108.956L94.5268 126.494H94.5268Z" fill="#6C63FF"/>
<path d="M115.844 171.44C114.611 172.675 108.509 178.346 108.259 176.861C108.015 175.381 107.881 175.204 106.893 174.713C105.904 174.218 105.904 173.973 105.66 172.243C105.415 170.513 103.193 168.782 103.443 168.042C103.687 167.302 103.459 168.243 103.459 167.499C103.459 166.758 102.72 164.043 101.731 163.548C100.747 163.053 99.2649 162.562 100.008 161.327C100.747 160.092 93.0488 123.034 93.0488 123.034L99.954 109.451L104.638 108.956C104.638 108.956 106.061 109.771 106.507 117.125C106.529 117.497 106.935 118.181 106.952 118.587C106.966 118.925 106.593 118.981 106.604 119.344C106.606 119.421 106.608 119.499 106.61 119.578C106.619 119.938 107.591 120.204 107.606 120.552C107.632 121.173 108.013 125.138 108.055 125.721C108.101 126.378 108.156 127.01 108.219 127.619C108.9 134.246 109.144 134.806 109.567 136.921C110.22 140.195 112.93 159.315 112.93 159.315C112.93 159.315 114.902 159.806 114.902 161.536C114.902 163.266 117.078 166.744 116.094 168.719C115.105 170.699 117.078 170.204 115.844 171.44H115.844Z" fill="#6C63FF"/>
<path d="M82.2784 96.5908C88.7383 96.5908 93.9752 91.3454 93.9752 84.8748C93.9752 78.4042 88.7383 73.1587 82.2784 73.1587C75.8184 73.1587 70.5815 78.4042 70.5815 84.8748C70.5815 91.3454 75.8184 96.5908 82.2784 96.5908Z" fill="#A97052"/>
<path d="M57.0727 109.497C54.5975 108.619 52.1223 107.738 49.6471 106.857C50.0737 106.14 50.617 105.499 51.2546 104.961C53.6112 102.99 56.8641 102.634 59.8562 101.969C62.853 101.304 66.1059 99.9411 67.2013 97.0723C68.3393 94.0896 66.6892 90.8693 65.7313 87.8296C64.3166 83.566 64.4884 78.9339 66.215 74.7871C68.0028 70.636 71.6194 67.5561 75.9974 66.4563C80.3314 65.4922 85.2297 67.0643 87.8946 70.617C91.4478 69.5493 95.2376 71.3066 96.7239 74.7112C97.4095 76.2752 97.3036 78.0738 96.4394 79.5463C95.5147 80.9474 93.5374 81.6646 92.0484 80.8857L92.9115 78.6914C90.2418 79.5985 88.5063 84.4336 88.8667 87.2359C89.2223 90.0334 90.8535 92.4842 92.5084 94.7688C94.1633 97.0534 95.9272 99.3617 96.6385 102.093C97.6628 106.021 96.2781 110.314 93.7176 113.463C91.157 116.612 87.5485 118.75 83.8119 120.322C81.0148 121.5 78.1081 122.397 75.1344 123.001C75.6655 121.965 76.1918 120.93 76.7229 119.894L70.421 123.713C69.2024 123.832 67.9742 123.903 66.7461 123.927C63.1708 123.988 59.5243 123.613 56.2524 122.184C52.9759 120.749 50.0976 118.151 48.9121 114.774C48.532 113.682 48.3521 112.53 48.3811 111.373C51.2782 110.747 54.1755 110.121 57.0727 109.497H57.0727Z" fill="#2F2E41"/>
<path d="M170.107 323.766H148.413L148.32 323.596C148.042 323.093 147.775 322.559 147.524 322.01C145.29 317.218 144.345 311.738 143.512 306.902L142.884 303.258C142.674 302.033 143.494 300.869 144.717 300.658C145.315 300.554 145.93 300.698 146.421 301.056C149.718 303.459 153.016 305.86 156.315 308.258C157.565 309.169 158.991 310.222 160.358 311.361C160.49 310.72 160.627 310.077 160.765 309.442C161.029 308.227 162.227 307.456 163.44 307.72C164.034 307.85 164.55 308.214 164.871 308.731L167.409 312.816C169.26 315.799 170.894 318.738 170.561 321.908C170.563 321.947 170.56 321.986 170.553 322.023C170.486 322.544 170.363 323.056 170.185 323.55L170.107 323.766H170.107Z" fill="#F0F0F0"/>
<path d="M192.18 324.219L0.940714 324.437C0.541938 324.435 0.220348 324.054 0.222422 323.588C0.224496 323.125 0.544879 322.75 0.940714 322.747L192.18 322.529C192.578 322.532 192.9 322.912 192.898 323.379C192.896 323.842 192.575 324.217 192.18 324.219Z" fill="#CACACA"/>
</svg>
