<svg width="358" height="279" viewBox="0 0 358 279" fill="none" xmlns="http://www.w3.org/2000/svg">
<path d="M114.376 69.9103H243.16C243.487 69.9103 243.753 70.1745 243.753 70.5003V145.03C243.753 145.355 243.487 145.619 243.16 145.619H114.376V69.9104V69.9103Z" fill="#E6E6E6"/>
<path d="M242.985 146.553L114.376 70.109L114.715 68.952L243.324 145.396C243.641 145.49 243.822 145.826 243.728 146.145C243.634 146.465 243.302 146.647 242.985 146.553H242.985Z" fill="white"/>
<path d="M114.715 146.578L114.376 145.421L242.985 68.9768C243.302 68.8825 243.634 69.0649 243.728 69.3845V69.3845C243.822 69.704 243.641 70.0395 243.324 70.1339L114.715 146.578Z" fill="white"/>
<path d="M228.418 0.909607H129.63C128.086 0.909607 126.835 2.16032 126.835 3.70315V3.70316C126.835 5.246 128.086 6.49671 129.63 6.49671H228.418C229.962 6.49671 231.214 5.246 231.214 3.70315C231.214 2.16032 229.962 0.909607 228.418 0.909607Z" fill="#E6E6E6"/>
<path d="M241.561 18.3491H116.214C114.67 18.3491 113.418 19.5998 113.418 21.1426V21.1426C113.418 22.6855 114.67 23.9362 116.214 23.9362H241.561C243.105 23.9362 244.357 22.6855 244.357 21.1426C244.357 19.5998 243.105 18.3491 241.561 18.3491Z" fill="#E6E6E6"/>
<path d="M241.561 35.7886H116.214C114.67 35.7886 113.418 37.0393 113.418 38.5821C113.418 40.125 114.67 41.3757 116.214 41.3757H241.561C243.105 41.3757 244.357 40.125 244.357 38.5821C244.357 37.0393 243.105 35.7886 241.561 35.7886Z" fill="#6C63FF"/>
<path d="M341.504 86.1983C341.495 104.521 329.786 120.841 312.299 126.901C311.928 127.033 311.557 127.153 311.181 127.269C288.246 134.519 263.709 122.011 256.377 99.3307C249.045 76.6503 261.693 52.3864 284.629 45.1358C307.564 37.8851 332.101 50.3934 339.433 73.0737C340.805 77.3165 341.503 81.7439 341.504 86.1983V86.1983Z" fill="#E6E6E6"/>
<path d="M239.934 41.6645C239.753 43.6745 241.297 45.4454 243.383 45.6199C243.606 45.6386 243.829 45.6382 244.052 45.6189L249.594 57.4519L253.336 51.7501L247.499 41.3874C247.172 39.3835 245.221 38.0148 243.141 38.3302C241.401 38.5941 240.075 39.9726 239.934 41.6645V41.6645Z" fill="#A97052"/>
<path d="M292.395 86.298C292.317 85.9435 292.217 85.5942 292.096 85.252C291.327 83.0473 289.76 81.217 287.71 80.1279C287.661 80.0994 287.609 80.0709 287.56 80.0465L263.041 67.4985L260.865 63.221L252.076 45.9518L249.921 46.5989L244.828 48.1252L244.711 48.1578L253.153 76.8108L255.091 78.3085L277.032 95.2317L277.746 95.7853C281.391 98.5914 286.523 98.2869 289.816 95.069C290.144 94.7512 290.448 94.4083 290.724 94.0433C292.397 91.8414 293.01 89.0019 292.395 86.298V86.298Z" fill="#FACF1E"/>
<path d="M306.497 117.114L306.365 112.501L305.986 99.1265C307.357 90.5663 308.329 89.616 301.717 83.7635C301.207 83.6577 300.766 83.3488 300.503 82.9126C299.902 81.7278 301.347 79.716 300.1 76.6187L290.257 77.1634L287.811 80.3442L277.972 93.1467C277.587 93.7796 277.235 94.4312 276.919 95.0988C272.707 103.933 278.417 108.629 278.862 109.436L281.587 117.726L283.09 125.765L283.575 126.882L284.946 127.367C293.691 130.005 303.065 129.98 311.795 127.296C310.326 123.765 308.554 120.359 306.497 117.114Z" fill="#FACF1E"/>
<path d="M324.882 150.132C325.735 148.292 324.875 146.136 322.962 145.317C322.758 145.229 322.546 145.159 322.329 145.108L321.1 132.203L315.628 136.407L317.635 148.017C317.265 150.011 318.646 151.915 320.72 152.271C322.454 152.568 324.176 151.684 324.882 150.132Z" fill="#A97052"/>
<path d="M306.463 86.5028C305.085 84.391 302.91 82.948 300.449 82.5137C299.923 82.4171 299.388 82.3686 298.853 82.3688C297.068 82.3691 295.323 82.9025 293.836 83.9024C293.365 84.2179 292.924 84.5793 292.522 84.9812C288.912 88.5242 288.82 94.3618 292.316 98.0199L292.319 98.0231L306.105 112.47L311.13 117.735L312.444 127.078L314.466 141.452L316.674 141.549L321.901 141.782L322.02 141.786L322.89 121.644L323.295 112.253L306.463 86.5028V86.5028Z" fill="#FACF1E"/>
<path d="M287.519 54.0832C284.094 60.9283 286.331 68.857 292.686 73.0264C299.558 77.535 308.481 76.5478 311.367 67.7862C314.581 58.0292 311.94 53.8436 306.199 48.843C299.471 42.983 291.219 46.6874 287.519 54.0832Z" fill="#2F2E41"/>
<path d="M303.943 69.3903C300.401 74.248 293.766 75.1817 289.122 71.4758C284.485 67.7746 283.588 60.8442 287.117 55.9859L287.209 55.8599C290.854 51.0863 297.508 50.3082 302.071 54.122C306.529 57.849 307.357 64.6054 303.94 69.3882L303.943 69.3903Z" fill="#A97052"/>
<path d="M284.003 53.0202C285.761 54.6552 287.903 55.842 290.241 56.4757C290.71 55.9457 291.265 55.4956 291.885 55.1438C291.589 55.7472 291.385 56.3904 291.282 57.0522C292.325 59.1677 296.583 60.6882 300.654 62.2436L306.045 52.9421L298.909 48.9892C293.175 45.1138 286.425 46.7678 284.003 53.0202Z" fill="#2F2E41"/>
<path d="M310.043 49.0272C311.144 48.6464 312.375 48.8152 313.314 49.4757C314.218 50.1212 314.95 50.9562 315.449 51.9141C316.358 53.464 317.01 55.1344 317.385 56.8683C317.705 58.3682 317.651 60.1817 316.218 60.9645C315.022 61.6176 313.312 61.2064 312.213 60.3347C311.194 59.4201 310.421 58.2914 309.958 57.0415C309.422 55.8453 308.915 54.6051 307.962 53.6116L308.952 54.0457C308.639 53.1534 308.493 52.2169 308.521 51.2778C308.567 50.327 309.146 49.4704 310.043 49.0272Z" fill="#2F2E41"/>
<path d="M297.929 50.7435L305.424 54.9662C309.644 57.344 311.127 62.6734 308.735 66.8698C305.269 72.9514 297.72 75.4147 291.304 72.558L298.153 66.5464L288.862 71.2533L286.878 70.1357C296.842 68.3342 298.764 60.5625 297.929 50.7435Z" fill="#2F2E41"/>
<path d="M311.705 58.1118C312.991 59.6046 315.005 60.1848 316.821 60.9617C323.329 63.8083 328.009 69.6748 329.325 76.6381C329.827 79.4317 329.761 82.3237 330.554 85.0471C331.343 87.7706 333.295 90.4427 336.097 90.9153C337.994 91.2382 339.895 90.5082 341.678 89.7875C342.659 89.3944 343.64 88.9998 344.621 88.6036C343.598 86.0439 342.576 83.4842 341.556 80.9245C343.195 83.3402 345.102 85.5645 347.24 87.5554C350.755 86.1422 354.274 84.729 357.796 83.3157C349.131 83.3485 350.61 74.9628 348.671 66.549C347.606 61.9256 338.533 58.795 336.755 54.3963C333.976 47.4999 326.117 44.1549 319.2 46.925C316.219 48.1187 313.763 50.3331 312.273 53.1702C310.494 53.8769 310.443 56.6378 311.705 58.1118Z" fill="#2F2E41"/>
<path d="M112.398 187.19C104.064 186.201 96.6233 181.517 92.1484 174.443C89.2752 169.8 87.7926 164.286 86.3588 158.954C85.9413 157.402 85.5099 155.797 85.0531 154.251C83.9963 150.792 85.1572 147.041 87.9853 144.777C90.7192 142.493 94.5724 142.097 97.7167 143.776L98.0522 143.953L98.6401 157.119C99.5112 155.355 101.423 151.371 102.937 147.392L103.064 147.059L103.354 147.268C106.399 149.447 109.156 152 111.561 154.866C120.155 165.276 123.718 178.925 121.304 192.188L121.231 192.578L112.398 187.19H112.398Z" fill="#F2F2F2"/>
<path d="M95.4257 145.601C93.626 143.385 94.0145 140.17 96.2935 138.42C96.5142 138.25 96.7486 138.098 96.9944 137.965L94.2512 112.622L101.274 110.161L104.305 140.284C105.524 142.843 104.379 145.878 101.748 147.063C99.5462 148.055 96.9326 147.45 95.4257 145.601V145.601H95.4257Z" fill="#A97052"/>
<path d="M92.0417 52.6601C92.0417 52.6601 103.433 58.0962 103.47 64.487C103.507 70.8778 104.451 76.658 103.559 79.1308C102.668 81.6035 105.824 99.5773 104.347 101.357C102.869 103.137 105.913 104.048 104.314 107.094C102.714 110.14 102.006 110.714 102.592 111.407C103.178 112.1 104.039 125.305 104.039 125.305L94.6528 126.453L84.6676 83.8314L92.0417 52.6601H92.0417Z" fill="#6C63FF"/>
<path d="M39.265 148.104C41.2713 146.185 41.4006 142.938 39.5538 140.853C39.3749 140.651 39.1807 140.464 38.9731 140.295L45.3757 115.598L39.2386 112.077L31.8404 141.468C30.3206 143.817 30.9203 147.001 33.1798 148.58C35.0704 149.902 37.5861 149.705 39.265 148.104L39.265 148.104Z" fill="#A97052"/>
<path d="M57.5724 57.4519C57.5724 57.4519 45.8692 61.0339 44.8396 67.2876C43.8099 73.5413 42.0112 79.0583 42.4761 81.6166C42.941 84.1748 37.1355 101.296 38.267 103.266C39.3985 105.235 36.355 105.661 37.4058 108.89C38.4566 112.118 39.0426 112.788 38.376 113.377C37.7094 113.966 34.8339 126.768 34.8339 126.768L43.6019 129.328L59.7509 89.1102L57.5724 57.4519Z" fill="#6C63FF"/>
<path d="M102.877 258.704L110.669 258.703L114.376 228.995L102.876 228.996L102.877 258.704Z" fill="#A97052"/>
<path d="M113.773 260.096V254.871L111.739 254.994L103.46 255.483L101.544 255.6L100.08 273.099L100.001 274.037H105.494L105.671 273.106L106.468 268.871L108.528 273.106L108.979 274.037H123.542C125.346 274.026 126.804 272.57 126.812 270.773C127.427 267.913 115.316 261.731 113.773 260.096H113.773Z" fill="#2F2E41"/>
<path d="M10.8751 250.938L17.6752 254.871L35.7921 230.007L25.7561 224.204L10.8751 250.938Z" fill="#A97052"/>
<path d="M19.6804 256.355L22.3266 251.728L20.4643 250.819L12.8339 247.108L11.0654 246.246L2.3766 258.851L0.333344 261.811L2.64455 263.112L5.22374 264.566L8.72064 260.477L8.33211 266.312L20.5178 273.169H20.5245L21.3083 273.607C22.9198 274.509 24.9641 273.948 25.8771 272.352C27.8735 270.122 20.2231 258.585 19.6805 256.355H19.6804Z" fill="#2F2E41"/>
<path d="M63.9002 109.085C46.3207 109.717 40.1427 181.482 45.511 182.784L20.4588 229.531L56.117 245.535L79.5628 164.023L83.4705 194.02L78.2603 241.623L101.309 247.204L117.251 246.064C113.109 189.322 102.766 129.476 94.1942 106.327L63.9002 109.085Z" fill="#2F2E41"/>
<path d="M55.3885 114.098L55.2727 114.526C66.5198 120.678 74.2001 119.362 86.4948 115.638L95.4703 113.783C97.4292 111.272 95.8327 108.815 93.6621 106.423L99.0429 62.9115C99.0067 57.2743 94.3292 52.7332 88.5955 52.7688C88.3599 52.7702 88.1244 52.7796 87.8894 52.7968L79.8069 46.9101L68.3006 47.3004L60.6041 55.6589L56.006 57.2742L52.4333 58.5263C51.7111 59.1659 50.9227 59.9031 50.1674 60.7162L55.8185 93.7815L58.2223 103.669C55 107.281 53.2247 110.807 55.3885 114.098Z" fill="#6C63FF"/>
<path d="M7.04187 277.871C7.04108 278.399 7.2562 278.828 7.52235 278.829H349.646C349.912 278.829 350.129 278.4 350.129 277.871C350.129 277.342 349.912 276.913 349.646 276.913H7.52523C7.25906 276.911 7.04266 277.337 7.04188 277.865V277.871H7.04187Z" fill="#CCCCCC"/>
<path d="M90.5815 39.1781L90.5928 39.1751C91.842 38.8434 92.5867 37.5583 92.2561 36.3048L88.9235 23.6366C88.3286 21.3664 87.2849 19.2394 85.8543 17.3821C83.0568 13.7591 78.9739 11.3591 74.4563 10.6823C72.1247 10.3356 69.7473 10.4662 67.4674 11.0663C58.14 13.5211 55.5349 16.6165 55.0084 32.4575C54.4819 48.2985 58.3461 45.145 58.3461 45.145C58.4261 45.4505 58.5665 45.7366 58.7591 45.9864C59.1359 46.4733 59.6855 46.7953 60.2933 46.8852C60.6051 46.931 60.9229 46.9135 61.2278 46.8336C72.8757 45.6305 84.6722 44.5349 90.5833 39.1776L90.5815 39.1781L90.5815 39.1781Z" fill="#2F2E41"/>
<path d="M63.0088 25.665C61.2888 32.3613 65.5228 39.1345 72.4656 40.7935C75.7932 41.5885 79.3118 41.0788 82.2502 39.3759C85.1879 37.6856 87.3019 34.9315 88.1205 31.7282C89.8348 25.0305 85.5951 18.2606 78.6508 16.6072C75.3316 15.8169 71.823 16.3245 68.8903 18.0193C65.9488 19.7071 63.8307 22.4609 63.009 25.6655L63.0088 25.665V25.665Z" fill="#A97052"/>
<path d="M93.2285 23.5011C92.7604 21.6635 91.9394 19.9419 90.8143 18.4384C89.2158 14.3236 86.7085 10.9979 81.8503 13.017C80.0282 12.7389 78.1705 12.8421 76.3878 13.3205L73.8714 13.9925C73.8431 14 73.8149 14.0076 73.7866 14.0154C66.4693 16.0149 62.1071 23.761 64.0434 31.3169L64.1098 31.5766L69.4319 30.1497L69.9078 24.426L71.6098 29.5669L74.359 28.8309L74.5986 25.9434L75.4573 28.5352C80.6699 30.6264 86.7112 28.5517 93.2927 23.7619L93.2285 23.5011L93.2285 23.5011Z" fill="#2F2E41"/>
<path d="M80.6009 41.4048C80.7873 41.7973 80.8645 42.2366 80.8237 42.6726C80.8042 42.8954 80.7549 43.1143 80.6772 43.3227C80.6106 43.5005 80.524 43.6695 80.4194 43.826C80.1091 44.2886 79.6512 44.6205 79.1277 44.7623C79.095 44.7709 79.0622 44.779 79.0292 44.7863C78.9963 44.7937 78.9631 44.8003 78.9297 44.8061C78.8961 44.8123 78.8624 44.8176 78.8286 44.8218C78.7948 44.826 78.7607 44.8296 78.7263 44.8326L76.7904 44.9912L72.8113 40.016L74.1255 45.2156L65.328 45.9518L59.7507 23.8871L73.8481 20.0765L73.6067 20.5946C72.8095 22.3296 72.486 24.2607 72.672 26.1753C72.8694 28.1121 73.3831 29.9992 74.1908 31.7548C74.9945 33.5349 75.9601 35.2303 77.0742 36.8177C78.0533 38.2262 79.1093 39.5745 80.237 40.8561C80.3823 41.0203 80.5048 41.205 80.6009 41.4048Z" fill="#2F2E41"/>
</svg>
