<svg width="359" height="319" viewBox="0 0 359 319" fill="none" xmlns="http://www.w3.org/2000/svg">
<path d="M356.305 317.376H264.958V314.576C264.958 312.145 265.924 309.814 267.645 308.095C269.366 306.377 271.701 305.411 274.134 305.411H347.128C349.562 305.411 351.896 306.377 353.617 308.095C355.338 309.814 356.305 312.145 356.305 314.576V317.376Z" fill="#E6E6E6"/>
<path d="M308.494 305.97L311.272 304.852C282.205 232.799 285.006 141.898 309.576 63.9211C312.495 54.8863 312.705 45.1965 310.182 36.0439C307.658 26.8912 302.51 18.6749 295.372 12.4058C281.111 -0.30427 261.45 -3.40054 244.058 4.32443C226.891 11.9508 224.525 25.2349 224.525 38.4542H227.52C227.52 24.3432 230.539 13.6038 245.275 7.0574C261.575 -0.182317 280.007 2.72154 293.378 14.6378C300.083 20.5258 304.917 28.2429 307.288 36.8394C309.658 45.436 309.46 54.537 306.719 63.0228C281.865 141.9 279.229 233.426 308.494 305.97Z" fill="#E6E6E6"/>
<path d="M226.771 82.5732C232.56 82.5732 237.254 77.8861 237.254 72.1043C237.254 66.3224 232.56 61.6354 226.771 61.6354C220.982 61.6354 216.289 66.3224 216.289 72.1043C216.289 77.8861 220.982 82.5732 226.771 82.5732Z" fill="#FACF1E"/>
<path d="M210.627 90.3545V70.5184H213.716V90.3545C214.601 90.7124 215.335 91.3668 215.791 92.2057C216.246 93.0446 216.396 94.0156 216.213 94.9524C216.031 95.8892 215.528 96.7335 214.79 97.3405C214.053 97.9474 213.127 98.2794 212.171 98.2794C211.216 98.2794 210.29 97.9474 209.552 97.3405C208.815 96.7335 208.312 95.8892 208.129 94.9524C207.947 94.0156 208.096 93.0446 208.552 92.2057C209.008 91.3668 209.741 90.7124 210.627 90.3545Z" fill="#E6E6E6"/>
<path d="M195.698 55.2792C195.703 50.7193 197.519 46.3477 200.748 43.1234C203.976 39.8991 208.353 38.0854 212.919 38.0803H241.372C245.939 38.0803 250.32 39.8923 253.549 43.1177C256.779 46.3431 258.593 50.7177 258.593 55.2792C258.593 59.8406 256.779 64.2152 253.549 67.4406C250.32 70.666 245.939 72.4781 241.372 72.4781H212.919C208.353 72.4729 203.976 70.6592 200.748 67.4349C197.519 64.2106 195.703 59.839 195.698 55.2792Z" fill="#6C63FF"/>
<path d="M155.61 161.786C158.466 125.285 173.072 107.894 163.72 96.9877C154.761 86.541 129.526 88.699 113.32 98.7233C69.6081 125.761 53.5937 233.524 109.844 286.175C163.297 336.206 264.599 320.182 287.112 279.232C292.365 269.677 296.538 252.927 288.85 242.783C269.763 217.598 200.367 263.215 169.513 234.683C151.228 217.775 154.042 181.817 155.61 161.786Z" fill="#3F3D56"/>
<path d="M189.024 143.652C187.962 144.139 187.133 145.022 186.712 146.111C186.292 147.2 186.314 148.41 186.773 149.483C186.87 149.7 186.984 149.908 187.116 150.106L177.733 162.617L182.415 169.605L193.412 151.078C194.191 150.472 194.747 149.624 194.994 148.669C195.24 147.713 195.163 146.703 194.773 145.796C194.547 145.282 194.222 144.817 193.816 144.429C193.409 144.041 192.931 143.736 192.407 143.532C191.883 143.329 191.324 143.23 190.762 143.242C190.2 143.254 189.645 143.377 189.131 143.603C189.095 143.619 189.059 143.635 189.024 143.652Z" fill="#FFB6B6"/>
<path d="M189.016 165.223C189.63 165.767 187.927 166.438 186.125 165.379C185.61 165.072 185.389 164.945 185.332 165.026C185.187 165.229 186.032 166.721 185.807 170.036C185.668 172.015 182.377 175.735 178.641 179.363C173.589 184.269 167.715 189.001 167.715 189.001L165.652 187.353L144.027 170.036L140.377 164.991C140.711 162.999 141.213 161.039 141.878 159.131C142.793 156.49 143.88 153.912 145.133 151.413C145.805 150.053 146.495 148.757 147.155 147.565L158.741 160.317L168.451 170.997C168.451 170.997 171.278 166.449 173.467 165.211C173.747 165.033 174.064 164.924 174.394 164.893C176.607 164.789 176.74 163.586 174.174 160.965C171.608 158.344 174.846 160.791 177.129 160.085C179.411 159.379 177.129 160.085 177.609 158.321C178.09 156.556 184.492 153.015 184.492 153.015L184.758 153.253L189.595 157.517L190.98 158.737C190.98 158.737 189.468 162.88 189.051 163.753C188.634 164.627 188.408 164.673 189.016 165.223Z" fill="#6C63FF"/>
<path d="M316.531 245.593L316.767 239.211L292.232 235.266L291.884 244.685L316.531 245.593Z" fill="#FFB6B6"/>
<path d="M312.078 247.514L311.845 237.297L316.219 237.458L323.28 228.012C323.629 227.545 324.117 227.202 324.675 227.033C325.233 226.863 325.83 226.876 326.38 227.07C326.93 227.264 327.403 227.628 327.731 228.109C328.059 228.59 328.224 229.164 328.203 229.746L327.754 241.884L323.351 243.816L327.647 244.793L327.478 249.369L312.078 247.514Z" fill="#2F2E41"/>
<path d="M178.448 248.077L256.158 250.045C256.158 250.045 289.716 251.981 297.589 246.866L305.892 245.819L306.342 233.639C306.342 233.639 301.265 233.676 298.346 232.318C295.427 230.96 297.455 229.298 294.672 230.932C291.889 232.566 292.183 232.763 290.031 232.012C287.879 231.261 189.203 216.24 189.203 216.24L178.448 248.077Z" fill="#2F2E41"/>
<path d="M280.849 242.792L285.368 238.274L270.068 218.717L263.399 225.385L280.849 242.792Z" fill="#FFB6B6"/>
<path d="M276.276 238.861L283.064 231.213L286.16 234.302L297.769 232.173C298.343 232.068 298.935 232.149 299.459 232.403C299.983 232.658 300.412 233.073 300.684 233.589C300.955 234.104 301.054 234.693 300.966 235.268C300.879 235.844 300.61 236.376 300.198 236.788L291.603 245.382L287.058 243.808L289.543 247.441L286.302 250.682L276.276 238.861Z" fill="#2F2E41"/>
<path d="M147.789 205.574L148.562 223.509C149.471 244.622 172.753 257.401 190.807 246.377C191.139 246.174 191.473 245.964 191.808 245.746C191.808 245.746 198.652 243.91 198.444 241.003C198.237 238.096 199.909 236.682 201.388 237.474C202.868 238.267 222.241 210.808 222.241 210.808C222.241 210.808 262.492 230.86 271.372 235.581C271.372 235.581 279.721 222.544 279.115 222.681C278.51 222.817 229.32 188.433 229.32 188.433C229.32 188.433 221.306 180.334 211.366 185.682C211.159 186.467 211.336 186.495 211.336 186.495L178.498 213.217L173.858 204.417L147.789 205.574Z" fill="#2F2E41"/>
<path d="M178.75 183.152C178.688 183.981 178.57 184.804 178.397 185.617C178.161 186.793 177.779 187.936 177.262 189.019C177.262 189.019 177.262 190.228 174.944 194.278C172.627 198.328 175.524 196.592 177.262 199.601C179 202.603 177.262 201.221 175.333 203.153C174.777 203.715 174.383 204.416 174.19 205.182C173.998 205.948 174.014 206.752 174.238 207.509C174.238 207.509 149.351 207.527 144.716 205.791C140.082 204.055 139.027 194.278 143.181 193.312C147.329 192.346 141.924 191.385 139.485 189.158C137.046 186.93 141.924 183.285 141.924 183.285C141.924 183.285 139.914 179.82 140.082 168.185C140.105 167.115 140.204 166.048 140.377 164.992C140.711 162.999 141.213 161.039 141.878 159.131C142.793 156.49 143.88 153.912 145.133 151.413C145.805 150.053 146.495 148.757 147.155 147.566C147.259 147.38 147.358 147.201 147.462 147.022C148.719 144.8 149.866 142.983 150.625 141.82C151.21 140.918 151.564 140.409 151.564 140.409L155.781 133.084L169.858 139.674L169.059 150.452L171.486 158.581L172.604 162.324L173.467 165.211L174.8 169.684C174.8 169.684 174.435 169.701 174.869 170.297C176.87 172.954 178.167 176.072 178.64 179.363C178.807 180.619 178.844 181.889 178.75 183.152Z" fill="#6C63FF"/>
<path d="M219.404 184.314L219.139 184.229L185.446 173.393L197.862 132.714C198.109 131.904 198.537 131.16 199.114 130.54C199.691 129.919 200.401 129.437 201.192 129.13C201.982 128.823 202.832 128.7 203.677 128.769C204.522 128.838 205.34 129.097 206.071 129.528L227.602 142.232C229.306 143.237 230.603 144.808 231.265 146.67C231.928 148.533 231.914 150.568 231.226 152.421L219.404 184.314Z" fill="#2F2E41"/>
<path d="M219.541 186.9L185.576 175.977L197.992 135.298C198.239 134.488 198.667 133.744 199.244 133.124C199.821 132.503 200.531 132.021 201.322 131.714C202.112 131.407 202.962 131.284 203.807 131.353C204.652 131.422 205.47 131.681 206.201 132.112L228.76 143.361C232.149 145.36 232.07 150.534 230.496 154.78L219.541 186.9Z" fill="#6C63FF"/>
<path d="M216.14 189.844C215.358 190.285 214.493 190.558 213.599 190.647C212.705 190.736 211.803 190.638 210.949 190.36L189.24 183.378C187.575 182.834 186.188 181.662 185.376 180.111C184.564 178.56 184.392 176.754 184.896 175.078L195.78 139.418C195.997 138.705 196.355 138.043 196.832 137.471C197.309 136.898 197.896 136.427 198.557 136.083C199.219 135.74 199.943 135.533 200.687 135.473C201.43 135.413 202.178 135.501 202.886 135.734L225.384 143.111C226.455 143.462 227.446 144.025 228.297 144.765C229.147 145.505 229.841 146.408 230.336 147.421C230.832 148.433 231.119 149.534 231.181 150.659C231.243 151.784 231.079 152.91 230.698 153.971L219.061 186.372C218.538 187.843 217.501 189.076 216.14 189.844Z" fill="#3F3D56"/>
<path d="M169.062 133.209C177.65 133.209 184.611 126.257 184.611 117.68C184.611 109.104 177.65 102.152 169.062 102.152C160.475 102.152 153.513 109.104 153.513 117.68C153.513 126.257 160.475 133.209 169.062 133.209Z" fill="#FFB6B6"/>
<path d="M116.482 133.443C117.909 136.206 120.249 138.39 123.105 139.626C124.244 140.144 125.442 140.523 126.673 140.754C127.021 139.376 127.578 138.059 128.325 136.85C128.076 138.213 128.076 139.61 128.325 140.974C130.2 141.127 132.086 140.893 133.867 140.287C135.616 139.693 137.202 138.7 138.5 137.387C139.797 136.074 140.771 134.477 141.343 132.723C142.581 128.607 141.247 124.21 141.142 119.914C141.034 115.617 143.077 110.477 147.348 109.946C150.601 109.54 150.199 109.855 152.536 112.15C149.266 115.777 157.237 131.842 161.513 131.132C163.931 130.73 165.711 128.813 166.189 128.88C168.638 134.869 161.271 143.364 167.114 146.152L166.681 145.579C163.622 140.534 172.671 132.012 169.613 126.966C168.761 125.555 167.874 123.9 168.402 122.339C168.902 120.854 171.438 120.384 171.973 121.735C171.103 118.639 173.531 115.004 176.755 114.688C179.619 114.405 179.454 115.221 182.185 115.965C182.534 114.79 183.037 113.666 183.68 112.622C183.462 113.813 183.436 115.03 183.601 116.229C184.586 116.346 185.582 116.136 186.435 115.63C188.957 114.12 189.032 110.222 187.299 107.85C185.564 105.478 182.657 104.306 179.852 103.42C179.826 97.4963 163.866 94.6605 160.931 100.168C160.629 95.7086 155.51 92.7047 151.101 93.4622C146.692 94.2197 143.213 97.7506 141.093 101.686C138.972 105.619 137.92 110.022 136.367 114.211C134.815 118.399 132.596 122.576 128.879 125.061C125.163 127.543 119.64 127.769 116.537 124.552C115.829 125.925 115.455 127.446 115.446 128.991C115.436 130.536 115.791 132.061 116.482 133.443Z" fill="#2F2E41"/>
<path d="M132.437 204.456C132.759 204.199 133.108 203.978 133.478 203.798C139.429 200.839 157.937 193.161 172.409 193.476C200.254 194.082 235.691 224.773 227.443 245.382C221.168 261.064 189.969 269.987 167.195 262.851C135.291 252.854 122.698 212.211 132.437 204.456Z" fill="#3F3D56"/>
<path d="M16.8412 317.435C7.74256 315.72 -0.311357 274.783 17.5899 254.621C23.7231 247.713 31.3735 244.707 41.55 241.909C100.122 225.805 144.796 241.153 150.8 244.9C156.79 248.639 167.291 304.974 153.863 312.948C146.307 317.435 131.332 319.678 123.913 314.443C112.995 306.741 131.32 286.763 123.164 273.316C113.908 258.056 65.169 252.915 40.7334 268.081C14.6631 284.262 68.4372 327.156 16.8412 317.435Z" fill="#F2F2F2"/>
<path d="M77.6731 247.832H42.9132C34.3324 239.619 28.1971 231.704 33.1091 225.134C33.1091 223.245 33.8603 221.434 35.1975 220.099C36.5346 218.763 38.3482 218.013 40.2393 218.013H80.3469C82.238 218.013 84.0516 218.763 85.3888 220.099C86.7259 221.434 87.4772 223.245 87.4772 225.134C89.3473 232.62 86.0062 240.187 77.6731 247.832Z" fill="#CCCCCC"/>
<path d="M71.4307 209.048C71.1009 209.064 70.7744 208.977 70.4954 208.801C70.2165 208.624 69.9986 208.367 69.8712 208.062C69.7438 207.758 69.7132 207.422 69.7834 207.1C69.8536 206.778 70.0213 206.485 70.2637 206.261L70.374 205.823C70.3595 205.788 70.3449 205.753 70.3302 205.718C69.998 204.934 69.4412 204.266 68.7299 203.797C68.0186 203.328 67.1844 203.08 66.3322 203.083C65.48 203.086 64.6477 203.341 63.9399 203.815C63.2321 204.289 62.6803 204.961 62.3539 205.748C61.0494 208.886 59.3884 212.029 58.9794 215.347C58.7993 216.813 58.8753 218.3 59.204 219.74C56.14 213.065 54.5489 205.81 54.5386 198.467C54.538 196.624 54.6405 194.783 54.8457 192.952C55.0153 191.451 55.2505 189.96 55.5515 188.48C57.1938 180.451 60.7198 172.924 65.84 166.52C68.3182 165.17 70.3223 163.093 71.5823 160.57C72.0388 159.663 72.3614 158.695 72.5401 157.696C72.2606 157.732 71.4861 153.48 71.6969 153.22C71.3074 152.629 70.61 152.336 70.1846 151.76C68.0685 148.894 65.153 149.395 63.6311 153.288C60.3798 154.927 60.3483 157.645 62.3433 160.259C63.6125 161.922 63.7869 164.172 64.9005 165.953C64.7859 166.099 64.6668 166.241 64.5522 166.387C62.4578 169.077 60.6324 171.965 59.1021 175.01C59.4743 171.599 59.0301 168.148 57.8062 164.941C56.5658 161.953 54.2408 159.436 52.1934 156.852C49.7341 153.749 44.6911 155.103 44.2578 159.037C44.2536 159.075 44.2495 159.113 44.2455 159.151C44.5497 159.323 44.8473 159.504 45.1386 159.697C45.5045 159.941 45.7881 160.29 45.9521 160.698C46.1161 161.106 46.1529 161.553 46.0577 161.982C45.9625 162.412 45.7398 162.802 45.4186 163.102C45.0975 163.403 44.6929 163.599 44.258 163.666L44.2135 163.673C44.3218 164.768 44.5133 165.853 44.7863 166.918C42.1597 177.063 47.8304 180.758 55.9273 180.924C56.106 181.015 56.2802 181.107 56.4589 181.194C54.9215 185.545 53.9571 190.078 53.59 194.677C53.3822 197.391 53.3945 200.117 53.6267 202.829L53.6129 202.733C53.0263 199.717 51.4156 196.996 49.053 195.03C45.5438 192.151 40.5861 191.091 36.8003 188.777C36.398 188.519 35.9302 188.381 35.452 188.38C34.9739 188.379 34.5055 188.514 34.1019 188.77C33.6983 189.026 33.3764 189.392 33.1742 189.825C32.9721 190.257 32.898 190.739 32.9608 191.212C32.9659 191.246 32.971 191.28 32.9763 191.313C33.5406 191.543 34.0901 191.807 34.6215 192.105C34.9256 192.276 35.2233 192.458 35.5146 192.651C35.8805 192.895 36.164 193.244 36.328 193.651C36.492 194.059 36.5288 194.507 36.4336 194.936C36.3385 195.365 36.1157 195.756 35.7946 196.056C35.4734 196.357 35.0689 196.553 34.634 196.62L34.5894 196.627C34.5574 196.632 34.5298 196.636 34.4978 196.641C35.4621 198.94 36.8154 201.057 38.4986 202.897C40.141 211.753 47.1949 212.593 54.7403 210.014H54.7449C55.5728 213.607 56.7723 217.105 58.3241 220.45H71.1103C71.1562 220.308 71.1974 220.161 71.2387 220.02C70.0551 220.094 68.867 220.023 67.7006 219.809C68.6493 218.646 69.598 217.475 70.5466 216.312C70.5678 216.291 70.5877 216.268 70.6062 216.244C71.0874 215.649 71.5732 215.058 72.0544 214.463L72.0546 214.462C72.0803 212.639 71.8707 210.819 71.4311 209.049L71.4307 209.048Z" fill="#CCCCCC"/>
<path d="M115.042 245.972C115.254 246.589 115.656 247.122 116.191 247.497C116.726 247.871 117.365 248.066 118.018 248.054L130.77 247.726C131.427 247.714 132.063 247.489 132.582 247.085C133.101 246.682 133.475 246.121 133.649 245.488L135.453 226.217C136.093 226.507 136.79 226.65 137.493 226.636C138.726 226.605 139.896 226.086 140.746 225.193C141.596 224.301 142.056 223.107 142.025 221.876C141.994 220.645 141.475 219.476 140.581 218.627C139.687 217.778 138.493 217.319 137.26 217.35C136.979 217.349 136.699 217.378 136.424 217.436C136.125 217.114 135.762 216.857 135.358 216.683C134.954 216.509 134.518 216.421 134.078 216.425L114.463 216.931C114.3 216.937 114.138 216.957 113.979 216.991C113.549 217.071 113.141 217.243 112.782 217.493C112.424 217.744 112.124 218.069 111.901 218.445C111.679 218.822 111.54 219.241 111.494 219.676C111.448 220.11 111.495 220.55 111.633 220.964L115.042 245.972ZM135.823 224.908L137.107 220.316C137.253 219.786 137.257 219.226 137.117 218.694C137.179 218.694 137.234 218.664 137.297 218.664C138.177 218.646 139.029 218.978 139.665 219.586C140.301 220.194 140.67 221.029 140.69 221.908C140.711 222.787 140.382 223.638 139.775 224.275C139.168 224.912 138.333 225.283 137.452 225.306C136.883 225.324 136.32 225.187 135.823 224.908Z" fill="#CCCCCC"/>
<path d="M113.979 216.991C114.397 219.378 119.095 221.055 124.744 220.764C129.94 220.525 134.187 218.703 134.966 216.544C134.678 216.459 134.378 216.419 134.078 216.425L114.463 216.931C114.3 216.937 114.138 216.957 113.979 216.991Z" fill="white"/>
<path d="M0.567619 318.632L357.512 318.852C357.663 318.852 357.807 318.762 357.914 318.603C358.02 318.443 358.08 318.227 358.08 318.002C358.08 317.776 358.02 317.56 357.914 317.4C357.807 317.241 357.663 317.151 357.512 317.151L0.567619 316.932C0.417076 316.932 0.272701 317.021 0.166251 317.181C0.0598017 317.34 0 317.557 0 317.782C0 318.008 0.0598017 318.224 0.166251 318.383C0.272701 318.543 0.417076 318.632 0.567619 318.632Z" fill="#CACACA"/>
<path d="M207.749 165.911C206.581 165.953 205.476 166.449 204.669 167.293C203.862 168.137 203.416 169.262 203.427 170.429C203.432 170.667 203.458 170.903 203.503 171.136L190.025 179.083L191.657 187.331L208.941 174.452C209.894 174.191 210.733 173.622 211.329 172.835C211.924 172.047 212.241 171.085 212.231 170.098C212.22 169.537 212.099 168.983 211.873 168.468C211.648 167.954 211.323 167.489 210.918 167.1C210.513 166.71 210.035 166.405 209.511 166.2C208.988 165.996 208.429 165.896 207.867 165.907C207.827 165.908 207.788 165.909 207.749 165.911Z" fill="#FFB6B6"/>
<path d="M196.708 184.855C196.348 184.373 196.193 184.171 196.111 184.227C195.9 184.354 196.103 186.058 194.619 189.028C192.529 193.201 170.619 199.592 170.619 199.592L167.921 194.66L156.056 172.985L151.966 155.612C151.823 155.006 151.753 154.385 151.759 153.763C155.405 151.2 159.278 148.974 163.328 147.112C164.947 148.029 166.181 149.497 166.804 151.248L174.972 174.12L178.231 183.252C178.231 183.252 183.981 179.146 186.066 179.899C188.148 180.658 188.74 179.595 187.379 176.191C186.018 172.787 188.061 176.291 190.438 176.513C192.82 176.739 190.438 176.513 191.563 175.069C192.688 173.624 199.963 172.812 199.963 172.812L200.117 173.134L202.936 178.925L203.743 180.589C203.743 180.589 200.755 183.828 200.034 184.473C199.309 185.123 199.086 185.078 199.44 185.819C199.79 186.556 197.961 186.522 196.708 184.855Z" fill="#6C63FF"/>
</svg>
