<svg width="20" height="20" viewBox="0 0 20 20" fill="none" xmlns="http://www.w3.org/2000/svg">
<g clip-path="url(#clip0_423_515)">
<path d="M14.1518 0.652588H2.30371V19.8644H17.3534V3.85416L14.1518 0.652588Z" fill="#E8E8E8"/>
<path d="M14.7968 10.1534C14.566 9.74199 13.7683 9.61272 13.4024 9.55455C13.1139 9.50867 12.8195 9.49499 12.5277 9.49524C12.2987 9.49372 12.0729 9.505 11.8502 9.51767C11.768 9.52318 11.6867 9.53028 11.6055 9.53731C11.5222 9.45114 11.4418 9.36211 11.3639 9.27105C10.8684 8.68447 10.4683 8.01925 10.1422 7.32799C10.2288 6.99399 10.2981 6.64541 10.3399 6.2834C10.4162 5.62269 10.4425 4.86971 10.1949 4.23979C10.1094 4.02238 9.8815 3.7577 9.61853 3.8895C9.31621 4.04107 9.23117 4.4705 9.20652 4.77491C9.18669 5.02096 9.20057 5.26765 9.24188 5.50958C9.28396 5.75316 9.35169 5.98444 9.42545 6.21541C9.49427 6.42718 9.57012 6.6373 9.65281 6.84546C9.60034 7.00933 9.54464 7.17034 9.48616 7.32723C9.34979 7.68481 9.20234 8.02451 9.06053 8.35129C8.98575 8.51332 8.91257 8.67192 8.84096 8.82698C8.61437 9.32472 8.36838 9.81334 8.09229 10.2857C7.4483 10.5128 6.87041 10.7762 6.39047 11.0857C6.13302 11.252 5.9056 11.4327 5.71619 11.6308C5.53737 11.8179 5.35564 12.0606 5.33974 12.3293C5.3308 12.481 5.39087 12.6282 5.51513 12.7182C5.68603 12.8459 5.9125 12.8374 6.11077 12.7958C6.76028 12.6596 7.25903 12.1013 7.68377 11.6307C7.97633 11.3066 8.30932 10.8951 8.65765 10.3973C8.65841 10.3962 8.65917 10.395 8.65999 10.3939C9.25741 10.2087 9.9076 10.0523 10.5977 9.93734C10.9129 9.88507 11.2365 9.84229 11.5666 9.81226C11.7987 10.0297 12.0495 10.2276 12.3231 10.3929C12.5362 10.524 12.7629 10.6348 13.0001 10.7173C13.24 10.7957 13.4814 10.8597 13.7306 10.9002C13.8564 10.9182 13.9851 10.9264 14.1166 10.9214C14.4101 10.9103 14.8313 10.7978 14.8589 10.4417C14.8674 10.3327 14.8439 10.2372 14.7968 10.1534ZM7.77147 10.8067C7.63403 11.0196 7.50147 11.2111 7.37657 11.3796C7.07071 11.7958 6.72137 12.2901 6.21558 12.475C6.11952 12.5101 5.99304 12.5463 5.85972 12.5385C5.74097 12.5315 5.62387 12.4791 5.62926 12.3442C5.63192 12.2737 5.66645 12.1836 5.71943 12.0951C5.77741 11.9981 5.8492 11.9092 5.92695 11.8274C6.09354 11.6523 6.30417 11.4827 6.54648 11.3256C6.91812 11.0845 7.36181 10.8675 7.85638 10.6738C7.82793 10.7188 7.79954 10.7636 7.77147 10.8067ZM9.49642 5.4675C9.45828 5.24484 9.45251 5.01906 9.47595 4.80197C9.48761 4.69342 9.50973 4.58748 9.54173 4.48818C9.56885 4.4039 9.6274 4.19822 9.7208 4.17179C9.87478 4.1282 9.92211 4.45878 9.93954 4.55231C10.0388 5.08433 9.95133 5.67598 9.83226 6.19786C9.81332 6.28087 9.79221 6.36255 9.77061 6.44391C9.73373 6.34246 9.69856 6.2407 9.66618 6.13842C9.59648 5.91506 9.53273 5.68909 9.49642 5.4675ZM10.5536 9.6674C9.97503 9.76119 9.42469 9.88405 8.90737 10.0291C8.96966 10.0117 9.2543 9.47224 9.31779 9.36027C9.61694 8.83338 9.86166 8.28039 10.0375 7.70027C10.348 8.31435 10.7248 8.90182 11.1878 9.42471C11.2304 9.47217 11.2738 9.51906 11.3179 9.56539C11.0585 9.59333 10.8032 9.62736 10.5536 9.6674ZM14.466 10.4084C14.4449 10.5228 14.2006 10.5882 14.0866 10.6062C13.7497 10.6591 13.3934 10.6168 13.071 10.5085C12.8498 10.4342 12.6364 10.3331 12.4337 10.2114C12.2322 10.0897 12.0437 9.94647 11.8675 9.78856C12.0847 9.77551 12.3047 9.76695 12.5257 9.77113C12.7467 9.77335 12.9695 9.7845 13.1895 9.81321C13.602 9.85921 14.0644 10.0008 14.3891 10.2686C14.453 10.3213 14.4734 10.368 14.466 10.4084Z" fill="#FB3449"/>
<path d="M14.6473 2.2534H2.30371V0.652588H14.1518L14.6473 2.2534Z" fill="#FB3449"/>
<path d="M8.26103 15.9338C8.26103 16.2735 8.16091 16.5358 7.96055 16.7208C7.76018 16.9059 7.47567 16.9984 7.10688 16.9984H6.87604V18.007H6.05469V14.9668H7.10694C7.49094 14.9668 7.77932 15.0507 7.97202 15.2184C8.16471 15.3862 8.26103 15.6246 8.26103 15.9338ZM6.8761 16.3288H7.02584C7.14921 16.3288 7.2473 16.2943 7.32011 16.2249C7.39291 16.1555 7.42929 16.0599 7.42929 15.9379C7.42929 15.7327 7.31561 15.6301 7.08825 15.6301H6.8761V16.3288Z" fill="#A4A9AD"/>
<path d="M11.3268 16.4223C11.3268 16.9297 11.1871 17.3207 10.9078 17.5952C10.6284 17.8697 10.2357 18.0069 9.72972 18.0069H8.74609V14.9667H9.79835C10.2863 14.9667 10.663 15.0914 10.9285 15.341C11.194 15.5905 11.3268 15.951 11.3268 16.4223ZM10.4742 16.4515C10.4742 16.1728 10.4191 15.9663 10.3089 15.8317C10.1987 15.6973 10.0313 15.6301 9.80665 15.6301H9.56757V17.3331H9.75057C10.0002 17.3331 10.1831 17.2607 10.2996 17.1158C10.416 16.971 10.4742 16.7495 10.4742 16.4515Z" fill="#A4A9AD"/>
<path d="M12.68 18.0069H11.8711V14.9667H13.6678V15.6259H12.68V16.2061H13.5908V16.8652H12.68V18.0069Z" fill="#A4A9AD"/>
<path d="M14.1514 3.85416H17.3529L14.1514 0.652588V3.85416Z" fill="#D1D3D3"/>
</g>
<defs>
<clipPath id="clip0_423_515">
<rect width="19.2118" height="19.2118" fill="white" transform="translate(0.222656 0.653076)"/>
</clipPath>
</defs>
</svg>
